<svg class="main-svg" xmlns="http://www.w3.org/2000/svg" xmlns:xlink="http://www.w3.org/1999/xlink" width="1600" height="1200" style="" viewBox="0 0 1600 1200"><rect x="0" y="0" width="1600" height="1200" style="fill: rgb(255, 255, 255); fill-opacity: 1;"/><defs id="defs-91fc17"><g class="clips"><clipPath id="clip91fc17xyplot" class="plotclip"><rect width="1492" height="868"/></clipPath><clipPath class="axesclip" id="clip91fc17x"><rect x="78" y="0" width="1492" height="1200"/></clipPath><clipPath class="axesclip" id="clip91fc17y"><rect x="0" y="60" width="1600" height="868"/></clipPath><clipPath class="axesclip" id="clip91fc17xy"><rect x="78" y="60" width="1492" height="868"/></clipPath></g><g class="gradients"/><g class="patterns"/></defs><g class="bglayer"/><g class="layer-below"><g class="imagelayer"/><g class="shapelayer"/></g><g class="cartesianlayer"><g class="subplot xy"><g class="layer-subplot"><g class="shapelayer"/><g class="imagelayer"/></g><g class="minor-gridlayer"><g class="x"/><g class="y"/></g><g class="gridlayer"><g class="x"/><g class="y"/></g><g class="zerolinelayer"/><g class="layer-between"><g class="shapelayer"/><g class="imagelayer"/></g><path class="xlines-below"/><path class="ylines-below"/><g class="overlines-below"/><g class="xaxislayer-below"/><g class="yaxislayer-below"/><g class="overaxes-below"/><g class="overplot"><g class="xy" transform="translate(78,60)" clip-path="url(#clip91fc17xyplot)"><g class="scatterlayer mlayer"><g class="trace scatter trace04da78" style="stroke-miterlimit: 2; opacity: 1;"><g class="fills"/><g class="errorbars"/><g class="lines"><path class="js-line" d="M0,43.4L41.44,163.6L82.89,120.42L124.33,199.5L165.78,143.92L207.22,166.06L248.67,211.3L290.11,243.38L331.56,286.5L373,346.84L414.44,392.57L455.89,417.13L497.33,477.5L538.78,520.91L580.22,591.59L621.67,633.48L663.11,664.67L704.56,694.26L746,722.2L787.44,753.18L828.89,792.37L870.33,824.6L911.78,790.35L953.22,762.39L994.67,765.63L1036.11,765.2L1077.56,763.6L1201.89,759.76L1243.33,758.54L1284.78,755.47L1326.22,756.92L1409.11,754.9L1450.56,753.9L1492,752.96" style="vector-effect: none; fill: none; stroke: rgb(31, 119, 180); stroke-opacity: 1; stroke-width: 2px; opacity: 1;"/></g><g class="points"/><g class="text"/></g><g class="trace scatter traced41fb8" style="stroke-miterlimit: 2; opacity: 1;"><g class="fills"/><g class="errorbars"/><g class="lines"><path class="js-line" d="M0,45.14L41.44,165.34L82.89,122.18L124.33,207.09L165.78,158.5L207.22,167.95L248.67,207.02L290.11,223.29L331.56,236.5L373,252.1L414.44,258.39L455.89,272.52L497.33,288.97L580.22,342.06L621.67,357.27L663.11,366.07L704.56,377.2L787.44,398.46L828.89,410.3L870.33,436.33L911.78,408.7L953.22,394.45L994.67,420.6L1036.11,438.67L1077.56,434.85L1119,443.78L1160.44,476.25L1201.89,514.44L1243.33,537.35L1284.78,551.98L1326.22,556.91L1367.67,554.59L1409.11,553.64L1492,549.34" style="vector-effect: none; fill: none; stroke: rgb(255, 127, 14); stroke-opacity: 1; stroke-width: 2px; opacity: 1;"/></g><g class="points"/><g class="text"/></g></g></g></g><path class="xlines-above crisp" d="M77,928.5H1570" style="fill: none; stroke-width: 1px; stroke: rgb(36, 36, 36); stroke-opacity: 1;"/><path class="ylines-above crisp" d="M77.5,60V928" style="fill: none; stroke-width: 1px; stroke: rgb(36, 36, 36); stroke-opacity: 1;"/><g class="overlines-above"/><g class="xaxislayer-above"><path class="xtick ticks crisp" d="M0,929v5" transform="translate(78,0)" style="stroke: rgb(68, 68, 68); stroke-opacity: 1; stroke-width: 1px;"/><path class="xtick ticks crisp" d="M0,929v5" transform="translate(119.44,0)" style="stroke: rgb(68, 68, 68); stroke-opacity: 1; stroke-width: 1px;"/><path class="xtick ticks crisp" d="M0,929v5" transform="translate(160.89,0)" style="stroke: rgb(68, 68, 68); stroke-opacity: 1; stroke-width: 1px;"/><path class="xtick ticks crisp" d="M0,929v5" transform="translate(202.32999999999998,0)" style="stroke: rgb(68, 68, 68); stroke-opacity: 1; stroke-width: 1px;"/><path class="xtick ticks crisp" d="M0,929v5" transform="translate(243.78,0)" style="stroke: rgb(68, 68, 68); stroke-opacity: 1; stroke-width: 1px;"/><path class="xtick ticks crisp" d="M0,929v5" transform="translate(285.22,0)" style="stroke: rgb(68, 68, 68); stroke-opacity: 1; stroke-width: 1px;"/><path class="xtick ticks crisp" d="M0,929v5" transform="translate(326.66999999999996,0)" style="stroke: rgb(68, 68, 68); stroke-opacity: 1; stroke-width: 1px;"/><path class="xtick ticks crisp" d="M0,929v5" transform="translate(368.11,0)" style="stroke: rgb(68, 68, 68); stroke-opacity: 1; stroke-width: 1px;"/><path class="xtick ticks crisp" d="M0,929v5" transform="translate(409.56,0)" style="stroke: rgb(68, 68, 68); stroke-opacity: 1; stroke-width: 1px;"/><path class="xtick ticks crisp" d="M0,929v5" transform="translate(451,0)" style="stroke: rgb(68, 68, 68); stroke-opacity: 1; stroke-width: 1px;"/><path class="xtick ticks crisp" d="M0,929v5" transform="translate(492.44,0)" style="stroke: rgb(68, 68, 68); stroke-opacity: 1; stroke-width: 1px;"/><path class="xtick ticks crisp" d="M0,929v5" transform="translate(533.89,0)" style="stroke: rgb(68, 68, 68); stroke-opacity: 1; stroke-width: 1px;"/><path class="xtick ticks crisp" d="M0,929v5" transform="translate(575.3299999999999,0)" style="stroke: rgb(68, 68, 68); stroke-opacity: 1; stroke-width: 1px;"/><path class="xtick ticks crisp" d="M0,929v5" transform="translate(616.78,0)" style="stroke: rgb(68, 68, 68); stroke-opacity: 1; stroke-width: 1px;"/><path class="xtick ticks crisp" d="M0,929v5" transform="translate(658.22,0)" style="stroke: rgb(68, 68, 68); stroke-opacity: 1; stroke-width: 1px;"/><path class="xtick ticks crisp" d="M0,929v5" transform="translate(699.67,0)" style="stroke: rgb(68, 68, 68); stroke-opacity: 1; stroke-width: 1px;"/><path class="xtick ticks crisp" d="M0,929v5" transform="translate(741.11,0)" style="stroke: rgb(68, 68, 68); stroke-opacity: 1; stroke-width: 1px;"/><path class="xtick ticks crisp" d="M0,929v5" transform="translate(782.56,0)" style="stroke: rgb(68, 68, 68); stroke-opacity: 1; stroke-width: 1px;"/><path class="xtick ticks crisp" d="M0,929v5" transform="translate(824,0)" style="stroke: rgb(68, 68, 68); stroke-opacity: 1; stroke-width: 1px;"/><path class="xtick ticks crisp" d="M0,929v5" transform="translate(865.44,0)" style="stroke: rgb(68, 68, 68); stroke-opacity: 1; stroke-width: 1px;"/><path class="xtick ticks crisp" d="M0,929v5" transform="translate(906.89,0)" style="stroke: rgb(68, 68, 68); stroke-opacity: 1; stroke-width: 1px;"/><path class="xtick ticks crisp" d="M0,929v5" transform="translate(948.33,0)" style="stroke: rgb(68, 68, 68); stroke-opacity: 1; stroke-width: 1px;"/><path class="xtick ticks crisp" d="M0,929v5" transform="translate(989.78,0)" style="stroke: rgb(68, 68, 68); stroke-opacity: 1; stroke-width: 1px;"/><path class="xtick ticks crisp" d="M0,929v5" transform="translate(1031.22,0)" style="stroke: rgb(68, 68, 68); stroke-opacity: 1; stroke-width: 1px;"/><path class="xtick ticks crisp" d="M0,929v5" transform="translate(1072.67,0)" style="stroke: rgb(68, 68, 68); stroke-opacity: 1; stroke-width: 1px;"/><path class="xtick ticks crisp" d="M0,929v5" transform="translate(1114.11,0)" style="stroke: rgb(68, 68, 68); stroke-opacity: 1; stroke-width: 1px;"/><path class="xtick ticks crisp" d="M0,929v5" transform="translate(1155.56,0)" style="stroke: rgb(68, 68, 68); stroke-opacity: 1; stroke-width: 1px;"/><path class="xtick ticks crisp" d="M0,929v5" transform="translate(1197,0)" style="stroke: rgb(68, 68, 68); stroke-opacity: 1; stroke-width: 1px;"/><path class="xtick ticks crisp" d="M0,929v5" transform="translate(1238.44,0)" style="stroke: rgb(68, 68, 68); stroke-opacity: 1; stroke-width: 1px;"/><path class="xtick ticks crisp" d="M0,929v5" transform="translate(1279.89,0)" style="stroke: rgb(68, 68, 68); stroke-opacity: 1; stroke-width: 1px;"/><path class="xtick ticks crisp" d="M0,929v5" transform="translate(1321.33,0)" style="stroke: rgb(68, 68, 68); stroke-opacity: 1; stroke-width: 1px;"/><path class="xtick ticks crisp" d="M0,929v5" transform="translate(1362.78,0)" style="stroke: rgb(68, 68, 68); stroke-opacity: 1; stroke-width: 1px;"/><path class="xtick ticks crisp" d="M0,929v5" transform="translate(1404.22,0)" style="stroke: rgb(68, 68, 68); stroke-opacity: 1; stroke-width: 1px;"/><path class="xtick ticks crisp" d="M0,929v5" transform="translate(1445.67,0)" style="stroke: rgb(68, 68, 68); stroke-opacity: 1; stroke-width: 1px;"/><path class="xtick ticks crisp" d="M0,929v5" transform="translate(1487.11,0)" style="stroke: rgb(68, 68, 68); stroke-opacity: 1; stroke-width: 1px;"/><path class="xtick ticks crisp" d="M0,929v5" transform="translate(1528.56,0)" style="stroke: rgb(68, 68, 68); stroke-opacity: 1; stroke-width: 1px;"/><path class="xtick ticks crisp" d="M0,929v5" transform="translate(1570,0)" style="stroke: rgb(68, 68, 68); stroke-opacity: 1; stroke-width: 1px;"/><g class="xtick"><text text-anchor="middle" x="0" y="950.8" transform="translate(78,0)" style="font-family: Arial; font-size: 14px; fill: rgb(36, 36, 36); fill-opacity: 1; white-space: pre; opacity: 1;">2019</text></g><g class="xtick"><text text-anchor="middle" x="0" y="950.8" style="font-family: Arial; font-size: 14px; fill: rgb(36, 36, 36); fill-opacity: 1; white-space: pre; opacity: 1;" transform="translate(119.44,0)">2020</text></g><g class="xtick"><text text-anchor="middle" x="0" y="950.8" style="font-family: Arial; font-size: 14px; fill: rgb(36, 36, 36); fill-opacity: 1; white-space: pre; opacity: 1;" transform="translate(160.89,0)">2021</text></g><g class="xtick"><text text-anchor="middle" x="0" y="950.8" style="font-family: Arial; font-size: 14px; fill: rgb(36, 36, 36); fill-opacity: 1; white-space: pre; opacity: 1;" transform="translate(202.32999999999998,0)">2022</text></g><g class="xtick"><text text-anchor="middle" x="0" y="950.8" style="font-family: Arial; font-size: 14px; fill: rgb(36, 36, 36); fill-opacity: 1; white-space: pre; opacity: 1;" transform="translate(243.78,0)">2023</text></g><g class="xtick"><text text-anchor="middle" x="0" y="950.8" style="font-family: Arial; font-size: 14px; fill: rgb(36, 36, 36); fill-opacity: 1; white-space: pre; opacity: 1;" transform="translate(285.22,0)">2024</text></g><g class="xtick"><text text-anchor="middle" x="0" y="950.8" style="font-family: Arial; font-size: 14px; fill: rgb(36, 36, 36); fill-opacity: 1; white-space: pre; opacity: 1;" transform="translate(326.66999999999996,0)">2025</text></g><g class="xtick"><text text-anchor="middle" x="0" y="950.8" style="font-family: Arial; font-size: 14px; fill: rgb(36, 36, 36); fill-opacity: 1; white-space: pre; opacity: 1;" transform="translate(368.11,0)">2026</text></g><g class="xtick"><text text-anchor="middle" x="0" y="950.8" style="font-family: Arial; font-size: 14px; fill: rgb(36, 36, 36); fill-opacity: 1; white-space: pre; opacity: 1;" transform="translate(409.56,0)">2027</text></g><g class="xtick"><text text-anchor="middle" x="0" y="950.8" style="font-family: Arial; font-size: 14px; fill: rgb(36, 36, 36); fill-opacity: 1; white-space: pre; opacity: 1;" transform="translate(451,0)">2028</text></g><g class="xtick"><text text-anchor="middle" x="0" y="950.8" style="font-family: Arial; font-size: 14px; fill: rgb(36, 36, 36); fill-opacity: 1; white-space: pre; opacity: 1;" transform="translate(492.44,0)">2029</text></g><g class="xtick"><text text-anchor="middle" x="0" y="950.8" style="font-family: Arial; font-size: 14px; fill: rgb(36, 36, 36); fill-opacity: 1; white-space: pre; opacity: 1;" transform="translate(533.89,0)">2030</text></g><g class="xtick"><text text-anchor="middle" x="0" y="950.8" style="font-family: Arial; font-size: 14px; fill: rgb(36, 36, 36); fill-opacity: 1; white-space: pre; opacity: 1;" transform="translate(575.3299999999999,0)">2031</text></g><g class="xtick"><text text-anchor="middle" x="0" y="950.8" style="font-family: Arial; font-size: 14px; fill: rgb(36, 36, 36); fill-opacity: 1; white-space: pre; opacity: 1;" transform="translate(616.78,0)">2032</text></g><g class="xtick"><text text-anchor="middle" x="0" y="950.8" style="font-family: Arial; font-size: 14px; fill: rgb(36, 36, 36); fill-opacity: 1; white-space: pre; opacity: 1;" transform="translate(658.22,0)">2033</text></g><g class="xtick"><text text-anchor="middle" x="0" y="950.8" style="font-family: Arial; font-size: 14px; fill: rgb(36, 36, 36); fill-opacity: 1; white-space: pre; opacity: 1;" transform="translate(699.67,0)">2034</text></g><g class="xtick"><text text-anchor="middle" x="0" y="950.8" style="font-family: Arial; font-size: 14px; fill: rgb(36, 36, 36); fill-opacity: 1; white-space: pre; opacity: 1;" transform="translate(741.11,0)">2035</text></g><g class="xtick"><text text-anchor="middle" x="0" y="950.8" style="font-family: Arial; font-size: 14px; fill: rgb(36, 36, 36); fill-opacity: 1; white-space: pre; opacity: 1;" transform="translate(782.56,0)">2036</text></g><g class="xtick"><text text-anchor="middle" x="0" y="950.8" style="font-family: Arial; font-size: 14px; fill: rgb(36, 36, 36); fill-opacity: 1; white-space: pre; opacity: 1;" transform="translate(824,0)">2037</text></g><g class="xtick"><text text-anchor="middle" x="0" y="950.8" style="font-family: Arial; font-size: 14px; fill: rgb(36, 36, 36); fill-opacity: 1; white-space: pre; opacity: 1;" transform="translate(865.44,0)">2038</text></g><g class="xtick"><text text-anchor="middle" x="0" y="950.8" style="font-family: Arial; font-size: 14px; fill: rgb(36, 36, 36); fill-opacity: 1; white-space: pre; opacity: 1;" transform="translate(906.89,0)">2039</text></g><g class="xtick"><text text-anchor="middle" x="0" y="950.8" style="font-family: Arial; font-size: 14px; fill: rgb(36, 36, 36); fill-opacity: 1; white-space: pre; opacity: 1;" transform="translate(948.33,0)">2040</text></g><g class="xtick"><text text-anchor="middle" x="0" y="950.8" style="font-family: Arial; font-size: 14px; fill: rgb(36, 36, 36); fill-opacity: 1; white-space: pre; opacity: 1;" transform="translate(989.78,0)">2041</text></g><g class="xtick"><text text-anchor="middle" x="0" y="950.8" style="font-family: Arial; font-size: 14px; fill: rgb(36, 36, 36); fill-opacity: 1; white-space: pre; opacity: 1;" transform="translate(1031.22,0)">2042</text></g><g class="xtick"><text text-anchor="middle" x="0" y="950.8" style="font-family: Arial; font-size: 14px; fill: rgb(36, 36, 36); fill-opacity: 1; white-space: pre; opacity: 1;" transform="translate(1072.67,0)">2043</text></g><g class="xtick"><text text-anchor="middle" x="0" y="950.8" style="font-family: Arial; font-size: 14px; fill: rgb(36, 36, 36); fill-opacity: 1; white-space: pre; opacity: 1;" transform="translate(1114.11,0)">2044</text></g><g class="xtick"><text text-anchor="middle" x="0" y="950.8" style="font-family: Arial; font-size: 14px; fill: rgb(36, 36, 36); fill-opacity: 1; white-space: pre; opacity: 1;" transform="translate(1155.56,0)">2045</text></g><g class="xtick"><text text-anchor="middle" x="0" y="950.8" style="font-family: Arial; font-size: 14px; fill: rgb(36, 36, 36); fill-opacity: 1; white-space: pre; opacity: 1;" transform="translate(1197,0)">2046</text></g><g class="xtick"><text text-anchor="middle" x="0" y="950.8" style="font-family: Arial; font-size: 14px; fill: rgb(36, 36, 36); fill-opacity: 1; white-space: pre; opacity: 1;" transform="translate(1238.44,0)">2047</text></g><g class="xtick"><text text-anchor="middle" x="0" y="950.8" style="font-family: Arial; font-size: 14px; fill: rgb(36, 36, 36); fill-opacity: 1; white-space: pre; opacity: 1;" transform="translate(1279.89,0)">2048</text></g><g class="xtick"><text text-anchor="middle" x="0" y="950.8" style="font-family: Arial; font-size: 14px; fill: rgb(36, 36, 36); fill-opacity: 1; white-space: pre; opacity: 1;" transform="translate(1321.33,0)">2049</text></g><g class="xtick"><text text-anchor="middle" x="0" y="950.8" style="font-family: Arial; font-size: 14px; fill: rgb(36, 36, 36); fill-opacity: 1; white-space: pre; opacity: 1;" transform="translate(1362.78,0)">2050</text></g><g class="xtick"><text text-anchor="middle" x="0" y="950.8" style="font-family: Arial; font-size: 14px; fill: rgb(36, 36, 36); fill-opacity: 1; white-space: pre; opacity: 1;" transform="translate(1404.22,0)">2051</text></g><g class="xtick"><text text-anchor="middle" x="0" y="950.8" style="font-family: Arial; font-size: 14px; fill: rgb(36, 36, 36); fill-opacity: 1; white-space: pre; opacity: 1;" transform="translate(1445.67,0)">2052</text></g><g class="xtick"><text text-anchor="middle" x="0" y="950.8" style="font-family: Arial; font-size: 14px; fill: rgb(36, 36, 36); fill-opacity: 1; white-space: pre; opacity: 1;" transform="translate(1487.11,0)">2053</text></g><g class="xtick"><text text-anchor="middle" x="0" y="950.8" style="font-family: Arial; font-size: 14px; fill: rgb(36, 36, 36); fill-opacity: 1; white-space: pre; opacity: 1;" transform="translate(1528.56,0)">2054</text></g><g class="xtick"><text text-anchor="middle" x="0" y="950.8" style="font-family: Arial; font-size: 14px; fill: rgb(36, 36, 36); fill-opacity: 1; white-space: pre; opacity: 1;" transform="translate(1570,0)">2055</text></g></g><g class="yaxislayer-above"><path class="ytick ticks crisp" d="M77,0h-5" transform="translate(0,919.11)" style="stroke: rgb(68, 68, 68); stroke-opacity: 1; stroke-width: 1px;"/><path class="ytick ticks crisp" d="M77,0h-5" transform="translate(0,799.49)" style="stroke: rgb(68, 68, 68); stroke-opacity: 1; stroke-width: 1px;"/><path class="ytick ticks crisp" d="M77,0h-5" transform="translate(0,679.87)" style="stroke: rgb(68, 68, 68); stroke-opacity: 1; stroke-width: 1px;"/><path class="ytick ticks crisp" d="M77,0h-5" transform="translate(0,560.25)" style="stroke: rgb(68, 68, 68); stroke-opacity: 1; stroke-width: 1px;"/><path class="ytick ticks crisp" d="M77,0h-5" transform="translate(0,440.64)" style="stroke: rgb(68, 68, 68); stroke-opacity: 1; stroke-width: 1px;"/><path class="ytick ticks crisp" d="M77,0h-5" transform="translate(0,321.02)" style="stroke: rgb(68, 68, 68); stroke-opacity: 1; stroke-width: 1px;"/><path class="ytick ticks crisp" d="M77,0h-5" transform="translate(0,201.4)" style="stroke: rgb(68, 68, 68); stroke-opacity: 1; stroke-width: 1px;"/><path class="ytick ticks crisp" d="M77,0h-5" transform="translate(0,81.78999999999999)" style="stroke: rgb(68, 68, 68); stroke-opacity: 1; stroke-width: 1px;"/><g class="ytick"><text text-anchor="end" x="69.2" y="4.8999999999999995" transform="translate(0,919.11)" style="font-family: Arial; font-size: 14px; fill: rgb(36, 36, 36); fill-opacity: 1; white-space: pre; opacity: 1;">150k</text></g><g class="ytick"><text text-anchor="end" x="69.2" y="4.8999999999999995" style="font-family: Arial; font-size: 14px; fill: rgb(36, 36, 36); fill-opacity: 1; white-space: pre; opacity: 1;" transform="translate(0,799.49)">200k</text></g><g class="ytick"><text text-anchor="end" x="69.2" y="4.8999999999999995" style="font-family: Arial; font-size: 14px; fill: rgb(36, 36, 36); fill-opacity: 1; white-space: pre; opacity: 1;" transform="translate(0,679.87)">250k</text></g><g class="ytick"><text text-anchor="end" x="69.2" y="4.8999999999999995" style="font-family: Arial; font-size: 14px; fill: rgb(36, 36, 36); fill-opacity: 1; white-space: pre; opacity: 1;" transform="translate(0,560.25)">300k</text></g><g class="ytick"><text text-anchor="end" x="69.2" y="4.8999999999999995" style="font-family: Arial; font-size: 14px; fill: rgb(36, 36, 36); fill-opacity: 1; white-space: pre; opacity: 1;" transform="translate(0,440.64)">350k</text></g><g class="ytick"><text text-anchor="end" x="69.2" y="4.8999999999999995" style="font-family: Arial; font-size: 14px; fill: rgb(36, 36, 36); fill-opacity: 1; white-space: pre; opacity: 1;" transform="translate(0,321.02)">400k</text></g><g class="ytick"><text text-anchor="end" x="69.2" y="4.8999999999999995" style="font-family: Arial; font-size: 14px; fill: rgb(36, 36, 36); fill-opacity: 1; white-space: pre; opacity: 1;" transform="translate(0,201.4)">450k</text></g><g class="ytick"><text text-anchor="end" x="69.2" y="4.8999999999999995" style="font-family: Arial; font-size: 14px; fill: rgb(36, 36, 36); fill-opacity: 1; white-space: pre; opacity: 1;" transform="translate(0,81.78999999999999)">500k</text></g></g><g class="overaxes-above"/></g></g><g class="polarlayer"/><g class="smithlayer"/><g class="ternarylayer"/><g class="geolayer"/><g class="funnelarealayer"/><g class="pielayer"/><g class="iciclelayer"/><g class="treemaplayer"/><g class="sunburstlayer"/><g class="glimages"/><defs id="topdefs-91fc17"><g class="clips"/><clipPath id="legend91fc17"><rect width="313" height="32" x="0" y="0"/></clipPath></defs><g class="layer-above"><g class="imagelayer"/><g class="shapelayer"/></g><g class="infolayer"><g class="legend" pointer-events="all" transform="translate(667.5,1156.4)"><rect class="bg" shape-rendering="crispEdges" style="stroke: rgb(68, 68, 68); stroke-opacity: 1; fill: rgb(255, 255, 255); fill-opacity: 1; stroke-width: 0px;" width="313" height="32" x="0" y="0"/><g class="scrollbox" transform="" clip-path="url(#legend91fc17)"><g class="groups"><g class="traces" transform="translate(0,15.6)" style="opacity: 1;"><text class="legendtext" text-anchor="start" x="40" y="5.46" style="font-family: Arial; font-size: 14px; fill: rgb(36, 36, 36); fill-opacity: 1; white-space: pre;">NDC_BASE-08-RG</text><g class="layers" style="opacity: 1;"><g class="legendfill"/><g class="legendlines"><path class="js-line" d="M5,0h30" style="fill: none; stroke: rgb(31, 119, 180); stroke-opacity: 1; stroke-width: 2px;"/></g><g class="legendsymbols"><g class="legendpoints"/></g></g><rect class="legendtoggle" x="0" y="-10.6" width="163.9755859375" height="21.2" style="fill: rgb(0, 0, 0); fill-opacity: 0;"/></g><g class="traces" transform="translate(166.4755859375,15.6)" style="opacity: 1;"><text class="legendtext" text-anchor="start" x="40" y="5.46" style="font-family: Arial; font-size: 14px; fill: rgb(36, 36, 36); fill-opacity: 1; white-space: pre;">NDC_BASE-RG</text><g class="layers" style="opacity: 1;"><g class="legendfill"/><g class="legendlines"><path class="js-line" d="M5,0h30" style="fill: none; stroke: rgb(255, 127, 14); stroke-opacity: 1; stroke-width: 2px;"/></g><g class="legendsymbols"><g class="legendpoints"/></g></g><rect class="legendtoggle" x="0" y="-10.6" width="143.7412109375" height="21.2" style="fill: rgb(0, 0, 0); fill-opacity: 0;"/></g></g></g><rect class="scrollbar" rx="20" ry="3" width="0" height="0" style="fill: rgb(128, 139, 164); fill-opacity: 1;" x="0" y="0"/></g><g class="g-gtitle"><text class="gtitle" x="80" y="30" text-anchor="start" dy="0em" style="opacity: 1; font-family: Arial; font-size: 20px; fill: rgb(36, 36, 36); fill-opacity: 1; white-space: pre;">Fig 5: Total Emissions for BASE Scenarios (Reference Economic Growth)</text></g><g class="g-xtitle"><text class="xtitle" x="824" y="980.1998046875" text-anchor="middle" style="opacity: 1; font-family: Arial; font-size: 17px; fill: rgb(36, 36, 36); fill-opacity: 1; white-space: pre;">Year</text></g><g class="g-ytitle"><text class="ytitle" transform="rotate(-90,18.390820312499997,494)" x="18.390820312499997" y="494" text-anchor="middle" style="opacity: 1; font-family: Arial; font-size: 17px; fill: rgb(36, 36, 36); fill-opacity: 1; white-space: pre;">CO₂eq (kt)</text></g></g></svg>