<svg class="main-svg" xmlns="http://www.w3.org/2000/svg" xmlns:xlink="http://www.w3.org/1999/xlink" width="1600" height="1200" style="" viewBox="0 0 1600 1200"><rect x="0" y="0" width="1600" height="1200" style="fill: rgb(255, 255, 255); fill-opacity: 1;"/><defs id="defs-e03851"><g class="clips"><clipPath id="clipe03851xyplot" class="plotclip"><rect width="1492" height="902"/></clipPath><clipPath class="axesclip" id="clipe03851x"><rect x="78" y="0" width="1492" height="1200"/></clipPath><clipPath class="axesclip" id="clipe03851y"><rect x="0" y="60" width="1600" height="902"/></clipPath><clipPath class="axesclip" id="clipe03851xy"><rect x="78" y="60" width="1492" height="902"/></clipPath></g><g class="gradients"/><g class="patterns"/></defs><g class="bglayer"/><g class="layer-below"><g class="imagelayer"/><g class="shapelayer"/></g><g class="cartesianlayer"><g class="subplot xy"><g class="layer-subplot"><g class="shapelayer"/><g class="imagelayer"/></g><g class="minor-gridlayer"><g class="x"/><g class="y"/></g><g class="gridlayer"><g class="x"/><g class="y"/></g><g class="zerolinelayer"/><g class="layer-between"><g class="shapelayer"/><g class="imagelayer"/></g><path class="xlines-below"/><path class="ylines-below"/><g class="overlines-below"/><g class="xaxislayer-below"/><g class="yaxislayer-below"/><g class="overaxes-below"/><g class="overplot"><g class="xy" transform="translate(78,60)" clip-path="url(#clipe03851xyplot)"><g class="scatterlayer mlayer"><g class="trace scatter trace6bbca0" style="stroke-miterlimit: 2; opacity: 1;"><g class="fills"><g><path class="js-fill" d="M0,46.91L41.44,171.82L82.89,126.96L124.33,215.2L165.78,164.7L207.22,174.52L248.67,219.58L290.11,252.92L331.56,297.73L373,360.42L414.44,407.95L455.89,433.47L497.33,496.2L538.78,541.32L580.22,614.76L621.67,658.3L663.11,690.71L704.56,721.46L746,750.49L787.44,782.68L828.89,823.41L870.33,856.9L911.78,821.3L953.22,792.25L994.67,795.62L1036.11,795.17L1077.56,793.52L1201.89,789.52L1243.33,788.26L1284.78,785.06L1326.22,786.57L1409.11,784.46L1450.56,783.43L1492,782.45L1492,570.86L1409.11,575.33L1367.67,576.32L1326.22,578.72L1284.78,573.6L1243.33,558.4L1201.89,534.59L1160.44,494.91L1119,461.16L1077.56,451.88L1036.11,455.85L994.67,437.07L953.22,409.9L911.78,424.7L870.33,453.42L828.89,426.37L787.44,414.07L663.11,380.41L621.67,371.26L580.22,355.46L538.78,327.76L497.33,300.29L455.89,283.2L414.44,268.51L373,261.97L331.56,245.76L290.11,232.03L248.67,215.13L207.22,172.57L165.78,149.56L124.33,207.31L82.89,125.14L41.44,170.01L0,45.1Z" style="fill: rgb(0, 0, 255); fill-opacity: 0.2; stroke-width: 0;"/></g></g><g class="errorbars"/><g class="lines"><path class="js-line" d="M0,46.91L41.44,171.82L82.89,126.96L124.33,215.2L165.78,164.7L207.22,174.52L248.67,219.58L290.11,252.92L331.56,297.73L373,360.42L414.44,407.95L455.89,433.47L497.33,496.2L538.78,541.32L580.22,614.76L621.67,658.3L663.11,690.71L704.56,721.46L746,750.49L787.44,782.68L828.89,823.41L870.33,856.9L911.78,821.3L953.22,792.25L994.67,795.62L1036.11,795.17L1077.56,793.52L1201.89,789.52L1243.33,788.26L1284.78,785.06L1326.22,786.57L1409.11,784.46L1450.56,783.43L1492,782.45L1492,570.86L1409.11,575.33L1367.67,576.32L1326.22,578.72L1284.78,573.6L1243.33,558.4L1201.89,534.59L1160.44,494.91L1119,461.16L1077.56,451.88L1036.11,455.85L994.67,437.07L953.22,409.9L911.78,424.7L870.33,453.42L828.89,426.37L787.44,414.07L663.11,380.41L621.67,371.26L580.22,355.46L538.78,327.76L497.33,300.29L455.89,283.2L414.44,268.51L373,261.97L331.56,245.76L290.11,232.03L248.67,215.13L207.22,172.57L165.78,149.56L124.33,207.31L82.89,125.14L41.44,170.01L0,45.1" style="vector-effect: none; fill: none; stroke: rgb(255, 255, 255); stroke-opacity: 0; stroke-width: 2px; opacity: 1;"/></g><g class="points"/><g class="text"/></g><g class="trace scatter tracecc2dc4" style="stroke-miterlimit: 2; opacity: 1;"><g class="fills"/><g class="errorbars"/><g class="lines"><path class="js-line" d="M0,46L41.44,170.92L82.89,126.05L124.33,211.26L165.78,157.13L207.22,173.54L248.67,217.35L290.11,242.48L331.56,271.74L373,311.2L414.44,338.23L455.89,358.34L497.33,398.25L538.78,434.54L580.22,485.11L621.67,514.78L663.11,535.56L704.56,556.72L746,576.67L787.44,598.37L828.89,624.89L870.33,655.16L911.78,623L953.22,601.08L994.67,616.34L1036.11,625.51L1077.56,622.7L1119,626.59L1160.44,642.65L1201.89,662.05L1243.33,673.33L1284.78,679.33L1326.22,682.64L1492,676.66" style="vector-effect: none; fill: none; stroke: rgb(0, 0, 255); stroke-opacity: 1; stroke-width: 2px; opacity: 1;"/></g><g class="points"/><g class="text"/></g><g class="trace scatter tracea47d69" style="stroke-miterlimit: 2; opacity: 1;"><g class="fills"><g><path class="js-fill" d="M0,47.39L41.44,172.66L82.89,130.58L124.33,216.05L165.78,168.57L207.22,184.18L248.67,258.5L290.11,293.92L331.56,341.61L373,393.92L414.44,435.32L497.33,486.45L538.78,525.14L580.22,564.37L621.67,597.06L663.11,634.77L704.56,670.72L746,705.35L787.44,741.69L828.89,767.93L870.33,785.41L911.78,755.09L953.22,729.17L994.67,733.69L1036.11,736.2L1077.56,732.57L1119,736.48L1160.44,745.36L1201.89,757.87L1243.33,766.26L1284.78,777.59L1326.22,773.23L1367.67,767.57L1409.11,763.78L1450.56,760.91L1492,760.98L1492,600.81L1367.67,600.73L1326.22,605.63L1284.78,595.97L1243.33,579.44L1201.89,562.9L1160.44,545.02L1119,514.55L1077.56,500.94L1036.11,510.99L994.67,497.43L953.22,467.3L911.78,479.52L870.33,503.68L828.89,478.15L787.44,462.88L746,449.67L704.56,436.66L663.11,422.23L621.67,411.34L580.22,393.38L538.78,360.49L497.33,326.19L455.89,304.78L414.44,289.81L373,276.44L331.56,258.31L290.11,241.84L248.67,223.32L207.22,175.21L165.78,152.18L124.33,210.48L82.89,127.36L41.44,170.77L0,45.53Z" style="fill: rgb(255, 255, 0); fill-opacity: 0.2; stroke-width: 0;"/></g></g><g class="errorbars"/><g class="lines"><path class="js-line" d="M0,47.39L41.44,172.66L82.89,130.58L124.33,216.05L165.78,168.57L207.22,184.18L248.67,258.5L290.11,293.92L331.56,341.61L373,393.92L414.44,435.32L497.33,486.45L538.78,525.14L580.22,564.37L621.67,597.06L663.11,634.77L704.56,670.72L746,705.35L787.44,741.69L828.89,767.93L870.33,785.41L911.78,755.09L953.22,729.17L994.67,733.69L1036.11,736.2L1077.56,732.57L1119,736.48L1160.44,745.36L1201.89,757.87L1243.33,766.26L1284.78,777.59L1326.22,773.23L1367.67,767.57L1409.11,763.78L1450.56,760.91L1492,760.98L1492,600.81L1367.67,600.73L1326.22,605.63L1284.78,595.97L1243.33,579.44L1201.89,562.9L1160.44,545.02L1119,514.55L1077.56,500.94L1036.11,510.99L994.67,497.43L953.22,467.3L911.78,479.52L870.33,503.68L828.89,478.15L787.44,462.88L746,449.67L704.56,436.66L663.11,422.23L621.67,411.34L580.22,393.38L538.78,360.49L497.33,326.19L455.89,304.78L414.44,289.81L373,276.44L331.56,258.31L290.11,241.84L248.67,223.32L207.22,175.21L165.78,152.18L124.33,210.48L82.89,127.36L41.44,170.77L0,45.53" style="vector-effect: none; fill: none; stroke: rgb(255, 255, 255); stroke-opacity: 0; stroke-width: 2px; opacity: 1;"/></g><g class="points"/><g class="text"/></g><g class="trace scatter trace18249e" style="stroke-miterlimit: 2; opacity: 1;"><g class="fills"/><g class="errorbars"/><g class="lines"><path class="js-line" d="M0,46.15L41.44,171.41L82.89,128.44L124.33,212.36L165.78,157.69L207.22,178.36L248.67,235.49L290.11,260.25L331.56,299.26L373,325.79L414.44,354.92L455.89,382.51L497.33,407.1L538.78,446.39L580.22,482.98L621.67,509.72L663.11,534.57L746,592.39L787.44,620.9L828.89,645.7L870.33,659.92L911.78,630.97L953.22,606.4L994.67,619.09L1036.11,618.4L1077.56,604.76L1119,607.59L1160.44,620.59L1201.89,636.85L1243.33,651.47L1284.78,664.48L1326.22,664.2L1367.67,658.49L1409.11,660.41L1450.56,658.11L1492,657.73" style="vector-effect: none; fill: none; stroke: rgb(255, 255, 0); stroke-opacity: 1; stroke-width: 2px; opacity: 1;"/></g><g class="points"/><g class="text"/></g></g></g></g><path class="xlines-above crisp" d="M77,962.5H1570" style="fill: none; stroke-width: 1px; stroke: rgb(36, 36, 36); stroke-opacity: 1;"/><path class="ylines-above crisp" d="M77.5,60V962" style="fill: none; stroke-width: 1px; stroke: rgb(36, 36, 36); stroke-opacity: 1;"/><g class="overlines-above"/><g class="xaxislayer-above"><path class="xtick ticks crisp" d="M0,963v5" transform="translate(78,0)" style="stroke: rgb(68, 68, 68); stroke-opacity: 1; stroke-width: 1px;"/><path class="xtick ticks crisp" d="M0,963v5" transform="translate(119.44,0)" style="stroke: rgb(68, 68, 68); stroke-opacity: 1; stroke-width: 1px;"/><path class="xtick ticks crisp" d="M0,963v5" transform="translate(160.89,0)" style="stroke: rgb(68, 68, 68); stroke-opacity: 1; stroke-width: 1px;"/><path class="xtick ticks crisp" d="M0,963v5" transform="translate(202.32999999999998,0)" style="stroke: rgb(68, 68, 68); stroke-opacity: 1; stroke-width: 1px;"/><path class="xtick ticks crisp" d="M0,963v5" transform="translate(243.78,0)" style="stroke: rgb(68, 68, 68); stroke-opacity: 1; stroke-width: 1px;"/><path class="xtick ticks crisp" d="M0,963v5" transform="translate(285.22,0)" style="stroke: rgb(68, 68, 68); stroke-opacity: 1; stroke-width: 1px;"/><path class="xtick ticks crisp" d="M0,963v5" transform="translate(326.66999999999996,0)" style="stroke: rgb(68, 68, 68); stroke-opacity: 1; stroke-width: 1px;"/><path class="xtick ticks crisp" d="M0,963v5" transform="translate(368.11,0)" style="stroke: rgb(68, 68, 68); stroke-opacity: 1; stroke-width: 1px;"/><path class="xtick ticks crisp" d="M0,963v5" transform="translate(409.56,0)" style="stroke: rgb(68, 68, 68); stroke-opacity: 1; stroke-width: 1px;"/><path class="xtick ticks crisp" d="M0,963v5" transform="translate(451,0)" style="stroke: rgb(68, 68, 68); stroke-opacity: 1; stroke-width: 1px;"/><path class="xtick ticks crisp" d="M0,963v5" transform="translate(492.44,0)" style="stroke: rgb(68, 68, 68); stroke-opacity: 1; stroke-width: 1px;"/><path class="xtick ticks crisp" d="M0,963v5" transform="translate(533.89,0)" style="stroke: rgb(68, 68, 68); stroke-opacity: 1; stroke-width: 1px;"/><path class="xtick ticks crisp" d="M0,963v5" transform="translate(575.3299999999999,0)" style="stroke: rgb(68, 68, 68); stroke-opacity: 1; stroke-width: 1px;"/><path class="xtick ticks crisp" d="M0,963v5" transform="translate(616.78,0)" style="stroke: rgb(68, 68, 68); stroke-opacity: 1; stroke-width: 1px;"/><path class="xtick ticks crisp" d="M0,963v5" transform="translate(658.22,0)" style="stroke: rgb(68, 68, 68); stroke-opacity: 1; stroke-width: 1px;"/><path class="xtick ticks crisp" d="M0,963v5" transform="translate(699.67,0)" style="stroke: rgb(68, 68, 68); stroke-opacity: 1; stroke-width: 1px;"/><path class="xtick ticks crisp" d="M0,963v5" transform="translate(741.11,0)" style="stroke: rgb(68, 68, 68); stroke-opacity: 1; stroke-width: 1px;"/><path class="xtick ticks crisp" d="M0,963v5" transform="translate(782.56,0)" style="stroke: rgb(68, 68, 68); stroke-opacity: 1; stroke-width: 1px;"/><path class="xtick ticks crisp" d="M0,963v5" transform="translate(824,0)" style="stroke: rgb(68, 68, 68); stroke-opacity: 1; stroke-width: 1px;"/><path class="xtick ticks crisp" d="M0,963v5" transform="translate(865.44,0)" style="stroke: rgb(68, 68, 68); stroke-opacity: 1; stroke-width: 1px;"/><path class="xtick ticks crisp" d="M0,963v5" transform="translate(906.89,0)" style="stroke: rgb(68, 68, 68); stroke-opacity: 1; stroke-width: 1px;"/><path class="xtick ticks crisp" d="M0,963v5" transform="translate(948.33,0)" style="stroke: rgb(68, 68, 68); stroke-opacity: 1; stroke-width: 1px;"/><path class="xtick ticks crisp" d="M0,963v5" transform="translate(989.78,0)" style="stroke: rgb(68, 68, 68); stroke-opacity: 1; stroke-width: 1px;"/><path class="xtick ticks crisp" d="M0,963v5" transform="translate(1031.22,0)" style="stroke: rgb(68, 68, 68); stroke-opacity: 1; stroke-width: 1px;"/><path class="xtick ticks crisp" d="M0,963v5" transform="translate(1072.67,0)" style="stroke: rgb(68, 68, 68); stroke-opacity: 1; stroke-width: 1px;"/><path class="xtick ticks crisp" d="M0,963v5" transform="translate(1114.11,0)" style="stroke: rgb(68, 68, 68); stroke-opacity: 1; stroke-width: 1px;"/><path class="xtick ticks crisp" d="M0,963v5" transform="translate(1155.56,0)" style="stroke: rgb(68, 68, 68); stroke-opacity: 1; stroke-width: 1px;"/><path class="xtick ticks crisp" d="M0,963v5" transform="translate(1197,0)" style="stroke: rgb(68, 68, 68); stroke-opacity: 1; stroke-width: 1px;"/><path class="xtick ticks crisp" d="M0,963v5" transform="translate(1238.44,0)" style="stroke: rgb(68, 68, 68); stroke-opacity: 1; stroke-width: 1px;"/><path class="xtick ticks crisp" d="M0,963v5" transform="translate(1279.89,0)" style="stroke: rgb(68, 68, 68); stroke-opacity: 1; stroke-width: 1px;"/><path class="xtick ticks crisp" d="M0,963v5" transform="translate(1321.33,0)" style="stroke: rgb(68, 68, 68); stroke-opacity: 1; stroke-width: 1px;"/><path class="xtick ticks crisp" d="M0,963v5" transform="translate(1362.78,0)" style="stroke: rgb(68, 68, 68); stroke-opacity: 1; stroke-width: 1px;"/><path class="xtick ticks crisp" d="M0,963v5" transform="translate(1404.22,0)" style="stroke: rgb(68, 68, 68); stroke-opacity: 1; stroke-width: 1px;"/><path class="xtick ticks crisp" d="M0,963v5" transform="translate(1445.67,0)" style="stroke: rgb(68, 68, 68); stroke-opacity: 1; stroke-width: 1px;"/><path class="xtick ticks crisp" d="M0,963v5" transform="translate(1487.11,0)" style="stroke: rgb(68, 68, 68); stroke-opacity: 1; stroke-width: 1px;"/><path class="xtick ticks crisp" d="M0,963v5" transform="translate(1528.56,0)" style="stroke: rgb(68, 68, 68); stroke-opacity: 1; stroke-width: 1px;"/><path class="xtick ticks crisp" d="M0,963v5" transform="translate(1570,0)" style="stroke: rgb(68, 68, 68); stroke-opacity: 1; stroke-width: 1px;"/><g class="xtick"><text text-anchor="middle" x="0" y="984.8" transform="translate(78,0)" style="font-family: Arial; font-size: 14px; fill: rgb(36, 36, 36); fill-opacity: 1; white-space: pre; opacity: 1;">2019</text></g><g class="xtick"><text text-anchor="middle" x="0" y="984.8" style="font-family: Arial; font-size: 14px; fill: rgb(36, 36, 36); fill-opacity: 1; white-space: pre; opacity: 1;" transform="translate(119.44,0)">2020</text></g><g class="xtick"><text text-anchor="middle" x="0" y="984.8" style="font-family: Arial; font-size: 14px; fill: rgb(36, 36, 36); fill-opacity: 1; white-space: pre; opacity: 1;" transform="translate(160.89,0)">2021</text></g><g class="xtick"><text text-anchor="middle" x="0" y="984.8" style="font-family: Arial; font-size: 14px; fill: rgb(36, 36, 36); fill-opacity: 1; white-space: pre; opacity: 1;" transform="translate(202.32999999999998,0)">2022</text></g><g class="xtick"><text text-anchor="middle" x="0" y="984.8" style="font-family: Arial; font-size: 14px; fill: rgb(36, 36, 36); fill-opacity: 1; white-space: pre; opacity: 1;" transform="translate(243.78,0)">2023</text></g><g class="xtick"><text text-anchor="middle" x="0" y="984.8" style="font-family: Arial; font-size: 14px; fill: rgb(36, 36, 36); fill-opacity: 1; white-space: pre; opacity: 1;" transform="translate(285.22,0)">2024</text></g><g class="xtick"><text text-anchor="middle" x="0" y="984.8" style="font-family: Arial; font-size: 14px; fill: rgb(36, 36, 36); fill-opacity: 1; white-space: pre; opacity: 1;" transform="translate(326.66999999999996,0)">2025</text></g><g class="xtick"><text text-anchor="middle" x="0" y="984.8" style="font-family: Arial; font-size: 14px; fill: rgb(36, 36, 36); fill-opacity: 1; white-space: pre; opacity: 1;" transform="translate(368.11,0)">2026</text></g><g class="xtick"><text text-anchor="middle" x="0" y="984.8" style="font-family: Arial; font-size: 14px; fill: rgb(36, 36, 36); fill-opacity: 1; white-space: pre; opacity: 1;" transform="translate(409.56,0)">2027</text></g><g class="xtick"><text text-anchor="middle" x="0" y="984.8" style="font-family: Arial; font-size: 14px; fill: rgb(36, 36, 36); fill-opacity: 1; white-space: pre; opacity: 1;" transform="translate(451,0)">2028</text></g><g class="xtick"><text text-anchor="middle" x="0" y="984.8" style="font-family: Arial; font-size: 14px; fill: rgb(36, 36, 36); fill-opacity: 1; white-space: pre; opacity: 1;" transform="translate(492.44,0)">2029</text></g><g class="xtick"><text text-anchor="middle" x="0" y="984.8" style="font-family: Arial; font-size: 14px; fill: rgb(36, 36, 36); fill-opacity: 1; white-space: pre; opacity: 1;" transform="translate(533.89,0)">2030</text></g><g class="xtick"><text text-anchor="middle" x="0" y="984.8" style="font-family: Arial; font-size: 14px; fill: rgb(36, 36, 36); fill-opacity: 1; white-space: pre; opacity: 1;" transform="translate(575.3299999999999,0)">2031</text></g><g class="xtick"><text text-anchor="middle" x="0" y="984.8" style="font-family: Arial; font-size: 14px; fill: rgb(36, 36, 36); fill-opacity: 1; white-space: pre; opacity: 1;" transform="translate(616.78,0)">2032</text></g><g class="xtick"><text text-anchor="middle" x="0" y="984.8" style="font-family: Arial; font-size: 14px; fill: rgb(36, 36, 36); fill-opacity: 1; white-space: pre; opacity: 1;" transform="translate(658.22,0)">2033</text></g><g class="xtick"><text text-anchor="middle" x="0" y="984.8" style="font-family: Arial; font-size: 14px; fill: rgb(36, 36, 36); fill-opacity: 1; white-space: pre; opacity: 1;" transform="translate(699.67,0)">2034</text></g><g class="xtick"><text text-anchor="middle" x="0" y="984.8" style="font-family: Arial; font-size: 14px; fill: rgb(36, 36, 36); fill-opacity: 1; white-space: pre; opacity: 1;" transform="translate(741.11,0)">2035</text></g><g class="xtick"><text text-anchor="middle" x="0" y="984.8" style="font-family: Arial; font-size: 14px; fill: rgb(36, 36, 36); fill-opacity: 1; white-space: pre; opacity: 1;" transform="translate(782.56,0)">2036</text></g><g class="xtick"><text text-anchor="middle" x="0" y="984.8" style="font-family: Arial; font-size: 14px; fill: rgb(36, 36, 36); fill-opacity: 1; white-space: pre; opacity: 1;" transform="translate(824,0)">2037</text></g><g class="xtick"><text text-anchor="middle" x="0" y="984.8" style="font-family: Arial; font-size: 14px; fill: rgb(36, 36, 36); fill-opacity: 1; white-space: pre; opacity: 1;" transform="translate(865.44,0)">2038</text></g><g class="xtick"><text text-anchor="middle" x="0" y="984.8" style="font-family: Arial; font-size: 14px; fill: rgb(36, 36, 36); fill-opacity: 1; white-space: pre; opacity: 1;" transform="translate(906.89,0)">2039</text></g><g class="xtick"><text text-anchor="middle" x="0" y="984.8" style="font-family: Arial; font-size: 14px; fill: rgb(36, 36, 36); fill-opacity: 1; white-space: pre; opacity: 1;" transform="translate(948.33,0)">2040</text></g><g class="xtick"><text text-anchor="middle" x="0" y="984.8" style="font-family: Arial; font-size: 14px; fill: rgb(36, 36, 36); fill-opacity: 1; white-space: pre; opacity: 1;" transform="translate(989.78,0)">2041</text></g><g class="xtick"><text text-anchor="middle" x="0" y="984.8" style="font-family: Arial; font-size: 14px; fill: rgb(36, 36, 36); fill-opacity: 1; white-space: pre; opacity: 1;" transform="translate(1031.22,0)">2042</text></g><g class="xtick"><text text-anchor="middle" x="0" y="984.8" style="font-family: Arial; font-size: 14px; fill: rgb(36, 36, 36); fill-opacity: 1; white-space: pre; opacity: 1;" transform="translate(1072.67,0)">2043</text></g><g class="xtick"><text text-anchor="middle" x="0" y="984.8" style="font-family: Arial; font-size: 14px; fill: rgb(36, 36, 36); fill-opacity: 1; white-space: pre; opacity: 1;" transform="translate(1114.11,0)">2044</text></g><g class="xtick"><text text-anchor="middle" x="0" y="984.8" style="font-family: Arial; font-size: 14px; fill: rgb(36, 36, 36); fill-opacity: 1; white-space: pre; opacity: 1;" transform="translate(1155.56,0)">2045</text></g><g class="xtick"><text text-anchor="middle" x="0" y="984.8" style="font-family: Arial; font-size: 14px; fill: rgb(36, 36, 36); fill-opacity: 1; white-space: pre; opacity: 1;" transform="translate(1197,0)">2046</text></g><g class="xtick"><text text-anchor="middle" x="0" y="984.8" style="font-family: Arial; font-size: 14px; fill: rgb(36, 36, 36); fill-opacity: 1; white-space: pre; opacity: 1;" transform="translate(1238.44,0)">2047</text></g><g class="xtick"><text text-anchor="middle" x="0" y="984.8" style="font-family: Arial; font-size: 14px; fill: rgb(36, 36, 36); fill-opacity: 1; white-space: pre; opacity: 1;" transform="translate(1279.89,0)">2048</text></g><g class="xtick"><text text-anchor="middle" x="0" y="984.8" style="font-family: Arial; font-size: 14px; fill: rgb(36, 36, 36); fill-opacity: 1; white-space: pre; opacity: 1;" transform="translate(1321.33,0)">2049</text></g><g class="xtick"><text text-anchor="middle" x="0" y="984.8" style="font-family: Arial; font-size: 14px; fill: rgb(36, 36, 36); fill-opacity: 1; white-space: pre; opacity: 1;" transform="translate(1362.78,0)">2050</text></g><g class="xtick"><text text-anchor="middle" x="0" y="984.8" style="font-family: Arial; font-size: 14px; fill: rgb(36, 36, 36); fill-opacity: 1; white-space: pre; opacity: 1;" transform="translate(1404.22,0)">2051</text></g><g class="xtick"><text text-anchor="middle" x="0" y="984.8" style="font-family: Arial; font-size: 14px; fill: rgb(36, 36, 36); fill-opacity: 1; white-space: pre; opacity: 1;" transform="translate(1445.67,0)">2052</text></g><g class="xtick"><text text-anchor="middle" x="0" y="984.8" style="font-family: Arial; font-size: 14px; fill: rgb(36, 36, 36); fill-opacity: 1; white-space: pre; opacity: 1;" transform="translate(1487.11,0)">2053</text></g><g class="xtick"><text text-anchor="middle" x="0" y="984.8" style="font-family: Arial; font-size: 14px; fill: rgb(36, 36, 36); fill-opacity: 1; white-space: pre; opacity: 1;" transform="translate(1528.56,0)">2054</text></g><g class="xtick"><text text-anchor="middle" x="0" y="984.8" style="font-family: Arial; font-size: 14px; fill: rgb(36, 36, 36); fill-opacity: 1; white-space: pre; opacity: 1;" transform="translate(1570,0)">2055</text></g></g><g class="yaxislayer-above"><path class="ytick ticks crisp" d="M77,0h-5" transform="translate(0,952.76)" style="stroke: rgb(68, 68, 68); stroke-opacity: 1; stroke-width: 1px;"/><path class="ytick ticks crisp" d="M77,0h-5" transform="translate(0,828.46)" style="stroke: rgb(68, 68, 68); stroke-opacity: 1; stroke-width: 1px;"/><path class="ytick ticks crisp" d="M77,0h-5" transform="translate(0,704.15)" style="stroke: rgb(68, 68, 68); stroke-opacity: 1; stroke-width: 1px;"/><path class="ytick ticks crisp" d="M77,0h-5" transform="translate(0,579.85)" style="stroke: rgb(68, 68, 68); stroke-opacity: 1; stroke-width: 1px;"/><path class="ytick ticks crisp" d="M77,0h-5" transform="translate(0,455.55)" style="stroke: rgb(68, 68, 68); stroke-opacity: 1; stroke-width: 1px;"/><path class="ytick ticks crisp" d="M77,0h-5" transform="translate(0,331.24)" style="stroke: rgb(68, 68, 68); stroke-opacity: 1; stroke-width: 1px;"/><path class="ytick ticks crisp" d="M77,0h-5" transform="translate(0,206.94)" style="stroke: rgb(68, 68, 68); stroke-opacity: 1; stroke-width: 1px;"/><path class="ytick ticks crisp" d="M77,0h-5" transform="translate(0,82.64)" style="stroke: rgb(68, 68, 68); stroke-opacity: 1; stroke-width: 1px;"/><g class="ytick"><text text-anchor="end" x="69.2" y="4.8999999999999995" transform="translate(0,952.76)" style="font-family: Arial; font-size: 14px; fill: rgb(36, 36, 36); fill-opacity: 1; white-space: pre; opacity: 1;">150k</text></g><g class="ytick"><text text-anchor="end" x="69.2" y="4.8999999999999995" style="font-family: Arial; font-size: 14px; fill: rgb(36, 36, 36); fill-opacity: 1; white-space: pre; opacity: 1;" transform="translate(0,828.46)">200k</text></g><g class="ytick"><text text-anchor="end" x="69.2" y="4.8999999999999995" style="font-family: Arial; font-size: 14px; fill: rgb(36, 36, 36); fill-opacity: 1; white-space: pre; opacity: 1;" transform="translate(0,704.15)">250k</text></g><g class="ytick"><text text-anchor="end" x="69.2" y="4.8999999999999995" style="font-family: Arial; font-size: 14px; fill: rgb(36, 36, 36); fill-opacity: 1; white-space: pre; opacity: 1;" transform="translate(0,579.85)">300k</text></g><g class="ytick"><text text-anchor="end" x="69.2" y="4.8999999999999995" style="font-family: Arial; font-size: 14px; fill: rgb(36, 36, 36); fill-opacity: 1; white-space: pre; opacity: 1;" transform="translate(0,455.55)">350k</text></g><g class="ytick"><text text-anchor="end" x="69.2" y="4.8999999999999995" style="font-family: Arial; font-size: 14px; fill: rgb(36, 36, 36); fill-opacity: 1; white-space: pre; opacity: 1;" transform="translate(0,331.24)">400k</text></g><g class="ytick"><text text-anchor="end" x="69.2" y="4.8999999999999995" style="font-family: Arial; font-size: 14px; fill: rgb(36, 36, 36); fill-opacity: 1; white-space: pre; opacity: 1;" transform="translate(0,206.94)">450k</text></g><g class="ytick"><text text-anchor="end" x="69.2" y="4.8999999999999995" style="font-family: Arial; font-size: 14px; fill: rgb(36, 36, 36); fill-opacity: 1; white-space: pre; opacity: 1;" transform="translate(0,82.64)">500k</text></g></g><g class="overaxes-above"/></g></g><g class="polarlayer"/><g class="smithlayer"/><g class="ternarylayer"/><g class="geolayer"/><g class="funnelarealayer"/><g class="pielayer"/><g class="iciclelayer"/><g class="treemaplayer"/><g class="sunburstlayer"/><g class="glimages"/><defs id="topdefs-e03851"><g class="clips"/><clipPath id="legende03851"><rect width="481" height="32" x="0" y="0"/></clipPath></defs><g class="layer-above"><g class="imagelayer"/><g class="shapelayer"/></g><g class="infolayer"><g class="legend" pointer-events="all" transform="translate(583.5,1155.5)"><rect class="bg" shape-rendering="crispEdges" style="stroke: rgb(68, 68, 68); stroke-opacity: 1; fill: rgb(255, 255, 255); fill-opacity: 1; stroke-width: 0px;" width="481" height="32" x="0" y="0"/><g class="scrollbox" transform="" clip-path="url(#legende03851)"><g class="groups"><g class="traces" transform="translate(0,15.6)" style="opacity: 1;"><text class="legendtext" text-anchor="start" x="40" y="5.46" style="font-family: Arial; font-size: 14px; fill: rgb(36, 36, 36); fill-opacity: 1; white-space: pre;">BASE Range</text><g class="layers" style="opacity: 1;"><g class="legendfill"><path class="js-fill" d="M5,-2h30v6h-30z" style="stroke-width: 0; fill: rgb(0, 0, 255); fill-opacity: 0.2;"/></g><g class="legendlines"><path class="js-line" d="M5,-2h30" style="fill: none; stroke: rgb(255, 255, 255); stroke-opacity: 0; stroke-width: 2px;"/></g><g class="legendsymbols"><g class="legendpoints"/></g></g><rect class="legendtoggle" x="0" y="-10.6" width="125.2099609375" height="21.2" style="fill: rgb(0, 0, 0); fill-opacity: 0;"/></g><g class="traces" transform="translate(127.7099609375,15.6)" style="opacity: 1;"><text class="legendtext" text-anchor="start" x="40" y="5.46" style="font-family: Arial; font-size: 14px; fill: rgb(36, 36, 36); fill-opacity: 1; white-space: pre;">BASE Mean</text><g class="layers" style="opacity: 1;"><g class="legendfill"/><g class="legendlines"><path class="js-line" d="M5,0h30" style="fill: none; stroke: rgb(0, 0, 255); stroke-opacity: 1; stroke-width: 2px;"/></g><g class="legendsymbols"><g class="legendpoints"/></g></g><rect class="legendtoggle" x="0" y="-10.6" width="118.9755859375" height="21.2" style="fill: rgb(0, 0, 0); fill-opacity: 0;"/></g><g class="traces" transform="translate(249.185546875,15.6)" style="opacity: 1;"><text class="legendtext" text-anchor="start" x="40" y="5.46" style="font-family: Arial; font-size: 14px; fill: rgb(36, 36, 36); fill-opacity: 1; white-space: pre;">CPP Range</text><g class="layers" style="opacity: 1;"><g class="legendfill"><path class="js-fill" d="M5,-2h30v6h-30z" style="stroke-width: 0; fill: rgb(255, 255, 0); fill-opacity: 0.2;"/></g><g class="legendlines"><path class="js-line" d="M5,-2h30" style="fill: none; stroke: rgb(255, 255, 255); stroke-opacity: 0; stroke-width: 2px;"/></g><g class="legendsymbols"><g class="legendpoints"/></g></g><rect class="legendtoggle" x="0" y="-10.6" width="116.3916015625" height="21.2" style="fill: rgb(0, 0, 0); fill-opacity: 0;"/></g><g class="traces" transform="translate(368.0771484375,15.6)" style="opacity: 1;"><text class="legendtext" text-anchor="start" x="40" y="5.46" style="font-family: Arial; font-size: 14px; fill: rgb(36, 36, 36); fill-opacity: 1; white-space: pre;">CPP Mean</text><g class="layers" style="opacity: 1;"><g class="legendfill"/><g class="legendlines"><path class="js-line" d="M5,0h30" style="fill: none; stroke: rgb(255, 255, 0); stroke-opacity: 1; stroke-width: 2px;"/></g><g class="legendsymbols"><g class="legendpoints"/></g></g><rect class="legendtoggle" x="0" y="-10.6" width="110.1572265625" height="21.2" style="fill: rgb(0, 0, 0); fill-opacity: 0;"/></g></g></g><rect class="scrollbar" rx="20" ry="3" width="0" height="0" style="fill: rgb(128, 139, 164); fill-opacity: 1;" x="0" y="0"/></g><g class="g-gtitle"><text class="gtitle" x="80" y="30" text-anchor="start" dy="0em" style="opacity: 1; font-family: Arial; font-size: 20px; fill: rgb(36, 36, 36); fill-opacity: 1; white-space: pre;">Total CO₂ Emissions by Scenario Group (Shaded Bands)</text></g><g class="g-xtitle"><text class="xtitle" x="824" y="1014.1998046875" text-anchor="middle" style="opacity: 1; font-family: Arial; font-size: 17px; fill: rgb(36, 36, 36); fill-opacity: 1; white-space: pre;">Year</text></g><g class="g-ytitle"><text class="ytitle" transform="rotate(-90,18.390820312499997,511)" x="18.390820312499997" y="511" text-anchor="middle" style="opacity: 1; font-family: Arial; font-size: 17px; fill: rgb(36, 36, 36); fill-opacity: 1; white-space: pre;">CO₂ Emissions (kt)</text></g></g></svg>