<svg class="main-svg" xmlns="http://www.w3.org/2000/svg" xmlns:xlink="http://www.w3.org/1999/xlink" width="800" height="600" style="" viewBox="0 0 800 600"><rect x="0" y="0" width="800" height="600" style="fill: rgb(255, 255, 255); fill-opacity: 1;"/><defs id="defs-d6c419"><g class="clips"><clipPath id="clipd6c419xyplot" class="plotclip"><rect width="692" height="422"/></clipPath><clipPath class="axesclip" id="clipd6c419x"><rect x="78" y="0" width="692" height="600"/></clipPath><clipPath class="axesclip" id="clipd6c419y"><rect x="0" y="60" width="800" height="422"/></clipPath><clipPath class="axesclip" id="clipd6c419xy"><rect x="78" y="60" width="692" height="422"/></clipPath></g><g class="gradients"/><g class="patterns"/></defs><g class="bglayer"/><g class="layer-below"><g class="imagelayer"/><g class="shapelayer"/></g><g class="cartesianlayer"><g class="subplot xy"><g class="layer-subplot"><g class="shapelayer"/><g class="imagelayer"/></g><g class="minor-gridlayer"><g class="x"/><g class="y"/></g><g class="gridlayer"><g class="x"/><g class="y"/></g><g class="zerolinelayer"/><g class="layer-between"><g class="shapelayer"/><g class="imagelayer"/></g><path class="xlines-below"/><path class="ylines-below"/><g class="overlines-below"/><g class="xaxislayer-below"/><g class="yaxislayer-below"/><g class="overaxes-below"/><g class="overplot"><g class="xy" transform="translate(78,60)" clip-path="url(#clipd6c419xyplot)"><g class="scatterlayer mlayer"><g class="trace scatter trace5ef535" style="stroke-miterlimit: 2; opacity: 1;"><g class="fills"><g><path class="js-fill" d="M0,21.94L19.22,80.39L38.44,59.4L57.67,100.68L76.89,77.06L96.11,81.65L115.33,102.73L134.56,118.33L153.78,139.29L173,168.62L192.22,190.86L211.44,202.8L230.67,232.15L249.89,253.25L269.11,287.61L288.33,307.98L307.56,323.15L365.22,366.18L384.44,385.23L403.67,400.9L422.89,384.25L442.11,370.65L461.33,372.23L499.78,371.25L519,370.55L595.89,367.29L615.11,367.99L692,366.07L692,267.08L653.56,269.17L634.33,269.63L615.11,270.76L595.89,268.36L576.67,261.24L557.44,250.11L538.22,231.54L519,215.76L499.78,211.41L480.56,213.27L461.33,204.48L442.11,191.77L422.89,198.7L403.67,212.13L384.44,199.48L365.22,193.72L307.56,177.97L288.33,173.69L269.11,166.3L249.89,153.34L230.67,140.49L211.44,132.49L192.22,125.62L173,122.56L153.78,114.98L134.56,108.56L115.33,100.65L96.11,80.73L76.89,69.97L57.67,96.99L38.44,58.55L19.22,79.54L0,21.1Z" style="fill: rgb(0, 0, 255); fill-opacity: 0.2; stroke-width: 0;"/></g></g><g class="errorbars"/><g class="lines"><path class="js-line" d="M0,21.94L19.22,80.39L38.44,59.4L57.67,100.68L76.89,77.06L96.11,81.65L115.33,102.73L134.56,118.33L153.78,139.29L173,168.62L192.22,190.86L211.44,202.8L230.67,232.15L249.89,253.25L269.11,287.61L288.33,307.98L307.56,323.15L365.22,366.18L384.44,385.23L403.67,400.9L422.89,384.25L442.11,370.65L461.33,372.23L499.78,371.25L519,370.55L595.89,367.29L615.11,367.99L692,366.07L692,267.08L653.56,269.17L634.33,269.63L615.11,270.76L595.89,268.36L576.67,261.24L557.44,250.11L538.22,231.54L519,215.76L499.78,211.41L480.56,213.27L461.33,204.48L442.11,191.77L422.89,198.7L403.67,212.13L384.44,199.48L365.22,193.72L307.56,177.97L288.33,173.69L269.11,166.3L249.89,153.34L230.67,140.49L211.44,132.49L192.22,125.62L173,122.56L153.78,114.98L134.56,108.56L115.33,100.65L96.11,80.73L76.89,69.97L57.67,96.99L38.44,58.55L19.22,79.54L0,21.1" style="vector-effect: none; fill: none; stroke: rgb(255, 255, 255); stroke-opacity: 0; stroke-width: 2px; opacity: 1;"/></g><g class="points"/><g class="text"/></g><g class="trace scatter trace3e8269" style="stroke-miterlimit: 2; opacity: 1;"><g class="fills"/><g class="errorbars"/><g class="lines"><path class="js-line" d="M0,21.52L19.22,79.96L38.44,58.97L57.67,98.84L76.89,73.51L96.11,81.19L115.33,101.69L134.56,113.44L153.78,127.14L173,145.59L192.22,158.24L211.44,167.65L230.67,186.32L249.89,203.3L269.11,226.96L288.33,240.84L307.56,250.56L365.22,279.95L384.44,292.36L403.67,306.52L422.89,291.47L442.11,281.21L461.33,288.36L480.56,292.65L499.78,291.33L519,293.15L538.22,300.66L557.44,309.74L576.67,315.02L595.89,317.83L615.11,319.37L692,316.57" style="vector-effect: none; fill: none; stroke: rgb(0, 0, 255); stroke-opacity: 1; stroke-width: 2px; opacity: 1;"/></g><g class="points"/><g class="text"/></g><g class="trace scatter tracea4b99b" style="stroke-miterlimit: 2; opacity: 1;"><g class="fills"><g><path class="js-fill" d="M0,22.17L19.22,80.78L38.44,61.09L57.67,101.08L76.89,78.86L96.11,86.17L115.33,120.94L134.56,137.51L153.78,159.82L173,184.3L192.22,203.66L230.67,227.58L249.89,245.69L269.11,264.04L288.33,279.33L326.78,313.8L346,330L365.22,347L384.44,359.27L403.67,367.45L422.89,353.27L442.11,341.14L461.33,343.26L480.56,344.43L499.78,342.73L519,344.56L538.22,348.72L557.44,354.57L576.67,358.49L595.89,363.79L615.11,361.75L634.33,359.11L653.56,357.33L672.78,355.99L692,356.02L692,281.09L672.78,281L634.33,281.05L615.11,283.34L595.89,278.82L576.67,271.09L538.22,254.99L519,240.73L499.78,234.36L480.56,239.06L461.33,232.72L442.11,218.62L422.89,224.34L403.67,235.65L384.44,223.7L365.22,216.56L307.56,197.54L288.33,192.44L269.11,184.04L249.89,168.66L230.67,152.61L211.44,142.59L173,129.33L153.78,120.85L134.56,113.15L115.33,104.48L96.11,81.97L76.89,71.2L57.67,98.47L38.44,59.58L19.22,79.9L0,21.3Z" style="fill: rgb(255, 255, 0); fill-opacity: 0.2; stroke-width: 0;"/></g></g><g class="errorbars"/><g class="lines"><path class="js-line" d="M0,22.17L19.22,80.78L38.44,61.09L57.67,101.08L76.89,78.86L96.11,86.17L115.33,120.94L134.56,137.51L153.78,159.82L173,184.3L192.22,203.66L230.67,227.58L249.89,245.69L269.11,264.04L288.33,279.33L326.78,313.8L346,330L365.22,347L384.44,359.27L403.67,367.45L422.89,353.27L442.11,341.14L461.33,343.26L480.56,344.43L499.78,342.73L519,344.56L538.22,348.72L557.44,354.57L576.67,358.49L595.89,363.79L615.11,361.75L634.33,359.11L653.56,357.33L672.78,355.99L692,356.02L692,281.09L672.78,281L634.33,281.05L615.11,283.34L595.89,278.82L576.67,271.09L538.22,254.99L519,240.73L499.78,234.36L480.56,239.06L461.33,232.72L442.11,218.62L422.89,224.34L403.67,235.65L384.44,223.7L365.22,216.56L307.56,197.54L288.33,192.44L269.11,184.04L249.89,168.66L230.67,152.61L211.44,142.59L173,129.33L153.78,120.85L134.56,113.15L115.33,104.48L96.11,81.97L76.89,71.2L57.67,98.47L38.44,59.58L19.22,79.9L0,21.3" style="vector-effect: none; fill: none; stroke: rgb(255, 255, 255); stroke-opacity: 0; stroke-width: 2px; opacity: 1;"/></g><g class="points"/><g class="text"/></g><g class="trace scatter trace2ec97c" style="stroke-miterlimit: 2; opacity: 1;"><g class="fills"/><g class="errorbars"/><g class="lines"><path class="js-line" d="M0,21.59L19.22,80.19L38.44,60.09L57.67,99.35L76.89,73.77L96.11,83.44L115.33,110.17L134.56,121.76L153.78,140.01L173,152.42L192.22,166.05L211.44,178.96L230.67,190.46L249.89,208.85L269.11,225.96L307.56,250.1L326.78,263.79L365.22,290.49L384.44,302.09L403.67,308.74L422.89,295.2L442.11,283.7L461.33,289.64L480.56,289.32L499.78,282.93L519,284.26L538.22,290.34L576.67,304.79L595.89,310.88L615.11,310.75L634.33,308.07L653.56,308.97L672.78,307.9L692,307.72" style="vector-effect: none; fill: none; stroke: rgb(255, 255, 0); stroke-opacity: 1; stroke-width: 2px; opacity: 1;"/></g><g class="points"/><g class="text"/></g></g></g></g><path class="xlines-above crisp" d="M77,482.5H770" style="fill: none; stroke-width: 1px; stroke: rgb(36, 36, 36); stroke-opacity: 1;"/><path class="ylines-above crisp" d="M77.5,60V482" style="fill: none; stroke-width: 1px; stroke: rgb(36, 36, 36); stroke-opacity: 1;"/><g class="overlines-above"/><g class="xaxislayer-above"><path class="xtick ticks crisp" d="M0,483v5" transform="translate(78,0)" style="stroke: rgb(68, 68, 68); stroke-opacity: 1; stroke-width: 1px;"/><path class="xtick ticks crisp" d="M0,483v5" transform="translate(97.22,0)" style="stroke: rgb(68, 68, 68); stroke-opacity: 1; stroke-width: 1px;"/><path class="xtick ticks crisp" d="M0,483v5" transform="translate(116.44,0)" style="stroke: rgb(68, 68, 68); stroke-opacity: 1; stroke-width: 1px;"/><path class="xtick ticks crisp" d="M0,483v5" transform="translate(135.67000000000002,0)" style="stroke: rgb(68, 68, 68); stroke-opacity: 1; stroke-width: 1px;"/><path class="xtick ticks crisp" d="M0,483v5" transform="translate(154.89,0)" style="stroke: rgb(68, 68, 68); stroke-opacity: 1; stroke-width: 1px;"/><path class="xtick ticks crisp" d="M0,483v5" transform="translate(174.11,0)" style="stroke: rgb(68, 68, 68); stroke-opacity: 1; stroke-width: 1px;"/><path class="xtick ticks crisp" d="M0,483v5" transform="translate(193.32999999999998,0)" style="stroke: rgb(68, 68, 68); stroke-opacity: 1; stroke-width: 1px;"/><path class="xtick ticks crisp" d="M0,483v5" transform="translate(212.56,0)" style="stroke: rgb(68, 68, 68); stroke-opacity: 1; stroke-width: 1px;"/><path class="xtick ticks crisp" d="M0,483v5" transform="translate(231.78,0)" style="stroke: rgb(68, 68, 68); stroke-opacity: 1; stroke-width: 1px;"/><path class="xtick ticks crisp" d="M0,483v5" transform="translate(251,0)" style="stroke: rgb(68, 68, 68); stroke-opacity: 1; stroke-width: 1px;"/><path class="xtick ticks crisp" d="M0,483v5" transform="translate(270.22,0)" style="stroke: rgb(68, 68, 68); stroke-opacity: 1; stroke-width: 1px;"/><path class="xtick ticks crisp" d="M0,483v5" transform="translate(289.44,0)" style="stroke: rgb(68, 68, 68); stroke-opacity: 1; stroke-width: 1px;"/><path class="xtick ticks crisp" d="M0,483v5" transform="translate(308.66999999999996,0)" style="stroke: rgb(68, 68, 68); stroke-opacity: 1; stroke-width: 1px;"/><path class="xtick ticks crisp" d="M0,483v5" transform="translate(327.89,0)" style="stroke: rgb(68, 68, 68); stroke-opacity: 1; stroke-width: 1px;"/><path class="xtick ticks crisp" d="M0,483v5" transform="translate(347.11,0)" style="stroke: rgb(68, 68, 68); stroke-opacity: 1; stroke-width: 1px;"/><path class="xtick ticks crisp" d="M0,483v5" transform="translate(366.33,0)" style="stroke: rgb(68, 68, 68); stroke-opacity: 1; stroke-width: 1px;"/><path class="xtick ticks crisp" d="M0,483v5" transform="translate(385.56,0)" style="stroke: rgb(68, 68, 68); stroke-opacity: 1; stroke-width: 1px;"/><path class="xtick ticks crisp" d="M0,483v5" transform="translate(404.78,0)" style="stroke: rgb(68, 68, 68); stroke-opacity: 1; stroke-width: 1px;"/><path class="xtick ticks crisp" d="M0,483v5" transform="translate(424,0)" style="stroke: rgb(68, 68, 68); stroke-opacity: 1; stroke-width: 1px;"/><path class="xtick ticks crisp" d="M0,483v5" transform="translate(443.22,0)" style="stroke: rgb(68, 68, 68); stroke-opacity: 1; stroke-width: 1px;"/><path class="xtick ticks crisp" d="M0,483v5" transform="translate(462.44,0)" style="stroke: rgb(68, 68, 68); stroke-opacity: 1; stroke-width: 1px;"/><path class="xtick ticks crisp" d="M0,483v5" transform="translate(481.67,0)" style="stroke: rgb(68, 68, 68); stroke-opacity: 1; stroke-width: 1px;"/><path class="xtick ticks crisp" d="M0,483v5" transform="translate(500.89,0)" style="stroke: rgb(68, 68, 68); stroke-opacity: 1; stroke-width: 1px;"/><path class="xtick ticks crisp" d="M0,483v5" transform="translate(520.11,0)" style="stroke: rgb(68, 68, 68); stroke-opacity: 1; stroke-width: 1px;"/><path class="xtick ticks crisp" d="M0,483v5" transform="translate(539.3299999999999,0)" style="stroke: rgb(68, 68, 68); stroke-opacity: 1; stroke-width: 1px;"/><path class="xtick ticks crisp" d="M0,483v5" transform="translate(558.56,0)" style="stroke: rgb(68, 68, 68); stroke-opacity: 1; stroke-width: 1px;"/><path class="xtick ticks crisp" d="M0,483v5" transform="translate(577.78,0)" style="stroke: rgb(68, 68, 68); stroke-opacity: 1; stroke-width: 1px;"/><path class="xtick ticks crisp" d="M0,483v5" transform="translate(597,0)" style="stroke: rgb(68, 68, 68); stroke-opacity: 1; stroke-width: 1px;"/><path class="xtick ticks crisp" d="M0,483v5" transform="translate(616.22,0)" style="stroke: rgb(68, 68, 68); stroke-opacity: 1; stroke-width: 1px;"/><path class="xtick ticks crisp" d="M0,483v5" transform="translate(635.44,0)" style="stroke: rgb(68, 68, 68); stroke-opacity: 1; stroke-width: 1px;"/><path class="xtick ticks crisp" d="M0,483v5" transform="translate(654.67,0)" style="stroke: rgb(68, 68, 68); stroke-opacity: 1; stroke-width: 1px;"/><path class="xtick ticks crisp" d="M0,483v5" transform="translate(673.89,0)" style="stroke: rgb(68, 68, 68); stroke-opacity: 1; stroke-width: 1px;"/><path class="xtick ticks crisp" d="M0,483v5" transform="translate(693.11,0)" style="stroke: rgb(68, 68, 68); stroke-opacity: 1; stroke-width: 1px;"/><path class="xtick ticks crisp" d="M0,483v5" transform="translate(712.33,0)" style="stroke: rgb(68, 68, 68); stroke-opacity: 1; stroke-width: 1px;"/><path class="xtick ticks crisp" d="M0,483v5" transform="translate(731.56,0)" style="stroke: rgb(68, 68, 68); stroke-opacity: 1; stroke-width: 1px;"/><path class="xtick ticks crisp" d="M0,483v5" transform="translate(750.78,0)" style="stroke: rgb(68, 68, 68); stroke-opacity: 1; stroke-width: 1px;"/><path class="xtick ticks crisp" d="M0,483v5" transform="translate(770,0)" style="stroke: rgb(68, 68, 68); stroke-opacity: 1; stroke-width: 1px;"/><g class="xtick"><text text-anchor="start" x="0" y="504.8" transform="translate(78,0) rotate(90,0,497.8)" style="font-family: Arial; font-size: 14px; fill: rgb(36, 36, 36); fill-opacity: 1; white-space: pre; opacity: 1;">2019</text></g><g class="xtick"><text text-anchor="start" x="0" y="504.8" style="font-family: Arial; font-size: 14px; fill: rgb(36, 36, 36); fill-opacity: 1; white-space: pre; opacity: 1;" transform="translate(97.22,0) rotate(90,0,497.8)">2020</text></g><g class="xtick"><text text-anchor="start" x="0" y="504.8" style="font-family: Arial; font-size: 14px; fill: rgb(36, 36, 36); fill-opacity: 1; white-space: pre; opacity: 1;" transform="translate(116.44,0) rotate(90,0,497.8)">2021</text></g><g class="xtick"><text text-anchor="start" x="0" y="504.8" style="font-family: Arial; font-size: 14px; fill: rgb(36, 36, 36); fill-opacity: 1; white-space: pre; opacity: 1;" transform="translate(135.67000000000002,0) rotate(90,0,497.8)">2022</text></g><g class="xtick"><text text-anchor="start" x="0" y="504.8" style="font-family: Arial; font-size: 14px; fill: rgb(36, 36, 36); fill-opacity: 1; white-space: pre; opacity: 1;" transform="translate(154.89,0) rotate(90,0,497.8)">2023</text></g><g class="xtick"><text text-anchor="start" x="0" y="504.8" style="font-family: Arial; font-size: 14px; fill: rgb(36, 36, 36); fill-opacity: 1; white-space: pre; opacity: 1;" transform="translate(174.11,0) rotate(90,0,497.8)">2024</text></g><g class="xtick"><text text-anchor="start" x="0" y="504.8" style="font-family: Arial; font-size: 14px; fill: rgb(36, 36, 36); fill-opacity: 1; white-space: pre; opacity: 1;" transform="translate(193.32999999999998,0) rotate(90,0,497.8)">2025</text></g><g class="xtick"><text text-anchor="start" x="0" y="504.8" style="font-family: Arial; font-size: 14px; fill: rgb(36, 36, 36); fill-opacity: 1; white-space: pre; opacity: 1;" transform="translate(212.56,0) rotate(90,0,497.8)">2026</text></g><g class="xtick"><text text-anchor="start" x="0" y="504.8" style="font-family: Arial; font-size: 14px; fill: rgb(36, 36, 36); fill-opacity: 1; white-space: pre; opacity: 1;" transform="translate(231.78,0) rotate(90,0,497.8)">2027</text></g><g class="xtick"><text text-anchor="start" x="0" y="504.8" style="font-family: Arial; font-size: 14px; fill: rgb(36, 36, 36); fill-opacity: 1; white-space: pre; opacity: 1;" transform="translate(251,0) rotate(90,0,497.8)">2028</text></g><g class="xtick"><text text-anchor="start" x="0" y="504.8" style="font-family: Arial; font-size: 14px; fill: rgb(36, 36, 36); fill-opacity: 1; white-space: pre; opacity: 1;" transform="translate(270.22,0) rotate(90,0,497.8)">2029</text></g><g class="xtick"><text text-anchor="start" x="0" y="504.8" style="font-family: Arial; font-size: 14px; fill: rgb(36, 36, 36); fill-opacity: 1; white-space: pre; opacity: 1;" transform="translate(289.44,0) rotate(90,0,497.8)">2030</text></g><g class="xtick"><text text-anchor="start" x="0" y="504.8" style="font-family: Arial; font-size: 14px; fill: rgb(36, 36, 36); fill-opacity: 1; white-space: pre; opacity: 1;" transform="translate(308.66999999999996,0) rotate(90,0,497.8)">2031</text></g><g class="xtick"><text text-anchor="start" x="0" y="504.8" style="font-family: Arial; font-size: 14px; fill: rgb(36, 36, 36); fill-opacity: 1; white-space: pre; opacity: 1;" transform="translate(327.89,0) rotate(90,0,497.8)">2032</text></g><g class="xtick"><text text-anchor="start" x="0" y="504.8" style="font-family: Arial; font-size: 14px; fill: rgb(36, 36, 36); fill-opacity: 1; white-space: pre; opacity: 1;" transform="translate(347.11,0) rotate(90,0,497.8)">2033</text></g><g class="xtick"><text text-anchor="start" x="0" y="504.8" style="font-family: Arial; font-size: 14px; fill: rgb(36, 36, 36); fill-opacity: 1; white-space: pre; opacity: 1;" transform="translate(366.33,0) rotate(90,0,497.8)">2034</text></g><g class="xtick"><text text-anchor="start" x="0" y="504.8" style="font-family: Arial; font-size: 14px; fill: rgb(36, 36, 36); fill-opacity: 1; white-space: pre; opacity: 1;" transform="translate(385.56,0) rotate(90,0,497.8)">2035</text></g><g class="xtick"><text text-anchor="start" x="0" y="504.8" style="font-family: Arial; font-size: 14px; fill: rgb(36, 36, 36); fill-opacity: 1; white-space: pre; opacity: 1;" transform="translate(404.78,0) rotate(90,0,497.8)">2036</text></g><g class="xtick"><text text-anchor="start" x="0" y="504.8" style="font-family: Arial; font-size: 14px; fill: rgb(36, 36, 36); fill-opacity: 1; white-space: pre; opacity: 1;" transform="translate(424,0) rotate(90,0,497.8)">2037</text></g><g class="xtick"><text text-anchor="start" x="0" y="504.8" style="font-family: Arial; font-size: 14px; fill: rgb(36, 36, 36); fill-opacity: 1; white-space: pre; opacity: 1;" transform="translate(443.22,0) rotate(90,0,497.8)">2038</text></g><g class="xtick"><text text-anchor="start" x="0" y="504.8" style="font-family: Arial; font-size: 14px; fill: rgb(36, 36, 36); fill-opacity: 1; white-space: pre; opacity: 1;" transform="translate(462.44,0) rotate(90,0,497.8)">2039</text></g><g class="xtick"><text text-anchor="start" x="0" y="504.8" style="font-family: Arial; font-size: 14px; fill: rgb(36, 36, 36); fill-opacity: 1; white-space: pre; opacity: 1;" transform="translate(481.67,0) rotate(90,0,497.8)">2040</text></g><g class="xtick"><text text-anchor="start" x="0" y="504.8" style="font-family: Arial; font-size: 14px; fill: rgb(36, 36, 36); fill-opacity: 1; white-space: pre; opacity: 1;" transform="translate(500.89,0) rotate(90,0,497.8)">2041</text></g><g class="xtick"><text text-anchor="start" x="0" y="504.8" style="font-family: Arial; font-size: 14px; fill: rgb(36, 36, 36); fill-opacity: 1; white-space: pre; opacity: 1;" transform="translate(520.11,0) rotate(90,0,497.8)">2042</text></g><g class="xtick"><text text-anchor="start" x="0" y="504.8" style="font-family: Arial; font-size: 14px; fill: rgb(36, 36, 36); fill-opacity: 1; white-space: pre; opacity: 1;" transform="translate(539.3299999999999,0) rotate(90,0,497.8)">2043</text></g><g class="xtick"><text text-anchor="start" x="0" y="504.8" style="font-family: Arial; font-size: 14px; fill: rgb(36, 36, 36); fill-opacity: 1; white-space: pre; opacity: 1;" transform="translate(558.56,0) rotate(90,0,497.8)">2044</text></g><g class="xtick"><text text-anchor="start" x="0" y="504.8" style="font-family: Arial; font-size: 14px; fill: rgb(36, 36, 36); fill-opacity: 1; white-space: pre; opacity: 1;" transform="translate(577.78,0) rotate(90,0,497.8)">2045</text></g><g class="xtick"><text text-anchor="start" x="0" y="504.8" style="font-family: Arial; font-size: 14px; fill: rgb(36, 36, 36); fill-opacity: 1; white-space: pre; opacity: 1;" transform="translate(597,0) rotate(90,0,497.8)">2046</text></g><g class="xtick"><text text-anchor="start" x="0" y="504.8" style="font-family: Arial; font-size: 14px; fill: rgb(36, 36, 36); fill-opacity: 1; white-space: pre; opacity: 1;" transform="translate(616.22,0) rotate(90,0,497.8)">2047</text></g><g class="xtick"><text text-anchor="start" x="0" y="504.8" style="font-family: Arial; font-size: 14px; fill: rgb(36, 36, 36); fill-opacity: 1; white-space: pre; opacity: 1;" transform="translate(635.44,0) rotate(90,0,497.8)">2048</text></g><g class="xtick"><text text-anchor="start" x="0" y="504.8" style="font-family: Arial; font-size: 14px; fill: rgb(36, 36, 36); fill-opacity: 1; white-space: pre; opacity: 1;" transform="translate(654.67,0) rotate(90,0,497.8)">2049</text></g><g class="xtick"><text text-anchor="start" x="0" y="504.8" style="font-family: Arial; font-size: 14px; fill: rgb(36, 36, 36); fill-opacity: 1; white-space: pre; opacity: 1;" transform="translate(673.89,0) rotate(90,0,497.8)">2050</text></g><g class="xtick"><text text-anchor="start" x="0" y="504.8" style="font-family: Arial; font-size: 14px; fill: rgb(36, 36, 36); fill-opacity: 1; white-space: pre; opacity: 1;" transform="translate(693.11,0) rotate(90,0,497.8)">2051</text></g><g class="xtick"><text text-anchor="start" x="0" y="504.8" style="font-family: Arial; font-size: 14px; fill: rgb(36, 36, 36); fill-opacity: 1; white-space: pre; opacity: 1;" transform="translate(712.33,0) rotate(90,0,497.8)">2052</text></g><g class="xtick"><text text-anchor="start" x="0" y="504.8" style="font-family: Arial; font-size: 14px; fill: rgb(36, 36, 36); fill-opacity: 1; white-space: pre; opacity: 1;" transform="translate(731.56,0) rotate(90,0,497.8)">2053</text></g><g class="xtick"><text text-anchor="start" x="0" y="504.8" style="font-family: Arial; font-size: 14px; fill: rgb(36, 36, 36); fill-opacity: 1; white-space: pre; opacity: 1;" transform="translate(750.78,0) rotate(90,0,497.8)">2054</text></g><g class="xtick"><text text-anchor="start" x="0" y="504.8" style="font-family: Arial; font-size: 14px; fill: rgb(36, 36, 36); fill-opacity: 1; white-space: pre; opacity: 1;" transform="translate(770,0) rotate(90,0,497.8)">2055</text></g></g><g class="yaxislayer-above"><path class="ytick ticks crisp" d="M77,0h-5" transform="translate(0,477.68)" style="stroke: rgb(68, 68, 68); stroke-opacity: 1; stroke-width: 1px;"/><path class="ytick ticks crisp" d="M77,0h-5" transform="translate(0,419.52)" style="stroke: rgb(68, 68, 68); stroke-opacity: 1; stroke-width: 1px;"/><path class="ytick ticks crisp" d="M77,0h-5" transform="translate(0,361.37)" style="stroke: rgb(68, 68, 68); stroke-opacity: 1; stroke-width: 1px;"/><path class="ytick ticks crisp" d="M77,0h-5" transform="translate(0,303.21000000000004)" style="stroke: rgb(68, 68, 68); stroke-opacity: 1; stroke-width: 1px;"/><path class="ytick ticks crisp" d="M77,0h-5" transform="translate(0,245.06)" style="stroke: rgb(68, 68, 68); stroke-opacity: 1; stroke-width: 1px;"/><path class="ytick ticks crisp" d="M77,0h-5" transform="translate(0,186.9)" style="stroke: rgb(68, 68, 68); stroke-opacity: 1; stroke-width: 1px;"/><path class="ytick ticks crisp" d="M77,0h-5" transform="translate(0,128.75)" style="stroke: rgb(68, 68, 68); stroke-opacity: 1; stroke-width: 1px;"/><path class="ytick ticks crisp" d="M77,0h-5" transform="translate(0,70.59)" style="stroke: rgb(68, 68, 68); stroke-opacity: 1; stroke-width: 1px;"/><g class="ytick"><text text-anchor="end" x="69.2" y="4.8999999999999995" transform="translate(0,477.68)" style="font-family: Arial; font-size: 14px; fill: rgb(36, 36, 36); fill-opacity: 1; white-space: pre; opacity: 1;">150k</text></g><g class="ytick"><text text-anchor="end" x="69.2" y="4.8999999999999995" style="font-family: Arial; font-size: 14px; fill: rgb(36, 36, 36); fill-opacity: 1; white-space: pre; opacity: 1;" transform="translate(0,419.52)">200k</text></g><g class="ytick"><text text-anchor="end" x="69.2" y="4.8999999999999995" style="font-family: Arial; font-size: 14px; fill: rgb(36, 36, 36); fill-opacity: 1; white-space: pre; opacity: 1;" transform="translate(0,361.37)">250k</text></g><g class="ytick"><text text-anchor="end" x="69.2" y="4.8999999999999995" style="font-family: Arial; font-size: 14px; fill: rgb(36, 36, 36); fill-opacity: 1; white-space: pre; opacity: 1;" transform="translate(0,303.21000000000004)">300k</text></g><g class="ytick"><text text-anchor="end" x="69.2" y="4.8999999999999995" style="font-family: Arial; font-size: 14px; fill: rgb(36, 36, 36); fill-opacity: 1; white-space: pre; opacity: 1;" transform="translate(0,245.06)">350k</text></g><g class="ytick"><text text-anchor="end" x="69.2" y="4.8999999999999995" style="font-family: Arial; font-size: 14px; fill: rgb(36, 36, 36); fill-opacity: 1; white-space: pre; opacity: 1;" transform="translate(0,186.9)">400k</text></g><g class="ytick"><text text-anchor="end" x="69.2" y="4.8999999999999995" style="font-family: Arial; font-size: 14px; fill: rgb(36, 36, 36); fill-opacity: 1; white-space: pre; opacity: 1;" transform="translate(0,128.75)">450k</text></g><g class="ytick"><text text-anchor="end" x="69.2" y="4.8999999999999995" style="font-family: Arial; font-size: 14px; fill: rgb(36, 36, 36); fill-opacity: 1; white-space: pre; opacity: 1;" transform="translate(0,70.59)">500k</text></g></g><g class="overaxes-above"/></g></g><g class="polarlayer"/><g class="smithlayer"/><g class="ternarylayer"/><g class="geolayer"/><g class="funnelarealayer"/><g class="pielayer"/><g class="iciclelayer"/><g class="treemaplayer"/><g class="sunburstlayer"/><g class="glimages"/><defs id="topdefs-d6c419"><g class="clips"/><clipPath id="legendd6c419"><rect width="481" height="32" x="0" y="0"/></clipPath></defs><g class="layer-above"><g class="imagelayer"/><g class="shapelayer"/></g><g class="infolayer"><g class="legend" pointer-events="all" transform="translate(183.5,555.5)"><rect class="bg" shape-rendering="crispEdges" style="stroke: rgb(68, 68, 68); stroke-opacity: 1; fill: rgb(255, 255, 255); fill-opacity: 1; stroke-width: 0px;" width="481" height="32" x="0" y="0"/><g class="scrollbox" transform="" clip-path="url(#legendd6c419)"><g class="groups"><g class="traces" transform="translate(0,15.6)" style="opacity: 1;"><text class="legendtext" text-anchor="start" x="40" y="5.46" style="font-family: Arial; font-size: 14px; fill: rgb(36, 36, 36); fill-opacity: 1; white-space: pre;">BASE Range</text><g class="layers" style="opacity: 1;"><g class="legendfill"><path class="js-fill" d="M5,-2h30v6h-30z" style="stroke-width: 0; fill: rgb(0, 0, 255); fill-opacity: 0.2;"/></g><g class="legendlines"><path class="js-line" d="M5,-2h30" style="fill: none; stroke: rgb(255, 255, 255); stroke-opacity: 0; stroke-width: 2px;"/></g><g class="legendsymbols"><g class="legendpoints"/></g></g><rect class="legendtoggle" x="0" y="-10.6" width="125.2099609375" height="21.2" style="fill: rgb(0, 0, 0); fill-opacity: 0;"/></g><g class="traces" transform="translate(127.7099609375,15.6)" style="opacity: 1;"><text class="legendtext" text-anchor="start" x="40" y="5.46" style="font-family: Arial; font-size: 14px; fill: rgb(36, 36, 36); fill-opacity: 1; white-space: pre;">BASE Mean</text><g class="layers" style="opacity: 1;"><g class="legendfill"/><g class="legendlines"><path class="js-line" d="M5,0h30" style="fill: none; stroke: rgb(0, 0, 255); stroke-opacity: 1; stroke-width: 2px;"/></g><g class="legendsymbols"><g class="legendpoints"/></g></g><rect class="legendtoggle" x="0" y="-10.6" width="118.9755859375" height="21.2" style="fill: rgb(0, 0, 0); fill-opacity: 0;"/></g><g class="traces" transform="translate(249.185546875,15.6)" style="opacity: 1;"><text class="legendtext" text-anchor="start" x="40" y="5.46" style="font-family: Arial; font-size: 14px; fill: rgb(36, 36, 36); fill-opacity: 1; white-space: pre;">CPP Range</text><g class="layers" style="opacity: 1;"><g class="legendfill"><path class="js-fill" d="M5,-2h30v6h-30z" style="stroke-width: 0; fill: rgb(255, 255, 0); fill-opacity: 0.2;"/></g><g class="legendlines"><path class="js-line" d="M5,-2h30" style="fill: none; stroke: rgb(255, 255, 255); stroke-opacity: 0; stroke-width: 2px;"/></g><g class="legendsymbols"><g class="legendpoints"/></g></g><rect class="legendtoggle" x="0" y="-10.6" width="116.3916015625" height="21.2" style="fill: rgb(0, 0, 0); fill-opacity: 0;"/></g><g class="traces" transform="translate(368.0771484375,15.6)" style="opacity: 1;"><text class="legendtext" text-anchor="start" x="40" y="5.46" style="font-family: Arial; font-size: 14px; fill: rgb(36, 36, 36); fill-opacity: 1; white-space: pre;">CPP Mean</text><g class="layers" style="opacity: 1;"><g class="legendfill"/><g class="legendlines"><path class="js-line" d="M5,0h30" style="fill: none; stroke: rgb(255, 255, 0); stroke-opacity: 1; stroke-width: 2px;"/></g><g class="legendsymbols"><g class="legendpoints"/></g></g><rect class="legendtoggle" x="0" y="-10.6" width="110.1572265625" height="21.2" style="fill: rgb(0, 0, 0); fill-opacity: 0;"/></g></g></g><rect class="scrollbar" rx="20" ry="3" width="0" height="0" style="fill: rgb(128, 139, 164); fill-opacity: 1;" x="0" y="0"/></g><g class="g-gtitle"><text class="gtitle" x="40" y="30" text-anchor="start" dy="0em" style="opacity: 1; font-family: Arial; font-size: 20px; fill: rgb(36, 36, 36); fill-opacity: 1; white-space: pre;">Total CO₂ Emissions by Scenario Group (Shaded Bands)</text></g><g class="g-xtitle"><text class="xtitle" x="424" y="555.558203125" text-anchor="middle" style="opacity: 1; font-family: Arial; font-size: 17px; fill: rgb(36, 36, 36); fill-opacity: 1; white-space: pre;">Year</text></g><g class="g-ytitle"><text class="ytitle" transform="rotate(-90,18.390820312499997,271)" x="18.390820312499997" y="271" text-anchor="middle" style="opacity: 1; font-family: Arial; font-size: 17px; fill: rgb(36, 36, 36); fill-opacity: 1; white-space: pre;">CO₂ Emissions (kt)</text></g></g></svg>