<svg class="main-svg" xmlns="http://www.w3.org/2000/svg" xmlns:xlink="http://www.w3.org/1999/xlink" width="1600" height="1200" style="" viewBox="0 0 1600 1200"><rect x="0" y="0" width="1600" height="1200" style="fill: rgb(255, 255, 255); fill-opacity: 1;"/><defs id="defs-2cda4e"><g class="clips"><clipPath id="clip2cda4exyplot" class="plotclip"><rect width="1440" height="1000"/></clipPath><clipPath class="axesclip" id="clip2cda4ex"><rect x="80" y="0" width="1440" height="1200"/></clipPath><clipPath class="axesclip" id="clip2cda4ey"><rect x="0" y="80" width="1600" height="1000"/></clipPath><clipPath class="axesclip" id="clip2cda4exy"><rect x="80" y="80" width="1440" height="1000"/></clipPath></g><g class="gradients"/><g class="patterns"/></defs><g class="bglayer"/><g class="layer-below"><g class="imagelayer"/><g class="shapelayer"><g class="shape-group" data-index="0"><path data-index="0" fill-rule="evenodd" d="M80,1280H1520V1080H80Z" style="opacity: 0.3; stroke: rgb(0, 0, 0); stroke-opacity: 0; fill: rgb(255, 255, 255); fill-opacity: 1; stroke-width: 0px;"/></g></g></g><g class="cartesianlayer"><g class="subplot xy"><g class="layer-subplot"><g class="shapelayer"/><g class="imagelayer"/></g><g class="minor-gridlayer"><g class="x"/><g class="y"/></g><g class="gridlayer"><g class="x"><path class="xgrid crisp" transform="translate(120,0)" d="M0,80v1000" style="stroke: rgb(211, 211, 211); stroke-opacity: 1; stroke-width: 1px;"/><path class="xgrid crisp" transform="translate(320,0)" d="M0,80v1000" style="stroke: rgb(211, 211, 211); stroke-opacity: 1; stroke-width: 1px;"/><path class="xgrid crisp" transform="translate(520,0)" d="M0,80v1000" style="stroke: rgb(211, 211, 211); stroke-opacity: 1; stroke-width: 1px;"/><path class="xgrid crisp" transform="translate(720,0)" d="M0,80v1000" style="stroke: rgb(211, 211, 211); stroke-opacity: 1; stroke-width: 1px;"/><path class="xgrid crisp" transform="translate(920,0)" d="M0,80v1000" style="stroke: rgb(211, 211, 211); stroke-opacity: 1; stroke-width: 1px;"/><path class="xgrid crisp" transform="translate(1120,0)" d="M0,80v1000" style="stroke: rgb(211, 211, 211); stroke-opacity: 1; stroke-width: 1px;"/><path class="xgrid crisp" transform="translate(1320,0)" d="M0,80v1000" style="stroke: rgb(211, 211, 211); stroke-opacity: 1; stroke-width: 1px;"/></g><g class="y"><path class="ygrid crisp" transform="translate(0,886.62)" d="M80,0h1440" style="stroke: rgb(211, 211, 211); stroke-opacity: 1; stroke-width: 1px;"/><path class="ygrid crisp" transform="translate(0,693.24)" d="M80,0h1440" style="stroke: rgb(211, 211, 211); stroke-opacity: 1; stroke-width: 1px;"/><path class="ygrid crisp" transform="translate(0,499.86)" d="M80,0h1440" style="stroke: rgb(211, 211, 211); stroke-opacity: 1; stroke-width: 1px;"/><path class="ygrid crisp" transform="translate(0,306.47)" d="M80,0h1440" style="stroke: rgb(211, 211, 211); stroke-opacity: 1; stroke-width: 1px;"/><path class="ygrid crisp" transform="translate(0,113.09)" d="M80,0h1440" style="stroke: rgb(211, 211, 211); stroke-opacity: 1; stroke-width: 1px;"/></g></g><g class="zerolinelayer"/><g class="layer-between"><g class="shapelayer"/><g class="imagelayer"/></g><path class="xlines-below"/><path class="ylines-below"/><g class="overlines-below"/><g class="xaxislayer-below"/><g class="yaxislayer-below"/><g class="overaxes-below"/><g class="overplot"><g class="xy" transform="translate(80,80)" clip-path="url(#clip2cda4exyplot)"><g class="scatterlayer mlayer"><g class="trace scatter trace9420c1" style="stroke-miterlimit: 2; opacity: 1;"><g class="fills"/><g class="errorbars"/><g class="lines"><path class="js-line" d="M0,50.56L40,147.73L80,112.82L120,176.74L160,131.82L200,149.71L240,186.29L280,212.22L320,247.07L360,295.84L400,332.81L440,352.66L480,401.46L520,436.55L560,493.68L600,527.55L640,552.76L680,576.68L720,599.26L760,624.3L800,655.99L840,682.03L880,654.35L920,631.75L960,634.36L1000,634.02L1040,632.73L1200,628.64L1240,626.16L1280,627.32L1320,626.74L1440,624.12" style="vector-effect: none; fill: none; stroke: rgb(211, 211, 211); stroke-opacity: 1; stroke-width: 1px; opacity: 1;"/></g><g class="points"/><g class="text"/></g><g class="trace scatter trace12914b" style="stroke-miterlimit: 2; opacity: 1;"><g class="fills"/><g class="errorbars"/><g class="lines"><path class="js-line" d="M0,51.95L40,149.11L80,114.21L120,182.86L160,143.62L200,152.53L240,183.72L280,201.94L320,234.08L360,259.67L400,281.55L440,301.15L480,321.98L520,359.24L560,390.84L600,421.12L640,436.15L680,461.34L720,518.41L760,542.53L800,567.98L840,594.85L880,591.24L920,581.08L960,596.93L1000,615.41L1040,637.31L1080,674.13L1120,691.85L1160,708.83L1200,719.94L1240,754.49L1280,757.52L1440,756.79" style="vector-effect: none; fill: none; stroke: rgb(211, 211, 211); stroke-opacity: 1; stroke-width: 1px; opacity: 1;"/></g><g class="points"/><g class="text"/></g><g class="trace scatter trace9250b8" style="stroke-miterlimit: 2; opacity: 1;"><g class="fills"/><g class="errorbars"/><g class="lines"><path class="js-line" d="M0,50.56L40,147.73L80,112.82L120,176.74L160,131.71L200,147.95L240,183.37L280,206.87L320,240.36L360,266.97L400,290.15L440,314.15L480,372.85L520,408.88L560,446.89L600,471.47L640,492.9L680,515.96L720,537.29L760,561.01L800,597.17L840,640.25L880,630.42L920,611.74L960,618.48L1000,621.54L1040,620.38L1200,615.26L1240,613.84L1440,615.26" style="vector-effect: none; fill: none; stroke: rgb(211, 211, 211); stroke-opacity: 1; stroke-width: 1px; opacity: 1;"/></g><g class="points"/><g class="text"/></g><g class="trace scatter trace171acf" style="stroke-miterlimit: 2; opacity: 1;"><g class="fills"/><g class="errorbars"/><g class="lines"><path class="js-line" d="M0,51.96L40,149.12L80,114.21L120,182.87L160,143.6L200,152.54L240,183.93L280,199.22L320,221.51L360,249.18L400,272.81L440,291.17L480,313.13L520,349.54L560,372.44L600,388.01L640,400.29L680,425.69L720,448.23L800,500.13L840,528.64L880,526.33L920,525.89L960,543.2L1000,557.03L1040,563.25L1080,594.56L1120,633.52L1160,666.92L1200,702.66L1240,748.95L1280,754.92L1320,754.7L1440,754.15" style="vector-effect: none; fill: none; stroke: rgb(211, 211, 211); stroke-opacity: 1; stroke-width: 1px; opacity: 1;"/></g><g class="points"/><g class="text"/></g><g class="trace scatter traceb69438" style="stroke-miterlimit: 2; opacity: 1;"><g class="fills"/><g class="errorbars"/><g class="lines"><path class="js-line" d="M0,50.56L40,147.73L80,112.82L120,176.73L160,131.69L200,147.71L240,182.68L280,205.89L320,232.74L360,258.83L400,280.54L440,301.95L480,324.52L520,359.64L560,386.23L600,412.05L640,430.9L680,453.66L720,498.5L760,520.18L800,544.21L840,573.79L880,567.35L920,555.3L960,562.47L1000,566.65L1040,574.3L1080,587.47L1120,592.35L1200,589.77L1240,585.32L1280,588.76L1320,589.06L1440,589.89" style="vector-effect: none; fill: none; stroke: rgb(211, 211, 211); stroke-opacity: 1; stroke-width: 1px; opacity: 1;"/></g><g class="points"/><g class="text"/></g><g class="trace scatter trace952f9b" style="stroke-miterlimit: 2; opacity: 1;"><g class="fills"/><g class="errorbars"/><g class="lines"><path class="js-line" d="M0,50.56L40,147.73L80,112.83L120,176.74L160,131.58L200,147.65L240,182.78L280,200.24L320,221.68L360,249.75L400,273.73L480,316.09L520,349.92L560,373.01L600,386.45L640,402.04L680,420.05L760,457.25L800,476.85L840,501.66L880,497.18L920,492.08L960,508.15L1000,513.79L1040,512.65L1080,526.02L1120,534.91L1160,542.41L1200,542.73L1240,538.29L1280,541.75L1440,542.86" style="vector-effect: none; fill: none; stroke: rgb(211, 211, 211); stroke-opacity: 1; stroke-width: 1px; opacity: 1;"/></g><g class="points"/><g class="text"/></g><g class="trace scatter trace8769ef" style="stroke-miterlimit: 2; opacity: 1;"><g class="fills"/><g class="errorbars"/><g class="lines"><path class="js-line" d="M0,50.56L40,147.72L80,112.83L120,176.75L160,131.63L200,147.73L240,182.53L280,195.84L320,211.92L360,233.67L400,249.9L480,296.96L520,331.93L560,352.41L600,364.52L640,375.67L680,388.2L760,410.88L800,424.91L840,443.84L880,429.89L920,426.75L960,455.54L1000,471.85L1040,472.26L1080,471.23L1120,476.25L1160,478.13L1200,476.79L1240,473.33L1280,475.78L1440,476.88" style="vector-effect: none; fill: none; stroke: rgb(211, 211, 211); stroke-opacity: 1; stroke-width: 1px; opacity: 1;"/></g><g class="points"/><g class="text"/></g><g class="trace scatter trace97432c" style="stroke-miterlimit: 2; opacity: 1;"><g class="fills"/><g class="errorbars"/><g class="lines"><path class="js-line" d="M0,50.56L40,147.73L80,112.83L120,176.76L160,131.64L200,147.77L240,182.33L280,195.19L320,206.49L360,224.52L400,235.47L480,267.93L520,292.73L560,320.76L600,328.29L640,336.2L680,346.43L760,364.62L800,375.3L840,395.54L880,376.24L920,366.22L960,388.23L1000,400.33L1040,399.16L1080,407.97L1120,424.51L1160,437.65L1200,449.03L1240,458.02L1280,453.88L1400,459.05L1440,459.41" style="vector-effect: none; fill: none; stroke: rgb(211, 211, 211); stroke-opacity: 1; stroke-width: 1px; opacity: 1;"/></g><g class="points"/><g class="text"/></g><g class="trace scatter trace1795ac" style="stroke-miterlimit: 2; opacity: 1;"><g class="fills"/><g class="errorbars"/><g class="lines"><path class="js-line" d="M0,50.56L40,147.73L80,112.83L120,176.76L160,131.65L200,147.78L240,182.36L280,194.52L320,205.48L360,219.28L400,229.1L480,259.57L520,282.65L560,308.63L600,324.19L640,332.28L680,342.57L720,354.87L760,364.35L800,375.29L840,396.44L880,377.16L920,367.28L960,391.65L1000,400.72L1040,391.87L1080,401.5L1120,425.8L1160,439.59L1240,464.86L1280,472.09L1320,469.15L1360,470.15L1400,468.86L1440,468.63" style="vector-effect: none; fill: none; stroke: rgb(211, 211, 211); stroke-opacity: 1; stroke-width: 1px; opacity: 1;"/></g><g class="points"/><g class="text"/></g><g class="trace scatter trace55795c" style="stroke-miterlimit: 2; opacity: 1;"><g class="fills"/><g class="errorbars"/><g class="lines"><path class="js-line" d="M0,50.9L40,148.34L80,114.56L120,179.25L160,133.96L200,152.1L240,190.16L280,204.42L320,216.19L360,230.43L400,237.91L440,248.02L480,262.71L520,285.63L560,306.6L600,318.27L640,325.42L720,343.72L760,352.7L800,362.58L840,383.54L880,361.38L920,350.25L960,371.18L1000,386.03L1040,378.61L1080,387.45L1120,414.1L1160,445.16L1200,460.34L1240,471.36L1280,475.95L1320,474.14L1440,471.84" style="vector-effect: none; fill: none; stroke: rgb(211, 211, 211); stroke-opacity: 1; stroke-width: 1px; opacity: 1;"/></g><g class="points"/><g class="text"/></g><g class="trace scatter trace0b9f14" style="stroke-miterlimit: 2; opacity: 1;"><g class="fills"/><g class="errorbars"/><g class="lines"><path class="js-line" d="M0,50.56L40,147.73L80,112.84L120,176.76L160,131.66L200,147.79L240,182.38L280,194.55L320,204.57L360,217.48L400,222.75L440,234.25L480,247.79L560,291.01L600,303.79L640,311.12L680,320.39L760,337.74L800,347.42L840,368.55L880,346.61L920,335.42L960,356.66L1000,371.53L1040,367.67L1080,376.45L1120,402.94L1160,433.82L1200,448.61L1240,458.87L1280,463.18L1320,461.07L1360,460.33L1440,458.31" style="vector-effect: none; fill: none; stroke: rgb(211, 211, 211); stroke-opacity: 1; stroke-width: 1px; opacity: 1;"/></g><g class="points"/><g class="text"/></g><g class="trace scatter trace3e04e9" style="stroke-miterlimit: 2; opacity: 1;"><g class="fills"/><g class="errorbars"/><g class="lines"><path class="js-line" d="M0,50.56L40,147.72L80,112.84L120,176.77L160,131.66L200,147.8L240,184.97L280,195.22L320,204.31L360,216.38L400,221.86L440,232.7L480,244.45L560,282.48L600,297.61L640,305.13L680,314.33L760,332.56L800,343.02L840,363.92L880,340.78L920,328.81L960,348.75L1000,362.49L1040,358.04L1080,374.96L1120,400.67L1160,430.88L1200,446.53L1240,456.67L1280,460.9L1320,458.67L1360,457.87L1440,455.75" style="vector-effect: none; fill: none; stroke: rgb(211, 211, 211); stroke-opacity: 1; stroke-width: 1px; opacity: 1;"/></g><g class="points"/><g class="text"/></g><g class="trace scatter tracec44b92" style="stroke-miterlimit: 2; opacity: 1;"><g class="fills"/><g class="errorbars"/><g class="lines"><path class="js-line" d="M0,50.56L40,147.72L80,112.88L120,176.89L160,131.69L200,148.01L240,177.4L280,184.98L320,193.66L360,204.42L400,207.39L480,229.97L520,249.51L560,271.25L600,285.85L640,290.69L680,297.33L760,308.17L800,314.58L840,332.18L880,305.34L920,289.03L960,305.69L1000,315.79L1040,307.89L1080,319.95L1120,337.15L1160,360.52L1200,378.76L1240,384.19L1280,387.74L1320,383.08L1360,380.18L1440,373.65" style="vector-effect: none; fill: none; stroke: rgb(211, 211, 211); stroke-opacity: 1; stroke-width: 1px; opacity: 1;"/></g><g class="points"/><g class="text"/></g><g class="trace scatter tracec271b4" style="stroke-miterlimit: 2; opacity: 1;"><g class="fills"/><g class="errorbars"/><g class="lines"><path class="js-line" d="M0,50.56L40,147.73L80,112.83L120,176.72L160,131.54L200,147.35L240,181.65L280,200.68L320,239.16L360,248.42L400,267.22L440,299.8L480,318.75L520,354.69L560,381.33L640,419.23L680,448.83L760,509.32L800,537.45L840,538.74L880,513.01L920,477.08L960,488.13L1000,472.7L1040,448.7L1080,439.08L1120,436.92L1160,450.48L1200,465.46L1240,472.87L1280,468.36L1320,466.56L1360,469.29L1440,467.7" style="vector-effect: none; fill: none; stroke: rgb(211, 211, 211); stroke-opacity: 1; stroke-width: 1px; opacity: 1;"/></g><g class="points"/><g class="text"/></g><g class="trace scatter tracefbfd4f" style="stroke-miterlimit: 2; opacity: 1;"><g class="fills"/><g class="errorbars"/><g class="lines"><path class="js-line" d="M0,50.56L40,147.74L80,112.83L120,176.74L160,131.58L200,147.47L240,181.53L280,201.87L320,228.19L360,240.49L400,256.94L440,277.95L480,288.84L520,314.61L560,331.87L600,345.51L640,361.06L680,357.72L720,367.31L760,379.28L800,392.95L840,416.84L880,398.01L920,382.12L960,393.3L1000,397.77L1040,384.58L1080,385.78L1120,404.39L1160,430.11L1200,454.55L1240,467.13L1280,468.46L1360,464.94L1400,463.71L1440,462.25" style="vector-effect: none; fill: none; stroke: rgb(211, 211, 211); stroke-opacity: 1; stroke-width: 1px; opacity: 1;"/></g><g class="points"/><g class="text"/></g><g class="trace scatter tracefdffd5" style="stroke-miterlimit: 2; opacity: 1;"><g class="fills"/><g class="errorbars"/><g class="lines"><path class="js-line" d="M0,50.56L40,147.73L80,112.82L120,176.72L160,131.6L200,147.68L240,184.15L280,207.85L320,223.54L360,249.44L400,270.01L440,298.98L480,311.59L520,326.38L560,343.87L600,354.44L640,361.95L680,372.41L720,379.22L760,387.15L800,396.5L840,411.32L880,392.86L920,385.56L960,410.15L1000,420.93L1040,413.93L1080,424.56L1120,445.83L1160,461.07L1200,475.21L1240,489.49L1280,491.57L1320,491.17L1360,489.75L1440,488.88" style="vector-effect: none; fill: none; stroke: rgb(211, 211, 211); stroke-opacity: 1; stroke-width: 1px; opacity: 1;"/></g><g class="points"/><g class="text"/></g><g class="trace scatter trace5f4d44" style="stroke-miterlimit: 2; opacity: 1;"><g class="fills"/><g class="errorbars"/><g class="lines"><path class="js-line" d="M0,50.56L40,147.73L80,112.77L120,176.57L160,131.58L200,147.45L240,189.22L280,206.77L320,221.79L360,238.97L400,251.59L440,264.2L480,281.85L520,307.56L560,331.95L640,355.69L680,369.83L720,381.8L760,394.84L800,408.86L840,434.18L880,417.51L920,410.74L960,435.56L1000,454.15L1040,448.96L1080,462.81L1160,530.64L1200,548.41L1240,565.52L1280,569.67L1360,570.78L1400,571.6L1440,572.47" style="vector-effect: none; fill: none; stroke: rgb(211, 211, 211); stroke-opacity: 1; stroke-width: 1px; opacity: 1;"/></g><g class="points"/><g class="text"/></g><g class="trace scatter traced85c71" style="stroke-miterlimit: 2; opacity: 1;"><g class="fills"/><g class="errorbars"/><g class="lines"><path class="js-line" d="M0,51.97L40,149.13L80,114.25L120,182.89L160,143.61L200,151.27L240,182.86L280,196.34L320,207.81L360,222.47L400,229.15L440,242.89L480,250.86L520,268.59L560,281.74L600,290L640,300.99L680,314.92L720,327.19L760,336.37L800,346.51L840,367.74L880,344.69L920,332.96L960,353.97L1000,368.45L1040,364.7L1080,371.45L1120,397.49L1160,428.28L1200,447.17L1240,458.95L1280,463.02L1320,461.16L1360,460.41L1440,456.99" style="vector-effect: none; fill: none; stroke: rgb(211, 211, 211); stroke-opacity: 1; stroke-width: 1px; opacity: 1;"/></g><g class="points"/><g class="text"/></g><g class="trace scatter trace5b5907" style="stroke-miterlimit: 2; opacity: 1;"><g class="fills"/><g class="errorbars"/><g class="lines"><path class="js-line" d="M0,50.56L40,147.72L80,112.84L120,176.67L160,131.55L200,147.45L240,181.64L280,202.67L320,211.96L360,223.18L400,226.94L480,246.96L520,266.44L560,287.83L600,295.46L680,307.23L720,311.99L760,316.28L800,321.53L840,338.23L880,309.64L920,292.14L960,307.11L1000,318.39L1040,312.33L1080,327.27L1120,356.11L1160,387.24L1200,404.67L1240,422.59L1280,427.86L1320,428.43L1360,430.25L1440,431.92" style="vector-effect: none; fill: none; stroke: rgb(211, 211, 211); stroke-opacity: 1; stroke-width: 1px; opacity: 1;"/></g><g class="points"/><g class="text"/></g><g class="trace scatter traceec651c" style="stroke-miterlimit: 2; opacity: 1;"><g class="fills"/><g class="errorbars"/><g class="lines"><path class="js-line" d="M0,50.56L40,147.7L80,112.31L120,175.63L160,130.2L200,144.7L240,178.57L280,200.98L320,208.83L360,216.99L400,218.75L440,231.47L480,273.72L520,289.92L560,303.91L640,310.17L680,316.06L720,320.59L760,322.07L800,323.91L840,336.3L880,303.47L920,281.25L960,291.83L1000,297.62L1040,287.91L1080,280.56L1120,282.85L1160,308.91L1240,335L1280,333.36L1320,329.82L1360,325.49L1400,321.2L1440,316.06" style="vector-effect: none; fill: none; stroke: rgb(211, 211, 211); stroke-opacity: 1; stroke-width: 1px; opacity: 1;"/></g><g class="points"/><g class="text"/></g><g class="trace scatter trace710d77" style="stroke-miterlimit: 2; opacity: 1;"><g class="fills"/><g class="errorbars"/><g class="lines"><path class="js-line" d="M0,50.56L40,147.72L80,112.83L120,176.78L160,131.69L200,147.9L240,182.6L280,194.6L320,205.03L360,217.93L400,223.46L440,235.19L480,248.57L520,272.04L560,296.52L600,308.87L640,315.43L720,331.76L760,339.55L800,348.24L840,368.26L880,344.87L920,332.05L960,351.33L1000,364.76L1040,358.66L1080,373.13L1120,400.01L1160,430.66L1200,445.59L1240,454.6L1280,459.05L1320,456.94L1440,453.48" style="vector-effect: none; fill: none; stroke: rgb(211, 211, 211); stroke-opacity: 1; stroke-width: 1px; opacity: 1;"/></g><g class="points"/><g class="text"/></g><g class="trace scatter trace10844d" style="stroke-miterlimit: 2; opacity: 1;"><g class="fills"/><g class="errorbars"/><g class="lines"><path class="js-line" d="M0,50.56L40,147.73L80,112.84L120,176.76L160,131.66L200,147.8L240,182.39L280,194.38L320,204.42L360,217.38L400,222.89L440,234.34L480,247.87L560,291.45L600,304.29L640,311.74L680,321.19L760,338.66L800,348.4L840,369.61L880,347.65L920,336.36L960,357.63L1000,372.45L1040,368.64L1080,377.5L1120,404.04L1160,434.98L1200,449.81L1240,460L1280,464.2L1320,461.99L1360,461.19L1440,459.01" style="vector-effect: none; fill: none; stroke: rgb(211, 211, 211); stroke-opacity: 1; stroke-width: 1px; opacity: 1;"/></g><g class="points"/><g class="text"/></g><g class="trace scatter tracef71ccf" style="stroke-miterlimit: 2; opacity: 1;"><g class="fills"/><g class="errorbars"/><g class="lines"><path class="js-line" d="M0,51.97L40,149.13L80,114.24L120,182.88L160,143.6L200,151.24L240,182.82L280,195.97L320,206.65L360,219.26L400,224.35L440,235.77L480,249.07L560,291.98L600,304.27L640,311.39L680,320.39L760,337.57L800,347.14L840,368.18L880,345.85L920,334.33L960,355.46L1000,370.07L1040,366.98L1080,374.21L1120,400.45L1160,431.32L1200,449.84L1240,461.67L1280,465.65L1320,463.78L1360,463.01L1440,459.53" style="vector-effect: none; fill: none; stroke: rgb(211, 211, 211); stroke-opacity: 1; stroke-width: 1px; opacity: 1;"/></g><g class="points"/><g class="text"/></g><g class="trace scatter tracea63094" style="stroke-miterlimit: 2; opacity: 1;"><g class="fills"/><g class="errorbars"/><g class="lines"><path class="js-line" d="M0,50.56L40,147.72L80,112.83L120,176.74L160,131.58L200,147.61L240,181.94L280,190.06L320,209.29L360,231.62L400,247.68L440,270.96L480,293.19L520,323.83L560,348.16L600,367.86L640,382.18L680,399.4L720,414.07L800,436.24L840,445.69L880,420.59L920,405.28L960,410.8L1000,413.19L1040,399.45L1080,402.29L1120,422.27L1160,445.61L1200,459.27L1240,469.21L1280,473.36L1320,471.08L1440,466.77" style="vector-effect: none; fill: none; stroke: rgb(211, 211, 211); stroke-opacity: 1; stroke-width: 1px; opacity: 1;"/></g><g class="points"/><g class="text"/></g><g class="trace scatter trace3b2cba" style="stroke-miterlimit: 2; opacity: 1;"><g class="fills"/><g class="errorbars"/><g class="lines"><path class="js-line" d="M0,50.56L40,147.72L80,112.84L120,176.77L160,131.66L200,147.79L240,182.4L320,203.16L360,216.47L400,222.69L440,236.44L480,249.85L520,271.39L560,294.6L600,305.23L640,312.62L680,322.01L760,339.21L800,348.8L840,369.89L880,347.8L920,336.37L960,357.51L1000,372.16L1040,368.98L1080,378.6L1120,405.83L1160,436.35L1200,449.63L1240,459.79L1280,463.49L1320,461.27L1360,460.26L1440,457.77" style="vector-effect: none; fill: none; stroke: rgb(211, 211, 211); stroke-opacity: 1; stroke-width: 1px; opacity: 1;"/></g><g class="points"/><g class="text"/></g><g class="trace scatter trace520625" style="stroke-miterlimit: 2; opacity: 1;"><g class="fills"/><g class="errorbars"/><g class="lines"><path class="js-line" d="M0,50.9L40,148.32L80,114.65L120,179.34L160,134.03L200,151.96L240,184L280,200.94L320,240.31L360,244.95L400,267.85L440,299.52L480,318.5L520,351.78L560,377.06L600,396.83L640,414.63L720,466.89L760,494.73L800,519.63L840,516.62L880,488.04L920,449.67L960,449.08L1000,431.44L1040,406.39L1080,392.55L1120,388.51L1160,399.17L1200,412.27L1240,420.99L1280,419.97L1320,421.4L1400,419.77L1440,418.6" style="vector-effect: none; fill: none; stroke: rgb(211, 211, 211); stroke-opacity: 1; stroke-width: 1px; opacity: 1;"/></g><g class="points"/><g class="text"/></g><g class="trace scatter trace021f6f" style="stroke-miterlimit: 2; opacity: 1;"><g class="fills"/><g class="errorbars"/><g class="lines"><path class="js-line" d="M0,50.84L40,148.31L80,114.33L120,178.95L160,133.55L200,151.43L240,195.75L280,217.83L320,263.54L360,276.99L400,311.23L440,348.43L480,374.77L520,416.25L560,448.64L600,479.67L640,507.62L720,581.98L760,606.68L800,611.65L840,615.8L920,579.51L960,596.98L1000,595.35L1040,595.32L1080,599.86L1120,605.32L1160,620.99L1200,635.15L1240,643.09L1280,627.18L1320,606.11L1360,607.25L1400,601.4L1440,599.01" style="vector-effect: none; fill: none; stroke: rgb(211, 211, 211); stroke-opacity: 1; stroke-width: 1px; opacity: 1;"/></g><g class="points"/><g class="text"/></g><g class="trace scatter tracec03461" style="stroke-miterlimit: 2; opacity: 1;"><g class="fills"/><g class="errorbars"/><g class="lines"><path class="js-line" d="M0,50.9L40,148.32L80,114.55L120,179.21L160,133.85L200,151.77L240,189.2L280,206.06L320,247.17L360,254.29L400,279.67L440,312.61L480,333.36L520,368.28L560,397.55L600,420.57L640,440.75L720,499.44L760,527.41L800,553.01L840,552.74L880,527.56L920,499.89L960,502.54L1000,488.43L1040,467.23L1080,460.22L1120,459.94L1160,474.26L1200,488.98L1240,497.67L1320,487.78L1360,495.05L1400,492.15L1440,491.06" style="vector-effect: none; fill: none; stroke: rgb(211, 211, 211); stroke-opacity: 1; stroke-width: 1px; opacity: 1;"/></g><g class="points"/><g class="text"/></g><g class="trace scatter trace21b172" style="stroke-miterlimit: 2; opacity: 1;"><g class="fills"/><g class="errorbars"/><g class="lines"><path class="js-line" d="M0,50.9L40,148.31L80,114.65L120,179.36L160,134.05L200,152.04L240,184.21L280,200.03L320,226.46L360,233.96L400,253.93L440,272.74L480,283.24L520,306.31L560,325.24L640,356.78L680,356.32L720,370.14L760,382.09L800,392.98L840,405.85L880,384.28L920,373.18L960,379.43L1000,384.26L1040,375.78L1080,380.88L1120,392.43L1160,402.31L1200,410.19L1240,418.87L1280,419.67L1320,418.54L1440,412.16" style="vector-effect: none; fill: none; stroke: rgb(211, 211, 211); stroke-opacity: 1; stroke-width: 1px; opacity: 1;"/></g><g class="points"/><g class="text"/></g><g class="trace scatter tracedba9a8" style="stroke-miterlimit: 2; opacity: 1;"><g class="fills"/><g class="errorbars"/><g class="lines"><path class="js-line" d="M0,50.9L40,148.37L80,114.42L120,179.03L160,133.56L200,151.47L240,196L280,220.8L320,254.14L360,270.72L400,301.94L440,326.94L480,346.52L520,380.05L560,403.68L600,424.79L640,444.8L680,448.39L720,461.76L760,473.13L800,486L840,497.08L880,479.14L920,471.39L960,492.12L1000,504.25L1040,500.43L1080,512.16L1120,532.65L1160,551.01L1200,567.96L1240,584.95L1280,587.45L1320,590.37L1360,591.1L1440,593.41" style="vector-effect: none; fill: none; stroke: rgb(211, 211, 211); stroke-opacity: 1; stroke-width: 1px; opacity: 1;"/></g><g class="points"/><g class="text"/></g><g class="trace scatter trace8966f4" style="stroke-miterlimit: 2; opacity: 1;"><g class="fills"/><g class="errorbars"/><g class="lines"><path class="js-line" d="M0,50.9L40,148.33L80,114.54L120,179.23L160,133.86L200,151.81L240,189.43L280,209.31L320,237.77L360,248.08L400,271.13L440,291.57L480,304.32L520,329.75L560,349.59L640,381.93L680,381.5L720,394.17L760,408.79L840,433.58L880,413.21L920,403.59L960,419.02L1000,427.79L1040,422.31L1080,432.54L1120,447.11L1160,461.09L1200,473.28L1240,486.01L1280,487.99L1320,488.77L1360,488.33L1440,487.92" style="vector-effect: none; fill: none; stroke: rgb(211, 211, 211); stroke-opacity: 1; stroke-width: 1px; opacity: 1;"/></g><g class="points"/><g class="text"/></g><g class="trace scatter trace0c0ef6" style="stroke-miterlimit: 2; opacity: 1;"><g class="fills"/><g class="errorbars"/><g class="lines"><path class="js-line" d="M0,50.92L40,148.34L80,115.5L120,181.35L160,137.7L200,157L240,223.04L280,252.95L320,292.35L360,331.33L400,364.73L440,392.38L480,416.89L560,482.84L600,531.41L640,565.29L680,596.63L720,622.24L760,638.87L800,655.44L840,668.56L880,646.61L920,628.61L960,634.99L1000,640.17L1040,641.17L1080,645.37L1120,659.2L1160,669.01L1200,677L1240,689.32L1280,689.06L1320,687.65L1360,683.59L1400,681.38L1440,680.47" style="vector-effect: none; fill: none; stroke: rgb(211, 211, 211); stroke-opacity: 1; stroke-width: 1px; opacity: 1;"/></g><g class="points"/><g class="text"/></g><g class="trace scatter trace3ac667" style="stroke-miterlimit: 2; opacity: 1;"><g class="fills"/><g class="errorbars"/><g class="lines"><path class="js-line" d="M0,50.96L40,148.36L80,115.52L120,179.28L160,135.83L200,155.32L240,219.34L280,251.95L320,290.68L360,327.76L400,355L440,381.31L480,405.02L520,437.12L560,471.21L600,502.57L640,530.73L680,561.92L720,591.81L760,619.79L800,636.62L840,653.43L880,633.43L920,616.19L960,622.3L1000,625.91L1040,624.46L1080,629.14L1120,639.86L1160,648.98L1200,657.31L1240,671.85L1280,670.77L1320,664.01L1360,660.8L1440,658.76" style="vector-effect: none; fill: none; stroke: rgb(211, 211, 211); stroke-opacity: 1; stroke-width: 1px; opacity: 1;"/></g><g class="points"/><g class="text"/></g><g class="trace scatter tracecfb957" style="stroke-miterlimit: 2; opacity: 1;"><g class="fills"/><g class="errorbars"/><g class="lines"><path class="js-line" d="M0,50.96L40,148.38L80,115.51L120,179.3L160,135.88L200,155.3L240,218.34L280,251.26L320,289.26L360,317.57L400,344.01L480,396.68L520,427.11L560,459.1L600,488.63L640,514.68L680,543.74L720,571.22L760,600.85L800,627.96L840,641.05L880,617.67L920,597.74L960,603.02L1000,607.1L1040,607.21L1080,617.16L1160,636.43L1200,644.21L1240,657.89L1280,653.75L1320,647.43L1360,646.44L1400,646.29L1440,643.67" style="vector-effect: none; fill: none; stroke: rgb(211, 211, 211); stroke-opacity: 1; stroke-width: 1px; opacity: 1;"/></g><g class="points"/><g class="text"/></g><g class="trace scatter tracead31ce" style="stroke-miterlimit: 2; opacity: 1;"><g class="fills"/><g class="errorbars"/><g class="lines"><path class="js-line" d="M0,50.96L40,148.37L80,114.59L120,179.3L160,134.29L200,154.04L240,192.96L280,221.2L320,284.45L360,308.82L400,335.16L480,389.14L520,418.45L560,448.01L600,475.04L640,499.37L680,525.05L720,549.78L760,576.7L800,608.94L840,631.5L880,606.82L920,586.18L960,592.22L1000,596.47L1040,596.2L1080,607.11L1120,620.18L1160,629.24L1200,636.79L1240,651.21L1280,646.58L1320,639.13L1440,630.42" style="vector-effect: none; fill: none; stroke: rgb(211, 211, 211); stroke-opacity: 1; stroke-width: 1px; opacity: 1;"/></g><g class="points"/><g class="text"/></g><g class="trace scatter tracefdf116" style="stroke-miterlimit: 2; opacity: 1;"><g class="fills"/><g class="errorbars"/><g class="lines"><path class="js-line" d="M0,50.96L40,148.37L80,114.6L120,179.31L160,134.32L200,153.51L240,192.61L280,219.39L320,248.24L440,325.66L480,375.36L520,409.22L560,437.48L600,462.34L640,485.69L680,509.65L720,532.12L760,556.03L800,589.21L840,616.69L880,594.75L920,574.02L960,579.02L1000,582.36L1040,581.23L1080,591.47L1120,605.13L1160,614.97L1200,622.46L1240,633.81L1280,634.12L1320,632.36L1360,629.44L1440,623.98" style="vector-effect: none; fill: none; stroke: rgb(211, 211, 211); stroke-opacity: 1; stroke-width: 1px; opacity: 1;"/></g><g class="points"/><g class="text"/></g><g class="trace scatter trace035c4e" style="stroke-miterlimit: 2; opacity: 1;"><g class="fills"/><g class="errorbars"/><g class="lines"><path class="js-line" d="M0,50.9L40,148.36L80,114.6L120,179.25L160,134.27L200,153.06L240,191.16L440,317.16L480,347.91L520,382.41L560,430.02L640,478.83L680,500.45L720,521.36L760,543.86L800,568.17L840,596.99L880,585.93L920,566.27L960,570.4L1000,576.34L1040,575.28L1080,585.05L1120,598.11L1160,609.69L1200,614.96L1240,612.55L1280,613.93L1320,614.22L1440,615.05" style="vector-effect: none; fill: none; stroke: rgb(211, 211, 211); stroke-opacity: 1; stroke-width: 1px; opacity: 1;"/></g><g class="points"/><g class="text"/></g><g class="trace scatter trace5a549f" style="stroke-miterlimit: 2; opacity: 1;"><g class="fills"/><g class="errorbars"/><g class="lines"><path class="js-line" d="M0,50.9L40,148.35L80,114.57L120,179.24L160,134.08L200,152.14L240,190.01L280,203.9L320,227.39L360,251.58L400,278.16L440,304.3L480,334.55L520,372.61L560,402.69L640,448.79L680,470.39L720,490.35L760,511.61L800,536.83L840,564.42L880,557.97L920,545L960,543.71L1000,552.74L1040,554.06L1080,567.13L1120,581.57L1160,598.55L1200,601.45L1240,597.52L1280,599.63L1320,600.81L1440,601.64" style="vector-effect: none; fill: none; stroke: rgb(211, 211, 211); stroke-opacity: 1; stroke-width: 1px; opacity: 1;"/></g><g class="points"/><g class="text"/></g><g class="trace scatter traced38320" style="stroke-miterlimit: 2; opacity: 1;"><g class="fills"/><g class="errorbars"/><g class="lines"><path class="js-line" d="M0,50.9L40,148.35L80,114.57L120,179.24L160,133.9L200,152.01L240,189.76L280,201.91L320,224.74L360,248.14L400,274.07L440,300.28L480,328.51L520,368.53L560,397.79L600,421.21L640,440.55L680,461L720,479.3L760,498.63L800,521.62L840,547.24L880,526.47L920,513.32L960,520.04L1000,523.19L1040,521.95L1120,556.26L1160,568.52L1200,577.55L1240,571.5L1280,574.87L1320,576.64L1440,577.46" style="vector-effect: none; fill: none; stroke: rgb(211, 211, 211); stroke-opacity: 1; stroke-width: 1px; opacity: 1;"/></g><g class="points"/><g class="text"/></g><g class="trace scatter tracecc635a" style="stroke-miterlimit: 2; opacity: 1;"><g class="fills"/><g class="errorbars"/><g class="lines"><path class="js-line" d="M0,50.9L40,148.33L80,114.54L120,179.24L160,133.88L200,152L240,189.8L280,200.86L320,223.32L360,243.24L400,268.63L440,291.04L480,316.16L520,350.79L560,377.02L600,400.61L640,417.42L680,437.84L720,456.27L760,470.58L800,483.6L840,495.92L880,475.76L920,468.94L960,485.28L1000,498.08L1040,496.88L1080,514L1120,527.6L1200,551.83L1240,556.71L1440,558.1" style="vector-effect: none; fill: none; stroke: rgb(211, 211, 211); stroke-opacity: 1; stroke-width: 1px; opacity: 1;"/></g><g class="points"/><g class="text"/></g><g class="trace scatter trace31e61d" style="stroke-miterlimit: 2; opacity: 1;"><g class="fills"/><g class="errorbars"/><g class="lines"><path class="js-line" d="M0,50.89L40,148.32L80,114.63L120,179.37L160,134.09L200,152.23L240,184.96L280,189.34L320,209.28L360,225.38L400,243.18L440,263.75L480,285.89L520,319.45L560,343.8L600,364.48L640,376.94L680,391.43L720,402.9L760,411.63L800,419.09L840,425.29L880,397.17L920,381.96L960,385.9L1000,388.65L1040,377.23L1080,382.08L1120,394.5L1160,404.59L1200,412.38L1240,421.2L1280,427.05L1320,420.37L1360,418.16L1440,414.1" style="vector-effect: none; fill: none; stroke: rgb(211, 211, 211); stroke-opacity: 1; stroke-width: 1px; opacity: 1;"/></g><g class="points"/><g class="text"/></g><g class="trace scatter trace8d7b6c" style="stroke-miterlimit: 2; opacity: 1;"><g class="fills"/><g class="errorbars"/><g class="lines"><path class="js-line" d="M0,50.87L40,148.32L80,114.37L120,179.01L160,133.58L200,151.64L240,196.36L280,208.86L320,236.51L360,261.62L400,291.6L440,316.18L480,345.47L520,385.27L560,416.36L600,444.79L640,467.28L680,494.22L720,518.13L800,562.64L840,581.23L880,564.94L920,554.46L960,572.96L1000,586.77L1040,587.05L1080,600.79L1120,624.4L1160,643.77L1240,676.83L1280,683.09L1360,680.91L1400,677.09L1440,672.6" style="vector-effect: none; fill: none; stroke: rgb(211, 211, 211); stroke-opacity: 1; stroke-width: 1px; opacity: 1;"/></g><g class="points"/><g class="text"/></g><g class="trace scatter tracecb4271" style="stroke-miterlimit: 2; opacity: 1;"><g class="fills"/><g class="errorbars"/><g class="lines"><path class="js-line" d="M0,50.89L40,148.32L80,114.53L120,179.24L160,133.88L200,151.99L240,189.8L280,198.4L320,220.4L360,239.3L400,260.81L440,282.29L480,306.59L520,341.26L560,368.13L600,390.14L640,406.11L720,441.7L760,455.8L800,469.32L840,476.71L880,449.04L920,427.51L960,434.01L1000,437.5L1040,425.9L1080,432.66L1120,449.45L1160,464.57L1240,489.25L1280,496.51L1320,491.96L1360,491.4L1440,490.9" style="vector-effect: none; fill: none; stroke: rgb(211, 211, 211); stroke-opacity: 1; stroke-width: 1px; opacity: 1;"/></g><g class="points"/><g class="text"/></g><g class="trace scatter tracea5e9fb" style="stroke-miterlimit: 2; opacity: 1;"><g class="fills"/><g class="errorbars"/><g class="lines"><path class="js-line" d="M0,50.96L40,148.37L80,115.52L120,179.28L160,135.84L200,155.36L240,219.42L280,252.56L320,291.22L360,334.05L400,366.66L440,387.8L480,407.44L560,471.78L600,498.59L680,561.85L720,590.84L760,619.84L800,637.82L840,653.14L880,633.05L920,617.75L960,621.27L1000,623.99L1040,622.53L1080,627.01L1120,635.93L1160,646.86L1200,654.3L1240,668.71L1280,668.17L1320,660.93L1360,657.07L1400,657.11L1440,655.95" style="vector-effect: none; fill: none; stroke: rgb(211, 211, 211); stroke-opacity: 1; stroke-width: 1px; opacity: 1;"/></g><g class="points"/><g class="text"/></g><g class="trace scatter trace382148" style="stroke-miterlimit: 2; opacity: 1;"><g class="fills"/><g class="errorbars"/><g class="lines"><path class="js-line" d="M0,52.34L40,149.78L80,116.03L120,183.45L160,144.82L200,157.41L240,195.2L280,216.97L320,254.75L360,294.6L400,320.25L440,362.11L480,383.29L520,414.9L560,441.42L640,485.35L680,511.89L720,534.64L760,635.97L800,669.97L840,691.99L880,674.35L920,660.98L960,672.66L1000,682.05L1040,685.7L1080,694.45L1120,707.24L1160,723.54L1200,736.99L1240,760.74L1280,762.13L1320,762.06L1440,761.68" style="vector-effect: none; fill: none; stroke: rgb(211, 211, 211); stroke-opacity: 1; stroke-width: 1px; opacity: 1;"/></g><g class="points"/><g class="text"/></g><g class="trace scatter tracea572d0" style="stroke-miterlimit: 2; opacity: 1;"><g class="fills"/><g class="errorbars"/><g class="lines"><path class="js-line" d="M0,50.95L40,148.38L80,115.5L120,179.32L160,135.88L200,155.33L240,219.26L280,251.76L320,289.26L360,331.21L400,358.38L480,399.22L520,428.9L560,460.02L600,484.95L680,538.92L720,564.54L760,666.43L800,692.99L840,703.84L880,676.65L920,655.21L960,659.98L1000,663.43L1040,662.87L1160,658.74L1200,657.42L1240,656.05L1280,659.56L1320,655.95L1360,655.58L1440,654.8" style="vector-effect: none; fill: none; stroke: rgb(211, 211, 211); stroke-opacity: 1; stroke-width: 1px; opacity: 1;"/></g><g class="points"/><g class="text"/></g><g class="trace scatter trace3061f7" style="stroke-miterlimit: 2; opacity: 1;"><g class="fills"/><g class="errorbars"/><g class="lines"><path class="js-line" d="M0,52.34L40,149.79L80,117.06L120,183.54L160,146.61L200,158.75L240,216.56L280,244.11L320,281.2L360,321.9L400,354.1L480,393.87L520,423.97L560,454.49L600,479.91L640,509.25L680,537.21L720,564.15L760,592.42L800,612.83L840,626.42L880,602.84L920,582.68L960,586.2L1000,588.14L1040,585.33L1080,588.37L1120,595.27L1160,605L1200,611.53L1240,620.34L1280,616.95L1320,612.55L1400,607.37L1440,607.42" style="vector-effect: none; fill: none; stroke: rgb(211, 211, 211); stroke-opacity: 1; stroke-width: 1px; opacity: 1;"/></g><g class="points"/><g class="text"/></g><g class="trace scatter trace205417" style="stroke-miterlimit: 2; opacity: 1;"><g class="fills"/><g class="errorbars"/><g class="lines"><path class="js-line" d="M0,50.96L40,148.38L80,115.48L120,179.33L160,135.92L200,155.5L240,205.74L280,250.93L320,288.82L360,330.69L400,357.66L480,399.15L520,429.07L560,459.57L600,485.23L720,568.99L760,598.87L800,627.46L840,642.71L880,620.43L920,599.72L960,604.45L1000,608.08L1040,607.69L1080,617.56L1120,624.93L1160,634.68L1200,642.4L1240,656.32L1280,652.33L1320,646.22L1360,642.91L1400,643.2L1440,641.12" style="vector-effect: none; fill: none; stroke: rgb(211, 211, 211); stroke-opacity: 1; stroke-width: 1px; opacity: 1;"/></g><g class="points"/><g class="text"/></g><g class="trace scatter trace701f15" style="stroke-miterlimit: 2; opacity: 1;"><g class="fills"/><g class="errorbars"/><g class="lines"><path class="js-line" d="M0,52.34L40,149.79L80,116.13L120,183.52L160,144.89L200,157.29L240,190.35L280,213.55L320,249.99L360,313.46L400,339.63L480,377.68L520,405.71L560,432.46L600,454.65L640,478.86L680,501.76L720,524.01L760,550.04L800,579.87L840,603.84L880,577.61L920,553.71L960,558.22L1000,559.89L1040,557.06L1080,564.96L1120,576.96L1160,579.77L1200,589.08L1240,600.03L1280,600.35L1320,592.95L1360,585.71L1400,579.91L1440,575.53" style="vector-effect: none; fill: none; stroke: rgb(211, 211, 211); stroke-opacity: 1; stroke-width: 1px; opacity: 1;"/></g><g class="points"/><g class="text"/></g><g class="trace scatter trace53d101" style="stroke-miterlimit: 2; opacity: 1;"><g class="fills"/><g class="errorbars"/><g class="lines"><path class="js-line" d="M0,50.9L40,148.37L80,114.59L120,179.24L160,134.27L200,153.5L240,192.45L280,219.73L320,255.54L360,293.7L400,317.93L440,336.58L480,367.48L520,409.81L560,438.38L600,459.96L640,485.33L760,553.34L800,582.52L840,611.16L880,592.88L920,570.87L960,575.46L1000,580.98L1040,579.78L1080,588.91L1120,602.14L1160,613.32L1200,621.39L1240,631.36L1280,631.66L1320,631.96L1360,629.82L1440,624.72" style="vector-effect: none; fill: none; stroke: rgb(211, 211, 211); stroke-opacity: 1; stroke-width: 1px; opacity: 1;"/></g><g class="points"/><g class="text"/></g><g class="trace scatter trace1c4380" style="stroke-miterlimit: 2; opacity: 1;"><g class="fills"/><g class="errorbars"/><g class="lines"><path class="js-line" d="M0,50.9L40,148.35L80,114.57L120,179.23L160,134.26L200,152.25L240,189.78L280,214.64L320,246.86L360,273.69L400,297.06L480,340.99L520,373.7L560,401.21L600,418.9L640,439.12L680,461.67L720,487.36L760,553.29L800,578.95L840,605.65L880,591.14L920,575.41L960,585.35L1000,594.35L1040,620.2L1080,619.11L1240,613.72L1280,614.02L1440,615.14" style="vector-effect: none; fill: none; stroke: rgb(211, 211, 211); stroke-opacity: 1; stroke-width: 1px; opacity: 1;"/></g><g class="points"/><g class="text"/></g><g class="trace scatter trace2ab43c" style="stroke-miterlimit: 2; opacity: 1;"><g class="fills"/><g class="errorbars"/><g class="lines"><path class="js-line" d="M0,52.34L40,149.79L80,116.1L120,183.52L160,144.87L200,153.73L240,186.21L280,206.81L320,238.24L360,263.02L400,284.16L440,304.46L480,326.24L520,359.65L560,386.24L600,408.58L640,426.21L680,445.5L720,470.89L760,531.11L800,553.13L840,578.05L880,565.22L920,546.42L960,555.67L1000,563.2L1040,560.97L1160,553.42L1200,550.59L1240,546.36L1280,547.97L1440,548.89" style="vector-effect: none; fill: none; stroke: rgb(211, 211, 211); stroke-opacity: 1; stroke-width: 1px; opacity: 1;"/></g><g class="points"/><g class="text"/></g><g class="trace scatter trace1a8d32" style="stroke-miterlimit: 2; opacity: 1;"><g class="fills"/><g class="errorbars"/><g class="lines"><path class="js-line" d="M0,50.9L40,148.35L80,114.57L120,179.23L160,134.05L200,152.15L240,189.75L280,214.21L320,239.58L360,269.93L400,296.45L440,316.71L480,338.66L520,372.42L560,397.54L600,415.7L640,435.4L680,457.76L720,479.19L760,500.87L800,525.57L840,567.95L880,557.83L920,543.89L960,544L1000,551.22L1040,552.43L1080,565.99L1120,580.73L1160,597.83L1200,601.19L1240,595.15L1280,600.29L1440,601.41" style="vector-effect: none; fill: none; stroke: rgb(211, 211, 211); stroke-opacity: 1; stroke-width: 1px; opacity: 1;"/></g><g class="points"/><g class="text"/></g><g class="trace scatter trace81daf0" style="stroke-miterlimit: 2; opacity: 1;"><g class="fills"/><g class="errorbars"/><g class="lines"><path class="js-line" d="M0,52.34L40,149.8L80,116.11L120,183.52L160,144.51L200,153.37L240,186.02L280,201.56L320,225.05L360,254.5L400,279.48L440,298.53L480,320.45L520,354.38L560,376.77L640,408.6L680,426.55L720,444.18L760,497.11L800,517.27L840,540.04L880,531.95L920,516.95L960,521.27L1000,526.74L1040,524.63L1080,539.66L1120,540.85L1160,538.13L1240,531.85L1280,532.66L1440,533.58" style="vector-effect: none; fill: none; stroke: rgb(211, 211, 211); stroke-opacity: 1; stroke-width: 1px; opacity: 1;"/></g><g class="points"/><g class="text"/></g><g class="trace scatter trace6e85a8" style="stroke-miterlimit: 2; opacity: 1;"><g class="fills"/><g class="errorbars"/><g class="lines"><path class="js-line" d="M0,52.34L40,149.79L80,116.11L120,183.52L160,144.55L200,153.19L240,186.09L280,190.55L320,209.68L360,232.47L400,250.31L440,274.44L480,297.11L520,332.17L560,355.43L600,371.38L640,379.34L680,397.73L720,417.3L760,438.83L800,461.61L840,485.51L880,480.7L920,484.63L960,504.18L1000,518.54L1040,521.75L1080,544.55L1120,592.93L1160,628.85L1200,658.37L1240,713.62L1280,723.18L1440,720.61" style="vector-effect: none; fill: none; stroke: rgb(211, 211, 211); stroke-opacity: 1; stroke-width: 1px; opacity: 1;"/></g><g class="points"/><g class="text"/></g><g class="trace scatter trace5fbb8f" style="stroke-miterlimit: 2; opacity: 1;"><g class="fills"/><g class="errorbars"/><g class="lines"><path class="js-line" d="M0,50.9L40,148.35L80,114.57L120,179.24L160,133.92L200,152.06L240,189.83L280,207.91L320,231.21L360,260.3L400,284.34L440,310.25L480,332.89L520,367.19L560,389.33L600,405.22L640,422.19L720,463.33L760,483.2L800,512.93L840,538.89L880,532.94L920,519.75L960,527.49L1000,529.66L1040,528.45L1080,541.54L1120,558.85L1160,578.14L1200,582.36L1240,577.56L1280,581.39L1320,581.68L1440,582.51" style="vector-effect: none; fill: none; stroke: rgb(211, 211, 211); stroke-opacity: 1; stroke-width: 1px; opacity: 1;"/></g><g class="points"/><g class="text"/></g><g class="trace scatter tracea22025" style="stroke-miterlimit: 2; opacity: 1;"><g class="fills"/><g class="errorbars"/><g class="lines"><path class="js-line" d="M0,50.9L40,148.35L80,114.57L120,179.25L160,133.92L200,152.08L240,190L280,203.93L320,223.75L360,248.94L400,269.55L440,294.37L480,316.03L520,346.9L560,375.2L640,401.45L680,416.6L760,445.58L800,462.47L840,481.12L880,470.44L920,470.17L960,500.04L1000,511.52L1040,511.69L1080,526.26L1120,545.98L1160,557.4L1200,567.96L1240,570.41L1280,571.75L1440,572.86" style="vector-effect: none; fill: none; stroke: rgb(211, 211, 211); stroke-opacity: 1; stroke-width: 1px; opacity: 1;"/></g><g class="points"/><g class="text"/></g><g class="trace scatter trace9d9874" style="stroke-miterlimit: 2; opacity: 1;"><g class="fills"/><g class="errorbars"/><g class="lines"><path class="js-line" d="M0,50.9L40,148.35L80,114.57L120,179.24L160,133.92L200,152.09L240,190.06L280,203.23L320,219.7L360,241.37L400,258.14L440,278.68L480,303.54L520,338.21L560,359.03L640,382.13L680,395.42L760,419.78L800,434.56L840,451.57L880,438.33L920,434.34L960,461.95L1000,478.47L1040,479.92L1080,501.15L1120,530.36L1160,542.12L1200,556.06L1240,561.63L1280,561.93L1440,563.03" style="vector-effect: none; fill: none; stroke: rgb(211, 211, 211); stroke-opacity: 1; stroke-width: 1px; opacity: 1;"/></g><g class="points"/><g class="text"/></g><g class="trace scatter trace777f98" style="stroke-miterlimit: 2; opacity: 1;"><g class="fills"/><g class="errorbars"/><g class="lines"><path class="js-line" d="M0,50.9L40,148.35L80,114.57L120,179.25L160,133.93L200,152.1L240,190.13L280,203.04L320,217.78L360,237.45L400,252.19L440,269.91L480,292.45L520,327.18L560,348.54L600,359.8L640,369.82L680,382.21L720,393.62L800,416.48L840,431.93L880,414.54L920,407.62L960,428.83L1000,441.6L1040,440.38L1080,454.57L1120,487.3L1160,512.04L1200,525.51L1240,535.94L1440,537.34" style="vector-effect: none; fill: none; stroke: rgb(211, 211, 211); stroke-opacity: 1; stroke-width: 1px; opacity: 1;"/></g><g class="points"/><g class="text"/></g><g class="trace scatter tracedcda15" style="stroke-miterlimit: 2; opacity: 1;"><g class="fills"/><g class="errorbars"/><g class="lines"><path class="js-line" d="M0,50.9L40,148.35L80,114.57L120,179.25L160,133.95L200,152.12L240,190.19L320,217.16L360,234.3L400,247.63L440,263.74L480,284.7L520,312.77L560,337.7L600,347.2L640,356.08L680,367.26L720,379.26L760,389.75L800,401.04L840,417.42L880,398.06L920,389.17L960,411.79L1000,413.91L1040,414.53L1080,424.36L1120,442.44L1160,456.46L1240,482.71L1280,486.37L1440,487.46" style="vector-effect: none; fill: none; stroke: rgb(211, 211, 211); stroke-opacity: 1; stroke-width: 1px; opacity: 1;"/></g><g class="points"/><g class="text"/></g><g class="trace scatter traced81971" style="stroke-miterlimit: 2; opacity: 1;"><g class="fills"/><g class="errorbars"/><g class="lines"><path class="js-line" d="M0,52.34L40,149.78L80,116.02L120,183.5L160,144.8L200,157.37L240,195.09L280,217.24L320,255.28L360,295.39L400,346.97L440,366.01L480,386.57L520,417.96L560,444.84L640,490.05L680,517.17L720,541.54L760,568.75L800,600.53L840,625.77L880,609.36L920,596.69L960,611.74L1000,623.22L1040,625.84L1080,649.07L1120,675.48L1160,703.68L1200,726.29L1240,760.39L1280,761.82L1320,761.8L1440,761.3" style="vector-effect: none; fill: none; stroke: rgb(211, 211, 211); stroke-opacity: 1; stroke-width: 1px; opacity: 1;"/></g><g class="points"/><g class="text"/></g><g class="trace scatter trace0518d1" style="stroke-miterlimit: 2; opacity: 1;"><g class="fills"/><g class="errorbars"/><g class="lines"><path class="js-line" d="M0,50.9L40,148.32L80,114.64L120,179.38L160,134.16L200,152.37L240,185.38L280,193.59L320,205.57L360,218.12L400,227.73L440,239.82L480,255.13L560,309.17L600,319.05L640,325.76L680,333.94L720,344.8L760,353.27L800,362.46L840,379.73L880,356.3L920,342.1L960,361.4L1000,368.12L1040,355.8L1080,361.48L1120,383.54L1160,393.34L1240,411.14L1280,416.26L1320,410.96L1360,410.14L1400,407.32L1440,405.56" style="vector-effect: none; fill: none; stroke: rgb(211, 211, 211); stroke-opacity: 1; stroke-width: 1px; opacity: 1;"/></g><g class="points"/><g class="text"/></g><g class="trace scatter tracef2df15" style="stroke-miterlimit: 2; opacity: 1;"><g class="fills"/><g class="errorbars"/><g class="lines"><path class="js-line" d="M0,50.9L40,148.35L80,114.41L120,179.05L160,133.64L200,151.77L240,196.77L280,215.17L320,232.37L360,251.12L400,267.1L440,281.18L480,301.52L520,332.59L560,359.96L600,372.94L640,384.77L680,401.1L720,413.59L760,427.94L800,443.64L840,461.44L880,447.85L920,444.67L960,473.02L1000,491.58L1040,492.49L1120,529.32L1160,547.66L1240,582.78L1280,590.41L1320,589.29L1360,590.15L1440,592.9" style="vector-effect: none; fill: none; stroke: rgb(211, 211, 211); stroke-opacity: 1; stroke-width: 1px; opacity: 1;"/></g><g class="points"/><g class="text"/></g><g class="trace scatter trace50bf72" style="stroke-miterlimit: 2; opacity: 1;"><g class="fills"/><g class="errorbars"/><g class="lines"><path class="js-line" d="M0,50.9L40,148.34L80,114.56L120,179.25L160,133.96L200,152.14L240,190.22L360,230.51L400,240.92L440,252.56L480,269.22L520,295.9L560,321.48L600,335.45L640,343.92L680,355.14L720,365.26L760,375.54L800,387.42L840,407.28L880,388.49L920,378.98L960,402.41L1000,412.96L1040,405.15L1080,415.74L1120,439.43L1160,453.35L1200,466.21L1240,479.07L1280,486.58L1320,482.77L1360,482.92L1440,482.83" style="vector-effect: none; fill: none; stroke: rgb(211, 211, 211); stroke-opacity: 1; stroke-width: 1px; opacity: 1;"/></g><g class="points"/><g class="text"/></g><g class="trace scatter tracec0f1f5" style="stroke-miterlimit: 2; opacity: 1;"><g class="fills"/><g class="errorbars"/><g class="lines"><path class="js-line" d="M0,52.34L40,149.79L80,116.11L120,183.52L160,144.52L200,152.02L240,185.58L280,191.68L320,204L440,238.75L480,252.21L520,278.08L560,300.93L600,350.12L640,366.89L680,367.95L720,366.26L800,392.67L840,408.97L880,402.35L920,376.22L1000,386.34L1040,379.64L1080,388.98L1120,409.64L1160,420.72L1200,429.74L1240,439.19L1280,442.42L1320,435.95L1360,433.79L1440,426.26" style="vector-effect: none; fill: none; stroke: rgb(211, 211, 211); stroke-opacity: 1; stroke-width: 1px; opacity: 1;"/></g><g class="points"/><g class="text"/></g><g class="trace scatter trace2b2188" style="stroke-miterlimit: 2; opacity: 1;"><g class="fills"/><g class="errorbars"/><g class="lines"><path class="js-line" d="M0,52.34L40,149.79L80,116.01L120,183.49L160,144.45L200,152.44L240,190.66L280,201.11L320,214.91L400,242.12L440,253.92L480,268.55L520,295.21L560,318.49L600,368.93L640,387.48L680,391.33L720,392.93L760,408.63L800,424.83L840,442.25L880,442.02L920,418.72L960,427.7L1000,435.43L1040,431.83L1080,445.68L1120,464.55L1160,479.52L1240,505.79L1280,511.45L1320,506.49L1360,505.88L1400,502.99L1440,501.21" style="vector-effect: none; fill: none; stroke: rgb(211, 211, 211); stroke-opacity: 1; stroke-width: 1px; opacity: 1;"/></g><g class="points"/><g class="text"/></g><g class="trace scatter tracea40763" style="stroke-miterlimit: 2; opacity: 1;"><g class="fills"/><g class="errorbars"/><g class="lines"><path class="js-line" d="M0,52.34L40,149.79L80,116.11L120,183.52L160,144.54L200,152.05L240,187.58L280,192.57L320,203.32L360,214.08L400,222.18L440,230.74L480,241.99L520,265L560,284.62L600,336.94L640,356.06L680,359.69L720,359.29L800,389.78L840,405.97L880,398.2L920,372.51L960,376.88L1000,383.07L1040,375.72L1080,385.32L1120,407.31L1160,419.3L1240,438.12L1280,441.02L1320,434.49L1360,431.67L1440,424.93" style="vector-effect: none; fill: none; stroke: rgb(211, 211, 211); stroke-opacity: 1; stroke-width: 1px; opacity: 1;"/></g><g class="points"/><g class="text"/></g><g class="trace scatter trace7280fb" style="stroke-miterlimit: 2; opacity: 1;"><g class="fills"/><g class="errorbars"/><g class="lines"><path class="js-line" d="M0,52.34L40,149.79L80,116.01L120,183.5L160,144.48L200,152.47L240,192.56L280,201.03L320,213.63L360,226.25L400,237.22L440,246.92L480,259.78L520,283.77L560,304.96L600,358.14L640,377.9L680,382.65L720,384.93L800,419.98L840,437.68L880,435.92L920,412.59L960,421.37L1000,428.81L1040,426.32L1080,440.98L1120,460.96L1160,477.82L1240,504.39L1280,509.86L1320,504.37L1360,503L1440,499.6" style="vector-effect: none; fill: none; stroke: rgb(211, 211, 211); stroke-opacity: 1; stroke-width: 1px; opacity: 1;"/></g><g class="points"/><g class="text"/></g><g class="trace scatter tracef34967" style="stroke-miterlimit: 2; opacity: 1;"><g class="fills"/><g class="errorbars"/><g class="lines"><path class="js-line" d="M0,52.33L40,149.78L80,116.04L120,183.51L160,144.84L200,153.93L240,190.94L280,220.39L320,254L360,282.31L400,307.83L440,309.06L480,313.23L520,333.7L560,353.18L600,371.59L640,372.59L680,377.61L720,389.35L760,450.39L800,469.45L840,507.45L880,537.55L920,549.39L960,569.61L1000,580.63L1040,576.65L1080,572.72L1120,571.19L1240,558.76L1280,559.1L1440,560.43" style="vector-effect: none; fill: none; stroke: rgb(211, 211, 211); stroke-opacity: 1; stroke-width: 1px; opacity: 1;"/></g><g class="points"/><g class="text"/></g><g class="trace scatter tracea163fc" style="stroke-miterlimit: 2; opacity: 1;"><g class="fills"/><g class="errorbars"/><g class="lines"><path class="js-line" d="M0,52.32L40,149.79L80,116.05L120,183.51L160,144.45L200,152.55L240,190.69L280,209.03L320,228.23L360,247.76L400,266.34L440,261.15L480,257.97L520,265.86L560,275.43L600,281.24L640,282.6L680,290.94L720,303.08L760,315.1L800,332.37L840,347.69L880,331.75L920,322.42L960,342.15L1000,348.28L1040,344.53L1080,360.73L1120,382.63L1160,413.15L1200,437.89L1240,447.42L1280,451.54L1320,449.75L1360,449.62L1440,445.97" style="vector-effect: none; fill: none; stroke: rgb(211, 211, 211); stroke-opacity: 1; stroke-width: 1px; opacity: 1;"/></g><g class="points"/><g class="text"/></g><g class="trace scatter traceac4725" style="stroke-miterlimit: 2; opacity: 1;"><g class="fills"/><g class="errorbars"/><g class="lines"><path class="js-line" d="M0,50.92L40,148.35L80,115.51L120,181.36L160,137.7L200,157.03L240,223.16L280,252.91L320,292.23L360,336.18L400,373.73L440,397.04L480,417.4L560,485.14L600,528.66L680,591.99L720,620.57L760,639.81L800,655.35L840,670.09L880,648.49L920,630.18L960,636.05L1000,640.54L1040,640.77L1080,644.53L1120,654.62L1160,665.7L1200,673.31L1240,685.91L1280,685.65L1320,683.36L1360,679.5L1400,677.02L1440,676.76" style="vector-effect: none; fill: none; stroke: rgb(211, 211, 211); stroke-opacity: 1; stroke-width: 1px; opacity: 1;"/></g><g class="points"/><g class="text"/></g><g class="trace scatter trace6d4097" style="stroke-miterlimit: 2; opacity: 1;"><g class="fills"/><g class="errorbars"/><g class="lines"><path class="js-line" d="M0,50.96L40,148.38L80,115.48L120,179.33L160,135.92L200,155.5L240,205.74L280,250.93L320,288.82L360,330.69L400,357.66L480,399.15L520,429.07L560,459.58L600,485.23L680,541.9L720,568.99L760,598.87L800,627.46L840,642.71L880,620.43L920,599.71L960,604.44L1000,608.07L1040,607.68L1080,617.55L1120,624.92L1160,634.68L1200,642.4L1240,656.32L1280,652.32L1320,646.22L1360,642.9L1400,643.19L1440,641.13" style="vector-effect: none; fill: none; stroke: rgb(211, 211, 211); stroke-opacity: 1; stroke-width: 1px; opacity: 1;"/></g><g class="points"/><g class="text"/></g><g class="trace scatter trace7b7262" style="stroke-miterlimit: 2; opacity: 1;"><g class="fills"/><g class="errorbars"/><g class="lines"><path class="js-line" d="M0,50.9L40,148.37L80,114.59L120,179.24L160,134.27L200,153.5L240,192.45L280,219.71L320,255.51L360,293.8L400,318.04L440,336.67L480,367.94L520,409.82L560,438.4L600,459.94L640,485.3L760,553.33L800,582.51L840,611.12L880,592.9L920,570.88L960,575.46L1000,580.94L1040,579.72L1080,588.71L1120,602L1160,613.16L1200,621.18L1240,631.2L1280,631.51L1320,631.81L1360,629.67L1440,624.56" style="vector-effect: none; fill: none; stroke: rgb(211, 211, 211); stroke-opacity: 1; stroke-width: 1px; opacity: 1;"/></g><g class="points"/><g class="text"/></g><g class="trace scatter traceb63386" style="stroke-miterlimit: 2; opacity: 1;"><g class="fills"/><g class="errorbars"/><g class="lines"><path class="js-line" d="M0,50.9L40,148.35L80,114.57L120,179.23L160,134.05L200,152.15L240,189.75L280,214.21L320,239.58L360,269.94L400,296.46L440,316.72L480,338.66L520,372.43L560,397.55L600,415.71L640,435.44L680,457.81L720,479.25L760,500.92L800,525.63L840,568.01L880,557.95L920,543.97L960,544.07L1000,551.23L1040,552.42L1080,565.84L1120,580.53L1160,597.7L1200,600.97L1240,595.06L1280,600.07L1440,601.19" style="vector-effect: none; fill: none; stroke: rgb(211, 211, 211); stroke-opacity: 1; stroke-width: 1px; opacity: 1;"/></g><g class="points"/><g class="text"/></g><g class="trace scatter trace4129d8" style="stroke-miterlimit: 2; opacity: 1;"><g class="fills"/><g class="errorbars"/><g class="lines"><path class="js-line" d="M0,50.9L40,148.35L80,114.57L120,179.25L160,133.92L200,152.08L240,189.97L280,203.93L320,223.75L360,248.93L400,269.31L440,294.34L480,315.93L520,346.84L560,375.27L600,388.83L640,401.59L680,416.81L720,431.11L760,445.87L800,462.85L840,481.65L880,470.89L920,470.14L960,499.75L1000,510.96L1040,510.73L1080,526.69L1120,545.83L1160,557.39L1200,567.41L1280,570.64L1320,570.92L1440,571.72" style="vector-effect: none; fill: none; stroke: rgb(211, 211, 211); stroke-opacity: 1; stroke-width: 1px; opacity: 1;"/></g><g class="points"/><g class="text"/></g><g class="trace scatter traceb2629a" style="stroke-miterlimit: 2; opacity: 1;"><g class="fills"/><g class="errorbars"/><g class="lines"><path class="js-line" d="M0,50.9L40,148.35L80,114.57L120,179.25L160,133.93L200,152.1L240,190.13L280,203.1L320,217.81L360,237.45L400,252.16L440,269.82L480,292.4L520,327.01L560,348.14L600,359.44L640,369.49L680,381.87L720,393.41L800,416.59L840,431.83L880,414.31L920,407.3L960,427.95L1000,440.97L1040,439.75L1080,455.55L1120,489.19L1160,513.67L1200,525.46L1240,534.52L1440,535.88" style="vector-effect: none; fill: none; stroke: rgb(211, 211, 211); stroke-opacity: 1; stroke-width: 1px; opacity: 1;"/></g><g class="points"/><g class="text"/></g><g class="trace scatter traceb6f854" style="stroke-miterlimit: 2; opacity: 1;"><g class="fills"/><g class="errorbars"/><g class="lines"><path class="js-line" d="M0,50.9L40,148.32L80,114.64L120,179.38L160,134.16L200,152.37L240,185.38L280,193.59L320,205.47L360,217.93L400,227.44L440,239.81L480,255L560,308.8L600,318.61L640,325.17L680,333.17L720,343.88L760,353.7L800,362.65L840,380.05L880,356.21L920,341.63L960,360.44L1000,367.18L1040,355.21L1080,361.05L1120,383.22L1160,393.63L1200,401.75L1240,411.02L1280,416.22L1320,410.77L1360,410.09L1400,407.27L1440,405.35" style="vector-effect: none; fill: none; stroke: rgb(211, 211, 211); stroke-opacity: 1; stroke-width: 1px; opacity: 1;"/></g><g class="points"/><g class="text"/></g><g class="trace scatter trace85fb55" style="stroke-miterlimit: 2; opacity: 1;"><g class="fills"/><g class="errorbars"/><g class="lines"><path class="js-line" d="M0,50.9L40,148.35L80,114.41L120,179.05L160,133.64L200,151.77L240,196.77L280,215.16L320,232.36L360,251.09L400,267.04L440,281.09L480,301.4L520,332.44L560,359.76L600,372.73L640,384.55L680,400.89L720,413.38L760,427.75L800,443.48L840,461.11L880,447.46L920,444.24L960,472.64L1000,491.13L1040,491.74L1120,529.4L1160,547.7L1240,582.09L1280,589.56L1320,588.75L1360,589.83L1440,592.86" style="vector-effect: none; fill: none; stroke: rgb(211, 211, 211); stroke-opacity: 1; stroke-width: 1px; opacity: 1;"/></g><g class="points"/><g class="text"/></g><g class="trace scatter trace30988d" style="stroke-miterlimit: 2; opacity: 1;"><g class="fills"/><g class="errorbars"/><g class="lines"><path class="js-line" d="M0,50.9L40,148.34L80,114.56L120,179.25L160,133.96L200,152.14L240,190.22L360,230.43L400,240.84L440,252.44L480,269.05L520,295.65L560,321.23L600,335.4L640,343.83L680,354.96L720,365.13L760,375.4L800,387.18L840,407.01L880,388.15L920,378.44L960,401.55L1000,412.98L1040,406.79L1080,419.28L1120,439.15L1160,453.69L1200,466.2L1240,479.15L1280,486.05L1320,482.38L1360,482.95L1440,482.71" style="vector-effect: none; fill: none; stroke: rgb(211, 211, 211); stroke-opacity: 1; stroke-width: 1px; opacity: 1;"/></g><g class="points"/><g class="text"/></g><g class="trace scatter trace1c54d7" style="stroke-miterlimit: 2; opacity: 1;"><g class="fills"/><g class="errorbars"/><g class="lines"><path class="js-line" d="M0,50L40,146.93L80,111.79L120,175.47L160,130.46L200,147.2L240,184.38L280,196.73L320,200.84L360,207.46L400,220.8L440,220.86L480,229.08L520,244.06L560,256.11L600,262.69L640,274.03L680,282.74L720,280.23L760,277.2L800,272.41L840,270.22L880,236.71L920,209.17L960,212.04L1000,212.76L1040,200.93L1080,207.93L1120,240.36L1240,332.35L1280,350.53L1320,359.55L1360,376.22L1400,392.56L1440,412.94" style="vector-effect: none; fill: none; stroke: rgb(211, 211, 211); stroke-opacity: 1; stroke-width: 1px; opacity: 1;"/></g><g class="points"/><g class="text"/></g><g class="trace scatter tracee1e045" style="stroke-miterlimit: 2; opacity: 1;"><g class="fills"/><g class="errorbars"/><g class="lines"><path class="js-line" d="M0,50L40,146.94L80,111.79L120,175.47L160,130.46L200,147.15L240,186.39L280,191.65L320,195.89L360,204.11L400,218.8L440,223.25L480,234.5L520,250.21L560,263.12L600,270.62L640,276.15L680,280.52L720,282.14L760,281.49L800,279.01L840,278.02L880,242.55L920,215.52L960,218.84L1000,222.7L1040,209.2L1080,218.29L1120,253.18L1160,285.9L1200,314.57L1240,343.61L1280,365.68L1320,376.48L1360,395.64L1400,417.12L1440,427.97" style="vector-effect: none; fill: none; stroke: rgb(211, 211, 211); stroke-opacity: 1; stroke-width: 1px; opacity: 1;"/></g><g class="points"/><g class="text"/></g><g class="trace scatter tracee256b2" style="stroke-miterlimit: 2; opacity: 1;"><g class="fills"/><g class="errorbars"/><g class="lines"><path class="js-line" d="M0,50L40,146.94L80,111.79L120,175.47L160,130.46L200,147.15L240,184.34L280,191.16L320,195.56L360,203.73L400,218.67L440,221.27L480,232.74L520,248.17L560,260.5L600,267.76L640,279.97L680,285.44L720,283.22L760,280.61L800,276.43L840,276.33L880,242.43L920,215.3L960,218.93L1000,222.48L1040,210.14L1080,217.78L1120,252.66L1200,318.56L1240,344.5L1280,366.69L1320,377.91L1360,397.6L1400,419.47L1440,428.33" style="vector-effect: none; fill: none; stroke: rgb(211, 211, 211); stroke-opacity: 1; stroke-width: 1px; opacity: 1;"/></g><g class="points"/><g class="text"/></g><g class="trace scatter tracef3776a" style="stroke-miterlimit: 2; opacity: 1;"><g class="fills"/><g class="errorbars"/><g class="lines"><path class="js-line" d="M0,50L40,146.94L80,111.84L120,175.6L160,130.51L200,147.46L240,179.44L280,187.65L320,190.11L360,196.61L400,208.25L440,208.38L480,217.26L520,230L560,241.21L600,248.3L640,258.3L680,260.62L720,254.97L760,249.02L800,241.36L840,237.19L880,198.29L920,166.38L960,165.71L1000,163.54L1040,149.66L1080,153.53L1120,183.72L1160,211.48L1200,234.14L1240,255.83L1280,274.28L1320,279.85L1360,295.34L1400,313.46L1440,332.49" style="vector-effect: none; fill: none; stroke: rgb(211, 211, 211); stroke-opacity: 1; stroke-width: 1px; opacity: 1;"/></g><g class="points"/><g class="text"/></g><g class="trace scatter trace1ce07b" style="stroke-miterlimit: 2; opacity: 1;"><g class="fills"/><g class="errorbars"/><g class="lines"><path class="js-line" d="M0,51.39L40,148.33L80,112.73L120,181.53L160,142.42L200,141.89L240,181.05L280,191.86L320,197.15L400,213.89L440,221.78L480,228.89L520,247.19L560,259.67L600,270.47L640,267.75L680,274.52L720,278.58L760,279.96L800,280.02L840,278.17L880,252.88L920,236.36L960,246.08L1000,253.97L1040,254.17L1080,274.01L1120,274.96L1160,346.65L1200,378.11L1240,402.48L1280,424.73L1320,444.49L1360,462.55L1400,467.94L1440,473.67" style="vector-effect: none; fill: none; stroke: rgb(211, 211, 211); stroke-opacity: 1; stroke-width: 1px; opacity: 1;"/></g><g class="points"/><g class="text"/></g><g class="trace scatter trace84c38c" style="stroke-miterlimit: 2; opacity: 1;"><g class="fills"/><g class="errorbars"/><g class="lines"><path class="js-line" d="M0,50L40,146.93L80,111.79L120,175.47L160,130.46L200,147.2L240,184.37L280,196.73L320,200.83L360,207.46L400,220.81L440,220.87L480,229.08L520,244.08L560,256.13L600,262.73L640,274.05L680,282.77L720,280.26L760,277.21L800,272.42L840,270.26L880,236.71L920,209.18L960,212.05L1000,212.77L1040,200.98L1080,207.85L1120,240.16L1240,331.94L1280,349.93L1320,359.08L1360,375.76L1400,392.11L1440,412.47" style="vector-effect: none; fill: none; stroke: rgb(211, 211, 211); stroke-opacity: 1; stroke-width: 1px; opacity: 1;"/></g><g class="points"/><g class="text"/></g><g class="trace scatter traceaa3fce" style="stroke-miterlimit: 2; opacity: 1;"><g class="fills"/><g class="errorbars"/><g class="lines"><path class="js-line" d="M0,50L40,146.93L80,111.79L120,175.47L160,130.46L200,147.2L240,184.37L280,196.73L320,200.83L360,207.46L400,220.81L440,220.87L480,229.08L520,244.08L560,256.13L600,262.73L640,274.05L680,282.76L720,280.25L760,277.21L800,272.41L840,270.26L880,236.71L920,209.18L960,212.05L1000,212.77L1040,200.98L1080,207.85L1120,240.16L1240,331.94L1280,349.93L1320,359.08L1360,375.76L1400,392.11L1440,412.47" style="vector-effect: none; fill: none; stroke: rgb(211, 211, 211); stroke-opacity: 1; stroke-width: 1px; opacity: 1;"/></g><g class="points"/><g class="text"/></g><g class="trace scatter trace0c5942" style="stroke-miterlimit: 2; opacity: 1;"><g class="fills"/><g class="errorbars"/><g class="lines"><path class="js-line" d="M0,50.83L40,148.24L80,115.34L120,179.14L160,133.74L200,153.43L240,192.35L280,244.98L320,310.7L360,342.31L400,394.95L440,426.71L480,452.41L520,490.24L560,530.76L600,560.21L640,584.26L680,610.94L720,636.24L800,692.38L840,704.21L880,676.69L920,656.05L960,661.46L1000,665.36L1080,662.73L1120,661.04L1240,656.61L1280,656.91L1440,655.14" style="vector-effect: none; fill: none; stroke: rgb(211, 211, 211); stroke-opacity: 1; stroke-width: 1px; opacity: 1;"/></g><g class="points"/><g class="text"/></g><g class="trace scatter tracee71b1f" style="stroke-miterlimit: 2; opacity: 1;"><g class="fills"/><g class="errorbars"/><g class="lines"><path class="js-line" d="M0,50.77L40,148.24L80,114.44L120,179.09L160,133.76L200,152.7L240,191.36L280,216.87L320,290.41L360,319.42L400,349.5L480,406.62L520,438.32L560,470.6L600,518.66L640,543.42L680,585.33L720,606.52L760,629.93L800,656.78L840,680.27L920,637.49L960,641.03L1000,642.73L1040,641.55L1200,636.33L1240,634.87L1320,635.45L1360,634.84L1440,632.7" style="vector-effect: none; fill: none; stroke: rgb(211, 211, 211); stroke-opacity: 1; stroke-width: 1px; opacity: 1;"/></g><g class="points"/><g class="text"/></g><g class="trace scatter traced47a3c" style="stroke-miterlimit: 2; opacity: 1;"><g class="fills"/><g class="errorbars"/><g class="lines"><path class="js-line" d="M0,50.77L40,148.23L80,114.43L120,179.1L160,133.82L200,151.86L240,189.75L280,202.46L320,226.36L360,252.15L400,281.09L440,315.06L480,354.9L520,415.97L560,447.16L600,481.15L640,504.96L760,568.6L800,593.23L840,619.57L880,608.19L920,604.39L960,616.26L1000,622.59L1040,624.55L1200,619.39L1240,617.96L1440,619.37" style="vector-effect: none; fill: none; stroke: rgb(211, 211, 211); stroke-opacity: 1; stroke-width: 1px; opacity: 1;"/></g><g class="points"/><g class="text"/></g><g class="trace scatter trace922d19" style="stroke-miterlimit: 2; opacity: 1;"><g class="fills"/><g class="errorbars"/><g class="lines"><path class="js-line" d="M0,50.76L40,148.22L80,114.43L120,179.1L160,133.81L200,151.79L240,189.55L280,200.5L320,223.86L360,247.93L400,275.15L480,333.5L520,371.03L560,402.41L600,425.75L640,445.94L680,467.46L720,489.47L760,525.09L800,547.58L840,573.31L880,556.75L920,543L960,549.38L1000,554.13L1040,560.41L1080,570.64L1120,583.82L1160,594.12L1200,592.79L1240,587.76L1280,591L1320,592.11L1440,592.93" style="vector-effect: none; fill: none; stroke: rgb(211, 211, 211); stroke-opacity: 1; stroke-width: 1px; opacity: 1;"/></g><g class="points"/><g class="text"/></g><g class="trace scatter tracef64e24" style="stroke-miterlimit: 2; opacity: 1;"><g class="fills"/><g class="errorbars"/><g class="lines"><path class="js-line" d="M0,50.76L40,148.21L80,114.25L120,178.89L160,133.48L200,151.4L240,196.08L280,206.49L320,234.26L360,260.8L400,291.35L440,317.92L480,347.57L520,385.68L560,416.83L600,445.77L640,468.1L680,495.08L720,519.37L800,563.56L840,582.05L880,565.64L920,555.44L960,574.52L1000,588.85L1040,589.25L1080,601.78L1120,625.99L1160,646.66L1240,679.97L1280,685.46L1360,682.98L1400,679.42L1440,675.13" style="vector-effect: none; fill: none; stroke: rgb(211, 211, 211); stroke-opacity: 1; stroke-width: 1px; opacity: 1;"/></g><g class="points"/><g class="text"/></g><g class="trace scatter tracea0a71f" style="stroke-miterlimit: 2; opacity: 1;"><g class="fills"/><g class="errorbars"/><g class="lines"><path class="js-line" d="M0,50.76L40,148.19L80,114.39L120,179.1L160,133.81L200,151.78L240,189.53L280,195.16L320,217.73L360,237.54L400,259.27L440,282.93L480,307.67L520,342.42L560,369.85L600,392.06L640,408.46L680,426.84L720,443.86L760,457.33L800,469.64L840,476.14L880,448.98L920,430.36L960,437.17L1000,441.57L1040,430.93L1080,437.13L1120,455.36L1160,468.95L1200,481.25L1240,493.55L1280,501.69L1320,496.53L1360,495.46L1440,494.5" style="vector-effect: none; fill: none; stroke: rgb(211, 211, 211); stroke-opacity: 1; stroke-width: 1px; opacity: 1;"/></g><g class="points"/><g class="text"/></g></g></g></g><path class="xlines-above crisp" d="M79,1080.5H1521M79,79.5H1521" style="fill: none; stroke-width: 1px; stroke: rgb(0, 0, 0); stroke-opacity: 1;"/><path class="ylines-above crisp" d="M79.5,80V1080M1520.5,80V1080" style="fill: none; stroke-width: 1px; stroke: rgb(0, 0, 0); stroke-opacity: 1;"/><g class="overlines-above"/><g class="xaxislayer-above"><path class="xtick ticks crisp" d="M0,1081v5" transform="translate(120,0)" style="stroke: rgb(68, 68, 68); stroke-opacity: 1; stroke-width: 1px;"/><path class="xtick ticks crisp" d="M0,1081v5" transform="translate(320,0)" style="stroke: rgb(68, 68, 68); stroke-opacity: 1; stroke-width: 1px;"/><path class="xtick ticks crisp" d="M0,1081v5" transform="translate(520,0)" style="stroke: rgb(68, 68, 68); stroke-opacity: 1; stroke-width: 1px;"/><path class="xtick ticks crisp" d="M0,1081v5" transform="translate(720,0)" style="stroke: rgb(68, 68, 68); stroke-opacity: 1; stroke-width: 1px;"/><path class="xtick ticks crisp" d="M0,1081v5" transform="translate(920,0)" style="stroke: rgb(68, 68, 68); stroke-opacity: 1; stroke-width: 1px;"/><path class="xtick ticks crisp" d="M0,1081v5" transform="translate(1120,0)" style="stroke: rgb(68, 68, 68); stroke-opacity: 1; stroke-width: 1px;"/><path class="xtick ticks crisp" d="M0,1081v5" transform="translate(1320,0)" style="stroke: rgb(68, 68, 68); stroke-opacity: 1; stroke-width: 1px;"/><path class="xtick ticks crisp" d="M0,1081v5" transform="translate(1520,0)" style="stroke: rgb(68, 68, 68); stroke-opacity: 1; stroke-width: 1px;"/><g class="xtick"><text text-anchor="middle" x="0" y="1102.8" transform="translate(120,0)" style="font-family: Arial; font-size: 14px; fill: rgb(36, 36, 36); fill-opacity: 1; white-space: pre; opacity: 1;">2020</text></g><g class="xtick"><text text-anchor="middle" x="0" y="1102.8" style="font-family: Arial; font-size: 14px; fill: rgb(36, 36, 36); fill-opacity: 1; white-space: pre; opacity: 1;" transform="translate(320,0)">2025</text></g><g class="xtick"><text text-anchor="middle" x="0" y="1102.8" style="font-family: Arial; font-size: 14px; fill: rgb(36, 36, 36); fill-opacity: 1; white-space: pre; opacity: 1;" transform="translate(520,0)">2030</text></g><g class="xtick"><text text-anchor="middle" x="0" y="1102.8" style="font-family: Arial; font-size: 14px; fill: rgb(36, 36, 36); fill-opacity: 1; white-space: pre; opacity: 1;" transform="translate(720,0)">2035</text></g><g class="xtick"><text text-anchor="middle" x="0" y="1102.8" style="font-family: Arial; font-size: 14px; fill: rgb(36, 36, 36); fill-opacity: 1; white-space: pre; opacity: 1;" transform="translate(920,0)">2040</text></g><g class="xtick"><text text-anchor="middle" x="0" y="1102.8" style="font-family: Arial; font-size: 14px; fill: rgb(36, 36, 36); fill-opacity: 1; white-space: pre; opacity: 1;" transform="translate(1120,0)">2045</text></g><g class="xtick"><text text-anchor="middle" x="0" y="1102.8" style="font-family: Arial; font-size: 14px; fill: rgb(36, 36, 36); fill-opacity: 1; white-space: pre; opacity: 1;" transform="translate(1320,0)">2050</text></g><g class="xtick"><text text-anchor="middle" x="0" y="1102.8" style="font-family: Arial; font-size: 14px; fill: rgb(36, 36, 36); fill-opacity: 1; white-space: pre; opacity: 1;" transform="translate(1520,0)">2055</text></g></g><g class="yaxislayer-above"><path class="ytick ticks crisp" d="M79,0h-5" transform="translate(0,1080)" style="stroke: rgb(68, 68, 68); stroke-opacity: 1; stroke-width: 1px;"/><path class="ytick ticks crisp" d="M79,0h-5" transform="translate(0,886.62)" style="stroke: rgb(68, 68, 68); stroke-opacity: 1; stroke-width: 1px;"/><path class="ytick ticks crisp" d="M79,0h-5" transform="translate(0,693.24)" style="stroke: rgb(68, 68, 68); stroke-opacity: 1; stroke-width: 1px;"/><path class="ytick ticks crisp" d="M79,0h-5" transform="translate(0,499.86)" style="stroke: rgb(68, 68, 68); stroke-opacity: 1; stroke-width: 1px;"/><path class="ytick ticks crisp" d="M79,0h-5" transform="translate(0,306.47)" style="stroke: rgb(68, 68, 68); stroke-opacity: 1; stroke-width: 1px;"/><path class="ytick ticks crisp" d="M79,0h-5" transform="translate(0,113.09)" style="stroke: rgb(68, 68, 68); stroke-opacity: 1; stroke-width: 1px;"/><g class="ytick"><text text-anchor="end" x="71.2" y="4.8999999999999995" transform="translate(0,1080)" style="font-family: Arial; font-size: 14px; fill: rgb(36, 36, 36); fill-opacity: 1; white-space: pre; opacity: 1;">0</text></g><g class="ytick"><text text-anchor="end" x="71.2" y="4.8999999999999995" style="font-family: Arial; font-size: 14px; fill: rgb(36, 36, 36); fill-opacity: 1; white-space: pre; opacity: 1;" transform="translate(0,886.62)">100k</text></g><g class="ytick"><text text-anchor="end" x="71.2" y="4.8999999999999995" style="font-family: Arial; font-size: 14px; fill: rgb(36, 36, 36); fill-opacity: 1; white-space: pre; opacity: 1;" transform="translate(0,693.24)">200k</text></g><g class="ytick"><text text-anchor="end" x="71.2" y="4.8999999999999995" style="font-family: Arial; font-size: 14px; fill: rgb(36, 36, 36); fill-opacity: 1; white-space: pre; opacity: 1;" transform="translate(0,499.86)">300k</text></g><g class="ytick"><text text-anchor="end" x="71.2" y="4.8999999999999995" style="font-family: Arial; font-size: 14px; fill: rgb(36, 36, 36); fill-opacity: 1; white-space: pre; opacity: 1;" transform="translate(0,306.47)">400k</text></g><g class="ytick"><text text-anchor="end" x="71.2" y="4.8999999999999995" style="font-family: Arial; font-size: 14px; fill: rgb(36, 36, 36); fill-opacity: 1; white-space: pre; opacity: 1;" transform="translate(0,113.09)">500k</text></g></g><g class="overaxes-above"/></g></g><g class="polarlayer"/><g class="smithlayer"/><g class="ternarylayer"/><g class="geolayer"/><g class="funnelarealayer"/><g class="pielayer"/><g class="iciclelayer"/><g class="treemaplayer"/><g class="sunburstlayer"/><g class="glimages"/><defs id="topdefs-2cda4e"><g class="clips"/></defs><g class="layer-above"><g class="imagelayer"/><g class="shapelayer"/></g><g class="infolayer"><g class="g-gtitle"/><g class="g-xtitle"><text class="xtitle" x="800" y="1132.1998046875" text-anchor="middle" style="opacity: 1; font-family: Arial; font-size: 17px; fill: rgb(36, 36, 36); fill-opacity: 1; white-space: pre;">Year</text></g><g class="g-ytitle"><text class="ytitle" transform="rotate(-90,20.390820312499997,580)" x="20.390820312499997" y="580" text-anchor="middle" style="opacity: 1; font-family: Arial; font-size: 17px; fill: rgb(36, 36, 36); fill-opacity: 1; white-space: pre;">COeq (kt)</text></g></g></svg>