<svg class="main-svg" xmlns="http://www.w3.org/2000/svg" xmlns:xlink="http://www.w3.org/1999/xlink" width="1600" height="1200" style="" viewBox="0 0 1600 1200"><rect x="0" y="0" width="1600" height="1200" style="fill: rgb(255, 255, 255); fill-opacity: 1;"/><defs id="defs-677316"><g class="clips"><clipPath id="clip677316xyplot" class="plotclip"><rect width="1440" height="980"/></clipPath><clipPath class="axesclip" id="clip677316x"><rect x="80" y="0" width="1440" height="1200"/></clipPath><clipPath class="axesclip" id="clip677316y"><rect x="0" y="80" width="1600" height="980"/></clipPath><clipPath class="axesclip" id="clip677316xy"><rect x="80" y="80" width="1440" height="980"/></clipPath></g><g class="gradients"/><g class="patterns"/></defs><g class="bglayer"/><g class="layer-below"><g class="imagelayer"/><g class="shapelayer"><g class="shape-group" data-index="0"><path data-index="0" fill-rule="evenodd" d="M80,1256H1520V1060H80Z" style="opacity: 0.3; stroke: rgb(0, 0, 0); stroke-opacity: 0; fill: rgb(255, 255, 255); fill-opacity: 1; stroke-width: 0px;"/></g></g></g><g class="cartesianlayer"><g class="subplot xy"><g class="layer-subplot"><g class="shapelayer"/><g class="imagelayer"/></g><g class="minor-gridlayer"><g class="x"/><g class="y"/></g><g class="gridlayer"><g class="x"><path class="xgrid crisp" transform="translate(120,0)" d="M0,80v980" style="stroke: rgb(211, 211, 211); stroke-opacity: 1; stroke-width: 1px;"/><path class="xgrid crisp" transform="translate(320,0)" d="M0,80v980" style="stroke: rgb(211, 211, 211); stroke-opacity: 1; stroke-width: 1px;"/><path class="xgrid crisp" transform="translate(520,0)" d="M0,80v980" style="stroke: rgb(211, 211, 211); stroke-opacity: 1; stroke-width: 1px;"/><path class="xgrid crisp" transform="translate(720,0)" d="M0,80v980" style="stroke: rgb(211, 211, 211); stroke-opacity: 1; stroke-width: 1px;"/><path class="xgrid crisp" transform="translate(920,0)" d="M0,80v980" style="stroke: rgb(211, 211, 211); stroke-opacity: 1; stroke-width: 1px;"/><path class="xgrid crisp" transform="translate(1120,0)" d="M0,80v980" style="stroke: rgb(211, 211, 211); stroke-opacity: 1; stroke-width: 1px;"/><path class="xgrid crisp" transform="translate(1320,0)" d="M0,80v980" style="stroke: rgb(211, 211, 211); stroke-opacity: 1; stroke-width: 1px;"/></g><g class="y"><path class="ygrid crisp" transform="translate(0,870.49)" d="M80,0h1440" style="stroke: rgb(211, 211, 211); stroke-opacity: 1; stroke-width: 1px;"/><path class="ygrid crisp" transform="translate(0,680.97)" d="M80,0h1440" style="stroke: rgb(211, 211, 211); stroke-opacity: 1; stroke-width: 1px;"/><path class="ygrid crisp" transform="translate(0,491.46)" d="M80,0h1440" style="stroke: rgb(211, 211, 211); stroke-opacity: 1; stroke-width: 1px;"/><path class="ygrid crisp" transform="translate(0,301.94)" d="M80,0h1440" style="stroke: rgb(211, 211, 211); stroke-opacity: 1; stroke-width: 1px;"/><path class="ygrid crisp" transform="translate(0,112.43)" d="M80,0h1440" style="stroke: rgb(211, 211, 211); stroke-opacity: 1; stroke-width: 1px;"/></g></g><g class="zerolinelayer"/><g class="layer-between"><g class="shapelayer"/><g class="imagelayer"/></g><path class="xlines-below"/><path class="ylines-below"/><g class="overlines-below"/><g class="xaxislayer-below"/><g class="yaxislayer-below"/><g class="overaxes-below"/><g class="overplot"><g class="xy" transform="translate(80,80)" clip-path="url(#clip677316xyplot)"><g class="scatterlayer mlayer"><g class="trace scatter tracee023cc" style="stroke-miterlimit: 2; opacity: 1;"><g class="fills"><g><path class="js-fill" d="M0,50.93L40,146.15L80,112.27L120,179.23L160,140.75L200,149.49L240,186.36L280,207.97L320,242.13L360,289.92L400,326.15L440,345.61L480,393.43L520,427.82L560,483.81L600,517L640,541.7L680,565.14L720,587.28L760,611.82L800,642.87L840,668.39L880,641.26L920,619.11L960,621.68L1000,621.34L1040,624.57L1080,660.65L1120,678.01L1160,694.65L1200,705.54L1240,739.4L1280,742.37L1440,741.65L1440,309.74L1400,314.77L1360,318.98L1320,323.22L1280,326.69L1240,328.3L1200,315.77L1160,302.73L1120,277.19L1080,274.95L1040,282.15L1000,291.67L960,285.99L920,275.62L880,297.4L840,325.53L800,308.29L720,296.42L680,291.38L640,284.88L600,280.13L560,265.82L520,244.52L480,225.37L440,214.22L400,203.25L360,200.33L320,189.79L280,181.28L240,173.85L200,141.81L160,127.6L120,172.11L80,110.06L40,144.75L0,49.55Z" style="fill: rgb(0, 0, 255); fill-opacity: 0.2; stroke-width: 0;"/></g></g><g class="errorbars"/><g class="lines"><path class="js-line" d="M0,50.93L40,146.15L80,112.27L120,179.23L160,140.75L200,149.49L240,186.36L280,207.97L320,242.13L360,289.92L400,326.15L440,345.61L480,393.43L520,427.82L560,483.81L600,517L640,541.7L680,565.14L720,587.28L760,611.82L800,642.87L840,668.39L880,641.26L920,619.11L960,621.68L1000,621.34L1040,624.57L1080,660.65L1120,678.01L1160,694.65L1200,705.54L1240,739.4L1280,742.37L1440,741.65L1440,309.74L1400,314.77L1360,318.98L1320,323.22L1280,326.69L1240,328.3L1200,315.77L1160,302.73L1120,277.19L1080,274.95L1040,282.15L1000,291.67L960,285.99L920,275.62L880,297.4L840,325.53L800,308.29L720,296.42L680,291.38L640,284.88L600,280.13L560,265.82L520,244.52L480,225.37L440,214.22L400,203.25L360,200.33L320,189.79L280,181.28L240,173.85L200,141.81L160,127.6L120,172.11L80,110.06L40,144.75L0,49.55" style="vector-effect: none; fill: none; stroke: rgb(255, 255, 255); stroke-opacity: 0; stroke-width: 2px; opacity: 1;"/></g><g class="points"/><g class="text"/></g><g class="trace scatter trace6c0549" style="stroke-miterlimit: 2; opacity: 1;"><g class="fills"/><g class="errorbars"/><g class="lines"><path class="js-line" d="M0,49.78L40,145.01L80,110.84L120,174.22L160,130.92L200,145.54L240,179.41L280,195.06L320,212.07L360,230.07L400,242.95L440,259.66L480,279.13L520,304.78L560,328.55L600,343.25L640,354.19L680,367.36L720,382.2L760,394.97L800,409.32L840,430.03L880,411.22L920,398.58L960,415.29L1000,424.92L1040,421.01L1080,430.01L1120,448.28L1160,468.71L1200,481.51L1240,492.01L1280,494.78L1320,493.56L1360,493.16L1440,491.58" style="vector-effect: none; fill: none; stroke: rgb(0, 0, 255); stroke-opacity: 1; stroke-width: 2px; opacity: 1;"/></g><g class="points"/><g class="text"/></g><g class="trace scatter trace0acbf9" style="stroke-miterlimit: 2; opacity: 1;"><g class="fills"><g><path class="js-fill" d="M0,51.3L40,146.8L80,114.72L120,179.87L160,143.67L200,155.58L240,218.69L280,247.89L320,286.51L360,329.46L400,366.26L440,389.1L480,409.05L560,475.44L600,520.78L640,553.99L680,584.7L720,609.79L760,653.1L800,679.13L840,689.76L880,663.12L920,647.76L960,659.2L1000,668.41L1040,671.98L1080,680.56L1120,693.09L1160,709.07L1200,722.25L1240,745.52L1280,746.88L1320,746.82L1440,746.44L1440,397.25L1400,399.13L1360,401.89L1320,402.56L1280,407.9L1240,402.8L1200,393.71L1160,385.48L1120,374.97L1080,353.51L1040,337.64L1000,341.31L960,335.3L920,315.98L880,325.11L840,340.73L800,325.72L760,308.79L720,297.02L680,285.13L640,276.95L600,275.61L560,269.93L520,259.7L480,237.15L440,226.12L400,217.74L360,209.79L320,199.25L280,185.55L240,180.32L200,148.4L160,130.88L120,175.37L80,112.04L40,145.34L0,49.82Z" style="fill: rgb(255, 255, 0); fill-opacity: 0.2; stroke-width: 0;"/></g></g><g class="errorbars"/><g class="lines"><path class="js-line" d="M0,51.3L40,146.8L80,114.72L120,179.87L160,143.67L200,155.58L240,218.69L280,247.89L320,286.51L360,329.46L400,366.26L440,389.1L480,409.05L560,475.44L600,520.78L640,553.99L680,584.7L720,609.79L760,653.1L800,679.13L840,689.76L880,663.12L920,647.76L960,659.2L1000,668.41L1040,671.98L1080,680.56L1120,693.09L1160,709.07L1200,722.25L1240,745.52L1280,746.88L1320,746.82L1440,746.44L1440,397.25L1400,399.13L1360,401.89L1320,402.56L1280,407.9L1240,402.8L1200,393.71L1160,385.48L1120,374.97L1080,353.51L1040,337.64L1000,341.31L960,335.3L920,315.98L880,325.11L840,340.73L800,325.72L760,308.79L720,297.02L680,285.13L640,276.95L600,275.61L560,269.93L520,259.7L480,237.15L440,226.12L400,217.74L360,209.79L320,199.25L280,185.55L240,180.32L200,148.4L160,130.88L120,175.37L80,112.04L40,145.34L0,49.82" style="vector-effect: none; fill: none; stroke: rgb(255, 255, 255); stroke-opacity: 0; stroke-width: 2px; opacity: 1;"/></g><g class="points"/><g class="text"/></g><g class="trace scatter tracef3cd69" style="stroke-miterlimit: 2; opacity: 1;"><g class="fills"/><g class="errorbars"/><g class="lines"><path class="js-line" d="M0,50.23L40,145.72L80,112.78L120,176.74L160,134.19L200,150.21L240,190.79L280,210.03L320,236.6L360,261.07L400,283.39L480,324L520,354.76L560,380.9L600,403.27L720,457.51L760,481.91L800,501.22L840,519.58L880,503.64L920,489.41L960,500.73L1000,507.15L1040,504.71L1080,514.12L1120,528.8L1160,541.41L1240,560.32L1280,561.97L1320,559.55L1360,558.76L1440,556.9" style="vector-effect: none; fill: none; stroke: rgb(255, 165, 0); stroke-opacity: 1; stroke-width: 2px; opacity: 1;"/></g><g class="points"/><g class="text"/></g><g class="trace scatter trace1967a7" style="stroke-miterlimit: 2; opacity: 1;"><g class="fills"><g><path class="js-fill" d="M0,50.37L40,145.36L80,110.48L120,177.89L160,139.57L200,144.52L240,182.66L280,192.8L320,196.82L360,203.31L400,216.39L440,218.78L480,229.81L520,245.2L560,257.86L600,265.21L640,274.37L680,279.73L720,277.55L840,272.61L880,247.82L920,231.63L960,241.16L1000,248.89L1040,249.09L1080,268.53L1120,269.46L1160,339.71L1200,370.55L1240,394.43L1280,416.24L1320,435.6L1360,453.3L1440,464.2L1440,325.84L1400,307.19L1360,289.43L1320,274.25L1280,268.79L1240,250.72L1200,229.46L1160,207.25L1120,180.04L1080,150.46L1040,146.67L1000,160.27L960,162.39L920,163.05L880,194.32L840,232.44L800,236.54L760,244.04L720,249.87L680,255.4L640,253.14L600,243.33L560,236.38L520,225.4L480,212.92L440,204.22L400,204.08L360,192.68L320,186.31L280,183.9L240,175.85L200,139.06L160,127.85L120,171.96L80,109.56L40,143.99L0,49Z" style="fill: rgb(255, 0, 0); fill-opacity: 0.2; stroke-width: 0;"/></g></g><g class="errorbars"/><g class="lines"><path class="js-line" d="M0,50.37L40,145.36L80,110.48L120,177.89L160,139.57L200,144.52L240,182.66L280,192.8L320,196.82L360,203.31L400,216.39L440,218.78L480,229.81L520,245.2L560,257.86L600,265.21L640,274.37L680,279.73L720,277.55L840,272.61L880,247.82L920,231.63L960,241.16L1000,248.89L1040,249.09L1080,268.53L1120,269.46L1160,339.71L1200,370.55L1240,394.43L1280,416.24L1320,435.6L1360,453.3L1440,464.2L1440,325.84L1400,307.19L1360,289.43L1320,274.25L1280,268.79L1240,250.72L1200,229.46L1160,207.25L1120,180.04L1080,150.46L1040,146.67L1000,160.27L960,162.39L920,163.05L880,194.32L840,232.44L800,236.54L760,244.04L720,249.87L680,255.4L640,253.14L600,243.33L560,236.38L520,225.4L480,212.92L440,204.22L400,204.08L360,192.68L320,186.31L280,183.9L240,175.85L200,139.06L160,127.85L120,171.96L80,109.56L40,143.99L0,49" style="vector-effect: none; fill: none; stroke: rgb(255, 255, 255); stroke-opacity: 0; stroke-width: 2px; opacity: 1;"/></g><g class="points"/><g class="text"/></g><g class="trace scatter trace6a9f27" style="stroke-miterlimit: 2; opacity: 1;"><g class="fills"/><g class="errorbars"/><g class="lines"><path class="js-line" d="M0,49.2L40,144.19L80,109.69L120,172.83L160,129.53L200,143.54L240,179.81L280,189.35L320,193.37L360,200.57L400,213.08L440,215.22L480,224.09L520,239.09L560,251L600,258.34L640,266.6L680,272.91L720,271.55L760,269.18L800,265.17L840,263.26L880,230.48L920,204.55L960,208L1000,210.14L1040,199.65L1080,208.21L1120,235.93L1160,271.83L1200,301.03L1240,327.97L1280,347.45L1320,357.9L1360,375.04L1400,391.27L1440,406.05" style="vector-effect: none; fill: none; stroke: rgb(255, 0, 0); stroke-opacity: 1; stroke-width: 2px; opacity: 1;"/></g><g class="points"/><g class="text"/></g></g></g></g><path class="xlines-above crisp" d="M79,1060.5H1521M79,79.5H1521" style="fill: none; stroke-width: 1px; stroke: rgb(0, 0, 0); stroke-opacity: 1;"/><path class="ylines-above crisp" d="M79.5,80V1060M1520.5,80V1060" style="fill: none; stroke-width: 1px; stroke: rgb(0, 0, 0); stroke-opacity: 1;"/><g class="overlines-above"/><g class="xaxislayer-above"><path class="xtick ticks crisp" d="M0,1061v5" transform="translate(120,0)" style="stroke: rgb(68, 68, 68); stroke-opacity: 1; stroke-width: 1px;"/><path class="xtick ticks crisp" d="M0,1061v5" transform="translate(320,0)" style="stroke: rgb(68, 68, 68); stroke-opacity: 1; stroke-width: 1px;"/><path class="xtick ticks crisp" d="M0,1061v5" transform="translate(520,0)" style="stroke: rgb(68, 68, 68); stroke-opacity: 1; stroke-width: 1px;"/><path class="xtick ticks crisp" d="M0,1061v5" transform="translate(720,0)" style="stroke: rgb(68, 68, 68); stroke-opacity: 1; stroke-width: 1px;"/><path class="xtick ticks crisp" d="M0,1061v5" transform="translate(920,0)" style="stroke: rgb(68, 68, 68); stroke-opacity: 1; stroke-width: 1px;"/><path class="xtick ticks crisp" d="M0,1061v5" transform="translate(1120,0)" style="stroke: rgb(68, 68, 68); stroke-opacity: 1; stroke-width: 1px;"/><path class="xtick ticks crisp" d="M0,1061v5" transform="translate(1320,0)" style="stroke: rgb(68, 68, 68); stroke-opacity: 1; stroke-width: 1px;"/><path class="xtick ticks crisp" d="M0,1061v5" transform="translate(1520,0)" style="stroke: rgb(68, 68, 68); stroke-opacity: 1; stroke-width: 1px;"/><g class="xtick"><text text-anchor="middle" x="0" y="1082.8" transform="translate(120,0)" style="font-family: Arial; font-size: 14px; fill: rgb(36, 36, 36); fill-opacity: 1; white-space: pre; opacity: 1;">2020</text></g><g class="xtick"><text text-anchor="middle" x="0" y="1082.8" style="font-family: Arial; font-size: 14px; fill: rgb(36, 36, 36); fill-opacity: 1; white-space: pre; opacity: 1;" transform="translate(320,0)">2025</text></g><g class="xtick"><text text-anchor="middle" x="0" y="1082.8" style="font-family: Arial; font-size: 14px; fill: rgb(36, 36, 36); fill-opacity: 1; white-space: pre; opacity: 1;" transform="translate(520,0)">2030</text></g><g class="xtick"><text text-anchor="middle" x="0" y="1082.8" style="font-family: Arial; font-size: 14px; fill: rgb(36, 36, 36); fill-opacity: 1; white-space: pre; opacity: 1;" transform="translate(720,0)">2035</text></g><g class="xtick"><text text-anchor="middle" x="0" y="1082.8" style="font-family: Arial; font-size: 14px; fill: rgb(36, 36, 36); fill-opacity: 1; white-space: pre; opacity: 1;" transform="translate(920,0)">2040</text></g><g class="xtick"><text text-anchor="middle" x="0" y="1082.8" style="font-family: Arial; font-size: 14px; fill: rgb(36, 36, 36); fill-opacity: 1; white-space: pre; opacity: 1;" transform="translate(1120,0)">2045</text></g><g class="xtick"><text text-anchor="middle" x="0" y="1082.8" style="font-family: Arial; font-size: 14px; fill: rgb(36, 36, 36); fill-opacity: 1; white-space: pre; opacity: 1;" transform="translate(1320,0)">2050</text></g><g class="xtick"><text text-anchor="middle" x="0" y="1082.8" style="font-family: Arial; font-size: 14px; fill: rgb(36, 36, 36); fill-opacity: 1; white-space: pre; opacity: 1;" transform="translate(1520,0)">2055</text></g></g><g class="yaxislayer-above"><path class="ytick ticks crisp" d="M79,0h-5" transform="translate(0,1060)" style="stroke: rgb(68, 68, 68); stroke-opacity: 1; stroke-width: 1px;"/><path class="ytick ticks crisp" d="M79,0h-5" transform="translate(0,870.49)" style="stroke: rgb(68, 68, 68); stroke-opacity: 1; stroke-width: 1px;"/><path class="ytick ticks crisp" d="M79,0h-5" transform="translate(0,680.97)" style="stroke: rgb(68, 68, 68); stroke-opacity: 1; stroke-width: 1px;"/><path class="ytick ticks crisp" d="M79,0h-5" transform="translate(0,491.46)" style="stroke: rgb(68, 68, 68); stroke-opacity: 1; stroke-width: 1px;"/><path class="ytick ticks crisp" d="M79,0h-5" transform="translate(0,301.94)" style="stroke: rgb(68, 68, 68); stroke-opacity: 1; stroke-width: 1px;"/><path class="ytick ticks crisp" d="M79,0h-5" transform="translate(0,112.43)" style="stroke: rgb(68, 68, 68); stroke-opacity: 1; stroke-width: 1px;"/><g class="ytick"><text text-anchor="end" x="71.2" y="4.8999999999999995" transform="translate(0,1060)" style="font-family: Arial; font-size: 14px; fill: rgb(36, 36, 36); fill-opacity: 1; white-space: pre; opacity: 1;">0</text></g><g class="ytick"><text text-anchor="end" x="71.2" y="4.8999999999999995" style="font-family: Arial; font-size: 14px; fill: rgb(36, 36, 36); fill-opacity: 1; white-space: pre; opacity: 1;" transform="translate(0,870.49)">100k</text></g><g class="ytick"><text text-anchor="end" x="71.2" y="4.8999999999999995" style="font-family: Arial; font-size: 14px; fill: rgb(36, 36, 36); fill-opacity: 1; white-space: pre; opacity: 1;" transform="translate(0,680.97)">200k</text></g><g class="ytick"><text text-anchor="end" x="71.2" y="4.8999999999999995" style="font-family: Arial; font-size: 14px; fill: rgb(36, 36, 36); fill-opacity: 1; white-space: pre; opacity: 1;" transform="translate(0,491.46)">300k</text></g><g class="ytick"><text text-anchor="end" x="71.2" y="4.8999999999999995" style="font-family: Arial; font-size: 14px; fill: rgb(36, 36, 36); fill-opacity: 1; white-space: pre; opacity: 1;" transform="translate(0,301.94)">400k</text></g><g class="ytick"><text text-anchor="end" x="71.2" y="4.8999999999999995" style="font-family: Arial; font-size: 14px; fill: rgb(36, 36, 36); fill-opacity: 1; white-space: pre; opacity: 1;" transform="translate(0,112.43)">500k</text></g></g><g class="overaxes-above"/></g></g><g class="polarlayer"/><g class="smithlayer"/><g class="ternarylayer"/><g class="geolayer"/><g class="funnelarealayer"/><g class="pielayer"/><g class="iciclelayer"/><g class="treemaplayer"/><g class="sunburstlayer"/><g class="glimages"/><defs id="topdefs-677316"><g class="clips"/><clipPath id="legend677316"><rect width="773" height="30" x="0" y="0"/></clipPath></defs><g class="layer-above"><g class="imagelayer"/><g class="shapelayer"/></g><g class="infolayer"><g class="legend" pointer-events="all" transform="translate(413.5,1158)"><rect class="bg" shape-rendering="crispEdges" style="stroke: rgb(68, 68, 68); stroke-opacity: 1; fill: rgb(255, 255, 255); fill-opacity: 1; stroke-width: 0px;" width="773" height="30" x="0" y="0"/><g class="scrollbox" transform="" clip-path="url(#legend677316)"><g class="groups"><g class="traces" transform="translate(0,14.950000000000001)" style="opacity: 1;"><text class="legendtext" text-anchor="start" x="40" y="5.07" style="font-family: Arial; font-size: 13px; fill: rgb(36, 36, 36); fill-opacity: 1; white-space: pre;">BASE Range</text><g class="layers" style="opacity: 1;"><g class="legendfill"><path class="js-fill" d="M5,-2h30v6h-30z" style="stroke-width: 0; fill: rgb(0, 0, 255); fill-opacity: 0.2;"/></g><g class="legendlines"><path class="js-line" d="M5,-2h30" style="fill: none; stroke: rgb(255, 255, 255); stroke-opacity: 0; stroke-width: 2px;"/></g><g class="legendsymbols"><g class="legendpoints"/></g></g><rect class="legendtoggle" x="0" y="-9.950000000000001" width="119.109375" height="19.900000000000002" style="fill: rgb(0, 0, 0); fill-opacity: 0;"/></g><g class="traces" transform="translate(121.609375,14.950000000000001)" style="opacity: 1;"><text class="legendtext" text-anchor="start" x="40" y="5.07" style="font-family: Arial; font-size: 13px; fill: rgb(36, 36, 36); fill-opacity: 1; white-space: pre;">BASE Mean</text><g class="layers" style="opacity: 1;"><g class="legendfill"/><g class="legendlines"><path class="js-line" d="M5,0h30" style="fill: none; stroke: rgb(0, 0, 255); stroke-opacity: 1; stroke-width: 2px;"/></g><g class="legendsymbols"><g class="legendpoints"/></g></g><rect class="legendtoggle" x="0" y="-9.950000000000001" width="113.328125" height="19.900000000000002" style="fill: rgb(0, 0, 0); fill-opacity: 0;"/></g><g class="traces" transform="translate(237.4375,14.950000000000001)" style="opacity: 1;"><text class="legendtext" text-anchor="start" x="40" y="5.07" style="font-family: Arial; font-size: 13px; fill: rgb(36, 36, 36); fill-opacity: 1; white-space: pre;">CPP Range</text><g class="layers" style="opacity: 1;"><g class="legendfill"><path class="js-fill" d="M5,-2h30v6h-30z" style="stroke-width: 0; fill: rgb(255, 255, 0); fill-opacity: 0.2;"/></g><g class="legendlines"><path class="js-line" d="M5,-2h30" style="fill: none; stroke: rgb(255, 255, 255); stroke-opacity: 0; stroke-width: 2px;"/></g><g class="legendsymbols"><g class="legendpoints"/></g></g><rect class="legendtoggle" x="0" y="-9.950000000000001" width="110.921875" height="19.900000000000002" style="fill: rgb(0, 0, 0); fill-opacity: 0;"/></g><g class="traces" transform="translate(350.859375,14.950000000000001)" style="opacity: 1;"><text class="legendtext" text-anchor="start" x="40" y="5.07" style="font-family: Arial; font-size: 13px; fill: rgb(36, 36, 36); fill-opacity: 1; white-space: pre;">CPP Mean</text><g class="layers" style="opacity: 1;"><g class="legendfill"/><g class="legendlines"><path class="js-line" d="M5,0h30" style="fill: none; stroke: rgb(255, 165, 0); stroke-opacity: 1; stroke-width: 2px;"/></g><g class="legendsymbols"><g class="legendpoints"/></g></g><rect class="legendtoggle" x="0" y="-9.950000000000001" width="105.140625" height="19.900000000000002" style="fill: rgb(0, 0, 0); fill-opacity: 0;"/></g><g class="traces" transform="translate(458.5,14.950000000000001)" style="opacity: 1;"><text class="legendtext" text-anchor="start" x="40" y="5.07" style="font-family: Arial; font-size: 13px; fill: rgb(36, 36, 36); fill-opacity: 1; white-space: pre;">High Carbon Range</text><g class="layers" style="opacity: 1;"><g class="legendfill"><path class="js-fill" d="M5,-2h30v6h-30z" style="stroke-width: 0; fill: rgb(255, 0, 0); fill-opacity: 0.2;"/></g><g class="legendlines"><path class="js-line" d="M5,-2h30" style="fill: none; stroke: rgb(255, 255, 255); stroke-opacity: 0; stroke-width: 2px;"/></g><g class="legendsymbols"><g class="legendpoints"/></g></g><rect class="legendtoggle" x="0" y="-9.950000000000001" width="157.40625" height="19.900000000000002" style="fill: rgb(0, 0, 0); fill-opacity: 0;"/></g><g class="traces" transform="translate(618.40625,14.950000000000001)" style="opacity: 1;"><text class="legendtext" text-anchor="start" x="40" y="5.07" style="font-family: Arial; font-size: 13px; fill: rgb(36, 36, 36); fill-opacity: 1; white-space: pre;">High Carbon Mean</text><g class="layers" style="opacity: 1;"><g class="legendfill"/><g class="legendlines"><path class="js-line" d="M5,0h30" style="fill: none; stroke: rgb(255, 0, 0); stroke-opacity: 1; stroke-width: 2px;"/></g><g class="legendsymbols"><g class="legendpoints"/></g></g><rect class="legendtoggle" x="0" y="-9.950000000000001" width="151.625" height="19.900000000000002" style="fill: rgb(0, 0, 0); fill-opacity: 0;"/></g></g></g><rect class="scrollbar" rx="20" ry="3" width="0" height="0" style="fill: rgb(128, 139, 164); fill-opacity: 1;" x="0" y="0"/></g><g class="g-gtitle"><text class="gtitle" x="80" y="40" text-anchor="start" dy="0em" style="opacity: 1; font-family: Arial; font-size: 20px; fill: rgb(36, 36, 36); fill-opacity: 1; white-space: pre;">Figure 2: Range of Total CO₂ Emissions by Scenario Group (Shaded Bands)</text></g><g class="g-xtitle"><text class="xtitle" x="800" y="1112.1998046875" text-anchor="middle" style="opacity: 1; font-family: Arial; font-size: 17px; fill: rgb(36, 36, 36); fill-opacity: 1; white-space: pre;">Year</text></g><g class="g-ytitle"><text class="ytitle" transform="rotate(-90,20.390820312499997,570)" x="20.390820312499997" y="570" text-anchor="middle" style="opacity: 1; font-family: Arial; font-size: 17px; fill: rgb(36, 36, 36); fill-opacity: 1; white-space: pre;">CO₂ Emissions (kt)</text></g></g></svg>