<svg class="main-svg" xmlns="http://www.w3.org/2000/svg" xmlns:xlink="http://www.w3.org/1999/xlink" width="1600" height="1200" style="" viewBox="0 0 1600 1200"><rect x="0" y="0" width="1600" height="1200" style="fill: rgb(255, 255, 255); fill-opacity: 1;"/><defs id="defs-40d2df"><g class="clips"><clipPath id="clip40d2dfxyplot" class="plotclip"><rect width="1440" height="925"/></clipPath><clipPath class="axesclip" id="clip40d2dfx"><rect x="80" y="0" width="1440" height="1200"/></clipPath><clipPath class="axesclip" id="clip40d2dfy"><rect x="0" y="80" width="1600" height="925"/></clipPath><clipPath class="axesclip" id="clip40d2dfxy"><rect x="80" y="80" width="1440" height="925"/></clipPath></g><g class="gradients"/><g class="patterns"/></defs><g class="bglayer"/><g class="layer-below"><g class="imagelayer"/><g class="shapelayer"><g class="shape-group" data-index="0"><path data-index="0" fill-rule="evenodd" d="M80,1190H1520V1005H80Z" style="opacity: 0.3; stroke: rgb(0, 0, 0); stroke-opacity: 0; fill: rgb(255, 255, 255); fill-opacity: 1; stroke-width: 0px;"/></g></g></g><g class="cartesianlayer"><g class="subplot xy"><g class="layer-subplot"><g class="shapelayer"/><g class="imagelayer"/></g><g class="minor-gridlayer"><g class="x"/><g class="y"/></g><g class="gridlayer"><g class="x"><path class="xgrid crisp" transform="translate(120,0)" d="M0,80v925" style="stroke: rgb(211, 211, 211); stroke-opacity: 1; stroke-width: 1px;"/><path class="xgrid crisp" transform="translate(320,0)" d="M0,80v925" style="stroke: rgb(211, 211, 211); stroke-opacity: 1; stroke-width: 1px;"/><path class="xgrid crisp" transform="translate(520,0)" d="M0,80v925" style="stroke: rgb(211, 211, 211); stroke-opacity: 1; stroke-width: 1px;"/><path class="xgrid crisp" transform="translate(720,0)" d="M0,80v925" style="stroke: rgb(211, 211, 211); stroke-opacity: 1; stroke-width: 1px;"/><path class="xgrid crisp" transform="translate(920,0)" d="M0,80v925" style="stroke: rgb(211, 211, 211); stroke-opacity: 1; stroke-width: 1px;"/><path class="xgrid crisp" transform="translate(1120,0)" d="M0,80v925" style="stroke: rgb(211, 211, 211); stroke-opacity: 1; stroke-width: 1px;"/><path class="xgrid crisp" transform="translate(1320,0)" d="M0,80v925" style="stroke: rgb(211, 211, 211); stroke-opacity: 1; stroke-width: 1px;"/></g><g class="y"><path class="ygrid crisp" transform="translate(0,826.02)" d="M80,0h1440" style="stroke: rgb(211, 211, 211); stroke-opacity: 1; stroke-width: 1px;"/><path class="ygrid crisp" transform="translate(0,647.03)" d="M80,0h1440" style="stroke: rgb(211, 211, 211); stroke-opacity: 1; stroke-width: 1px;"/><path class="ygrid crisp" transform="translate(0,468.05)" d="M80,0h1440" style="stroke: rgb(211, 211, 211); stroke-opacity: 1; stroke-width: 1px;"/><path class="ygrid crisp" transform="translate(0,289.07)" d="M80,0h1440" style="stroke: rgb(211, 211, 211); stroke-opacity: 1; stroke-width: 1px;"/><path class="ygrid crisp" transform="translate(0,110.08)" d="M80,0h1440" style="stroke: rgb(211, 211, 211); stroke-opacity: 1; stroke-width: 1px;"/></g></g><g class="zerolinelayer"/><g class="layer-between"><g class="shapelayer"/><g class="imagelayer"/></g><path class="xlines-below"/><path class="ylines-below"/><g class="overlines-below"/><g class="xaxislayer-below"/><g class="yaxislayer-below"/><g class="overaxes-below"/><g class="overplot"><g class="xy" transform="translate(80,80)" clip-path="url(#clip40d2dfxyplot)"><g class="scatterlayer mlayer"><g class="trace scatter traceb88bbb" style="stroke-miterlimit: 2; opacity: 1;"><g class="fills"/><g class="errorbars"/><g class="lines"><path class="js-line" d="M0,46.26L40,136.18L80,103.88L120,163.04L160,121.46L200,138.02L240,171.87L280,195.87L320,228.13L360,273.27L400,307.49L440,325.86L480,371.02L520,403.51L560,456.38L600,487.72L640,511.06L680,533.2L720,554.1L760,577.27L800,606.6L840,630.71L880,605.08L920,584.16L960,586.59L1000,586.27L1040,585.08L1200,581.29L1240,578.99L1280,580.07L1320,579.53L1440,577.11" style="vector-effect: none; fill: none; stroke: rgb(31, 119, 180); stroke-opacity: 1; stroke-width: 2px; opacity: 1;"/></g><g class="points"/><g class="text"/></g><g class="trace scatter trace43b22c" style="stroke-miterlimit: 2; opacity: 1;"><g class="fills"/><g class="errorbars"/><g class="lines"><path class="js-line" d="M0,47.54L40,137.46L80,105.16L120,168.7L160,132.38L200,140.63L240,169.49L280,186.36L320,216.11L360,239.8L400,260.04L440,278.18L480,297.47L520,331.95L560,361.2L600,389.22L640,403.13L680,426.44L720,479.27L760,501.59L800,525.15L840,550.02L880,546.68L920,537.27L960,551.94L1000,569.05L1040,589.32L1080,623.4L1120,639.79L1160,655.51L1200,665.79L1240,697.77L1280,700.57L1440,699.9" style="vector-effect: none; fill: none; stroke: rgb(255, 127, 14); stroke-opacity: 1; stroke-width: 2px; opacity: 1;"/></g><g class="points"/><g class="text"/></g><g class="trace scatter trace7c1bc1" style="stroke-miterlimit: 2; opacity: 1;"><g class="fills"/><g class="errorbars"/><g class="lines"><path class="js-line" d="M0,46.25L40,136.18L80,103.88L120,163.04L160,121.36L200,136.39L240,169.18L280,190.92L320,221.92L360,246.55L400,268.01L440,290.22L480,344.54L520,377.89L560,413.07L600,435.82L640,455.66L680,477L720,496.75L760,518.69L800,552.16L840,592.03L880,582.94L920,565.65L960,571.88L1000,574.72L1040,573.65L1200,568.91L1240,567.6L1440,568.91" style="vector-effect: none; fill: none; stroke: rgb(44, 160, 44); stroke-opacity: 1; stroke-width: 2px; opacity: 1;"/></g><g class="points"/><g class="text"/></g><g class="trace scatter trace60bc7a" style="stroke-miterlimit: 2; opacity: 1;"><g class="fills"/><g class="errorbars"/><g class="lines"><path class="js-line" d="M0,47.54L40,137.47L80,105.17L120,168.71L160,132.37L200,140.64L240,169.69L280,183.84L320,204.47L360,230.08L400,251.96L440,268.94L480,289.28L520,322.97L560,344.16L600,358.57L640,369.94L680,393.45L720,414.31L800,462.35L840,488.74L880,486.59L920,486.19L960,502.21L1000,515.01L1040,520.77L1080,549.75L1120,585.8L1160,616.72L1200,649.8L1240,692.65L1280,698.17L1320,697.96L1440,697.46" style="vector-effect: none; fill: none; stroke: rgb(214, 39, 40); stroke-opacity: 1; stroke-width: 2px; opacity: 1;"/></g><g class="points"/><g class="text"/></g><g class="trace scatter traced7ddde" style="stroke-miterlimit: 2; opacity: 1;"><g class="fills"/><g class="errorbars"/><g class="lines"><path class="js-line" d="M0,46.26L40,136.18L80,103.88L120,163.03L160,121.34L200,136.17L240,168.53L280,190.01L320,214.86L360,239.02L400,259.11L440,278.93L480,299.81L520,332.32L560,356.93L600,380.83L640,398.28L680,419.34L720,460.84L760,480.91L800,503.14L840,530.53L880,524.56L920,513.41L960,520.05L1000,523.92L1040,531L1080,543.18L1120,547.71L1200,545.31L1240,541.19L1280,544.38L1320,544.66L1440,545.42" style="vector-effect: none; fill: none; stroke: rgb(148, 103, 189); stroke-opacity: 1; stroke-width: 2px; opacity: 1;"/></g><g class="points"/><g class="text"/></g><g class="trace scatter trace4c2187" style="stroke-miterlimit: 2; opacity: 1;"><g class="fills"/><g class="errorbars"/><g class="lines"><path class="js-line" d="M0,46.26L40,136.18L80,103.88L120,163.03L160,121.24L200,136.11L240,168.62L280,184.79L320,204.64L360,230.61L400,252.81L480,292.01L520,323.32L560,344.7L600,357.13L640,371.56L680,388.23L760,422.66L800,440.8L840,463.76L880,459.62L920,454.9L960,469.78L1000,474.99L1040,473.94L1080,486.31L1120,494.54L1160,501.48L1200,501.78L1240,497.67L1280,500.87L1440,501.9" style="vector-effect: none; fill: none; stroke: rgb(140, 86, 75); stroke-opacity: 1; stroke-width: 2px; opacity: 1;"/></g><g class="points"/><g class="text"/></g><g class="trace scatter trace2cddb3" style="stroke-miterlimit: 2; opacity: 1;"><g class="fills"/><g class="errorbars"/><g class="lines"><path class="js-line" d="M0,46.26L40,136.18L80,103.88L120,163.04L160,121.28L200,136.19L240,168.4L280,180.72L320,195.6L360,215.73L400,230.75L480,274.31L520,306.68L560,325.63L600,336.84L640,347.16L680,358.76L760,379.75L800,392.73L840,410.25L880,397.34L920,394.44L960,421.08L1000,436.17L1040,436.55L1080,435.6L1120,440.25L1160,441.99L1200,440.75L1240,437.54L1280,439.81L1440,440.83" style="vector-effect: none; fill: none; stroke: rgb(227, 119, 194); stroke-opacity: 1; stroke-width: 2px; opacity: 1;"/></g><g class="points"/><g class="text"/></g><g class="trace scatter trace192cbe" style="stroke-miterlimit: 2; opacity: 1;"><g class="fills"/><g class="errorbars"/><g class="lines"><path class="js-line" d="M0,46.25L40,136.18L80,103.89L120,163.05L160,121.3L200,136.22L240,168.21L280,180.12L320,190.57L360,207.26L400,217.39L480,247.44L520,270.39L560,296.34L600,303.3L640,310.63L680,320.09L760,336.93L800,346.81L840,365.54L880,347.68L920,338.41L960,358.78L1000,369.98L1040,368.9L1080,377.05L1120,392.36L1160,404.52L1200,415.05L1240,423.37L1280,419.54L1400,424.33L1440,424.66" style="vector-effect: none; fill: none; stroke: rgb(127, 127, 127); stroke-opacity: 1; stroke-width: 2px; opacity: 1;"/></g><g class="points"/><g class="text"/></g><g class="trace scatter tracefd182d" style="stroke-miterlimit: 2; opacity: 1;"><g class="fills"/><g class="errorbars"/><g class="lines"><path class="js-line" d="M0,46.25L40,136.18L80,103.89L120,163.06L160,121.31L200,136.24L240,168.24L280,179.49L320,189.64L360,202.41L400,211.5L480,239.7L520,261.06L560,285.11L600,299.51L640,306.99L680,316.52L720,327.91L760,336.67L800,346.8L840,366.38L880,348.53L920,339.39L960,361.94L1000,370.34L1040,362.15L1080,371.07L1120,393.55L1160,406.31L1240,429.71L1280,436.4L1320,433.68L1360,434.6L1400,433.4L1440,433.2" style="vector-effect: none; fill: none; stroke: rgb(188, 189, 34); stroke-opacity: 1; stroke-width: 2px; opacity: 1;"/></g><g class="points"/><g class="text"/></g><g class="trace scatter trace60427a" style="stroke-miterlimit: 2; opacity: 1;"><g class="fills"/><g class="errorbars"/><g class="lines"><path class="js-line" d="M0,46.56L40,136.75L80,105.48L120,165.36L160,123.44L200,140.23L240,175.46L280,188.65L320,199.55L360,212.73L400,219.65L440,229.01L480,242.61L520,263.82L560,283.23L600,294.03L640,300.65L720,317.59L760,325.9L800,335.04L840,354.44L880,333.93L920,323.63L960,343L1000,356.75L1040,349.88L1080,358.06L1120,382.73L1160,411.47L1200,425.52L1240,435.72L1280,439.97L1320,438.29L1440,436.16" style="vector-effect: none; fill: none; stroke: rgb(23, 190, 207); stroke-opacity: 1; stroke-width: 2px; opacity: 1;"/></g><g class="points"/><g class="text"/></g><g class="trace scatter tracec6e2ca" style="stroke-miterlimit: 2; opacity: 1;"><g class="fills"/><g class="errorbars"/><g class="lines"><path class="js-line" d="M0,46.25L40,136.18L80,103.89L120,163.06L160,121.31L200,136.24L240,168.26L280,179.52L320,188.8L360,200.74L400,205.62L440,216.26L480,228.8L560,268.8L600,280.63L640,287.41L680,295.99L760,312.05L800,321.01L840,340.57L880,320.26L920,309.9L960,329.56L1000,343.32L1040,339.75L1080,347.88L1120,372.39L1160,400.97L1200,414.67L1240,424.16L1280,428.15L1320,426.19L1360,425.51L1440,423.64" style="vector-effect: none; fill: none; stroke: rgb(31, 119, 180); stroke-opacity: 1; stroke-width: 2px; opacity: 1;"/></g><g class="points"/><g class="text"/></g><g class="trace scatter trace8a7165" style="stroke-miterlimit: 2; opacity: 1;"><g class="fills"/><g class="errorbars"/><g class="lines"><path class="js-line" d="M0,46.25L40,136.18L80,103.89L120,163.06L160,121.31L200,136.25L240,170.65L280,180.14L320,188.55L360,199.73L400,204.8L440,214.83L480,225.71L560,260.91L600,274.91L640,281.87L680,290.38L760,307.25L800,316.93L840,336.28L880,314.87L920,303.78L960,322.24L1000,334.95L1040,330.84L1080,346.5L1120,370.3L1160,398.26L1200,412.74L1240,422.13L1280,426.04L1320,423.98L1360,423.23L1440,421.28" style="vector-effect: none; fill: none; stroke: rgb(255, 127, 14); stroke-opacity: 1; stroke-width: 2px; opacity: 1;"/></g><g class="points"/><g class="text"/></g><g class="trace scatter trace5ddb64" style="stroke-miterlimit: 2; opacity: 1;"><g class="fills"/><g class="errorbars"/><g class="lines"><path class="js-line" d="M0,46.26L40,136.18L80,103.88L120,163.02L160,121.2L200,135.83L240,167.58L280,185.19L320,220.81L360,229.38L400,246.78L440,276.94L480,294.47L520,327.73L560,352.4L640,387.48L680,414.87L760,470.86L800,496.89L840,498.08L880,474.27L920,441.02L960,451.24L1000,436.96L1040,414.75L1080,405.85L1120,403.85L1160,416.39L1200,430.26L1240,437.12L1280,432.95L1320,431.27L1360,433.81L1440,432.33" style="vector-effect: none; fill: none; stroke: rgb(44, 160, 44); stroke-opacity: 1; stroke-width: 2px; opacity: 1;"/></g><g class="points"/><g class="text"/></g><g class="trace scatter trace3a42f7" style="stroke-miterlimit: 2; opacity: 1;"><g class="fills"/><g class="errorbars"/><g class="lines"><path class="js-line" d="M0,46.26L40,136.2L80,103.88L120,163.04L160,121.24L200,135.95L240,167.47L280,186.29L320,210.66L360,222.04L400,237.27L440,256.72L480,266.79L520,290.64L560,306.62L600,319.24L640,333.64L680,330.54L720,339.42L760,350.5L800,363.15L840,385.26L880,367.83L920,353.13L960,363.47L1000,367.61L1040,355.4L1080,356.51L1120,373.74L1160,397.54L1200,420.16L1240,431.8L1280,433.04L1360,429.78L1400,428.64L1440,427.29" style="vector-effect: none; fill: none; stroke: rgb(214, 39, 40); stroke-opacity: 1; stroke-width: 2px; opacity: 1;"/></g><g class="points"/><g class="text"/></g><g class="trace scatter traceb25aa1" style="stroke-miterlimit: 2; opacity: 1;"><g class="fills"/><g class="errorbars"/><g class="lines"><path class="js-line" d="M0,46.26L40,136.18L80,103.88L120,163.02L160,121.26L200,136.14L240,169.89L280,191.83L320,206.35L360,230.33L400,249.37L440,276.17L480,287.85L520,301.53L560,317.72L600,327.5L640,334.46L680,344.14L720,350.44L760,357.78L800,366.44L840,380.15L880,363.07L920,356.31L960,379.07L1000,389.04L1040,382.56L1080,392.4L1120,412.09L1160,426.19L1200,439.29L1240,452.5L1280,454.43L1320,454.05L1360,452.74L1440,451.93" style="vector-effect: none; fill: none; stroke: rgb(148, 103, 189); stroke-opacity: 1; stroke-width: 2px; opacity: 1;"/></g><g class="points"/><g class="text"/></g><g class="trace scatter trace01edfe" style="stroke-miterlimit: 2; opacity: 1;"><g class="fills"/><g class="errorbars"/><g class="lines"><path class="js-line" d="M0,47.55L40,137.48L80,105.2L120,168.73L160,132.38L200,139.46L240,168.7L280,181.18L320,191.8L360,205.36L400,211.54L440,224.26L480,231.64L520,248.04L560,260.22L600,267.87L640,278.04L680,290.93L720,302.28L760,310.78L800,320.16L840,339.81L880,318.48L920,307.63L960,327.07L1000,340.48L1040,337L1080,343.25L1120,367.35L1160,395.85L1200,413.33L1240,424.24L1280,428L1320,426.28L1360,425.59L1440,422.42" style="vector-effect: none; fill: none; stroke: rgb(140, 86, 75); stroke-opacity: 1; stroke-width: 2px; opacity: 1;"/></g><g class="points"/><g class="text"/></g><g class="trace scatter trace1ab19d" style="stroke-miterlimit: 2; opacity: 1;"><g class="fills"/><g class="errorbars"/><g class="lines"><path class="js-line" d="M0,46.25L40,136.18L80,103.9L120,162.98L160,121.21L200,135.93L240,167.57L280,187.04L320,195.64L360,206.02L400,209.5L480,228.03L520,246.06L560,265.86L600,272.91L680,283.81L720,288.21L760,292.19L800,297.04L840,312.5L880,286.04L920,269.85L960,283.7L1000,294.14L1040,288.53L1080,302.36L1120,329.05L1160,357.86L1200,374L1240,390.58L1280,395.46L1320,395.99L1360,397.67L1440,399.22" style="vector-effect: none; fill: none; stroke: rgb(227, 119, 194); stroke-opacity: 1; stroke-width: 2px; opacity: 1;"/></g><g class="points"/><g class="text"/></g><g class="trace scatter tracee68c1d" style="stroke-miterlimit: 2; opacity: 1;"><g class="fills"/><g class="errorbars"/><g class="lines"><path class="js-line" d="M0,46.25L40,136.16L80,103.4L120,162.01L160,119.97L200,133.39L240,164.73L280,185.47L320,192.74L360,200.29L400,201.92L440,213.69L480,252.79L520,267.79L560,280.74L640,286.53L680,291.99L720,296.17L760,297.54L800,299.25L840,310.72L880,280.33L920,259.76L960,269.56L1000,274.92L1040,265.93L1080,259.13L1120,261.24L1160,285.36L1240,309.51L1280,307.99L1360,300.71L1400,296.74L1440,291.98" style="vector-effect: none; fill: none; stroke: rgb(127, 127, 127); stroke-opacity: 1; stroke-width: 2px; opacity: 1;"/></g><g class="points"/><g class="text"/></g><g class="trace scatter tracee05241" style="stroke-miterlimit: 2; opacity: 1;"><g class="fills"/><g class="errorbars"/><g class="lines"><path class="js-line" d="M0,46.25L40,136.18L80,103.89L120,163.08L160,121.34L200,136.34L240,168.46L280,179.56L320,189.22L360,201.16L400,206.27L440,217.14L480,229.52L520,251.24L560,273.9L600,285.33L640,291.4L720,306.51L760,313.72L800,321.77L840,340.3L880,318.65L920,306.79L960,324.63L1000,337.06L1040,331.42L1080,344.8L1120,369.68L1160,398.05L1200,411.87L1240,420.2L1280,424.33L1320,422.38L1440,419.17" style="vector-effect: none; fill: none; stroke: rgb(188, 189, 34); stroke-opacity: 1; stroke-width: 2px; opacity: 1;"/></g><g class="points"/><g class="text"/></g><g class="trace scatter trace52d5c7" style="stroke-miterlimit: 2; opacity: 1;"><g class="fills"/><g class="errorbars"/><g class="lines"><path class="js-line" d="M0,46.25L40,136.18L80,103.89L120,163.06L160,121.31L200,136.26L240,168.27L280,179.36L320,188.65L360,200.65L400,205.75L440,216.35L480,228.87L560,269.21L600,281.09L640,287.99L680,296.73L760,312.91L800,321.91L840,341.55L880,321.22L920,310.77L960,330.46L1000,344.17L1040,340.65L1080,348.85L1120,373.41L1160,402.05L1200,415.77L1240,425.21L1280,429.09L1320,427.05L1360,426.3L1440,424.29" style="vector-effect: none; fill: none; stroke: rgb(23, 190, 207); stroke-opacity: 1; stroke-width: 2px; opacity: 1;"/></g><g class="points"/><g class="text"/></g><g class="trace scatter trace6200be" style="stroke-miterlimit: 2; opacity: 1;"><g class="fills"/><g class="errorbars"/><g class="lines"><path class="js-line" d="M0,47.56L40,137.49L80,105.19L120,168.72L160,132.36L200,139.43L240,168.67L280,180.84L320,190.72L360,202.39L400,207.1L440,217.67L480,229.98L560,269.7L600,281.07L640,287.66L680,295.99L760,311.89L800,320.75L840,340.23L880,319.55L920,308.89L960,328.45L1000,341.98L1040,339.12L1080,345.8L1120,370.09L1160,398.66L1200,415.8L1240,426.75L1280,430.44L1320,428.7L1360,427.99L1440,424.77" style="vector-effect: none; fill: none; stroke: rgb(31, 119, 180); stroke-opacity: 1; stroke-width: 2px; opacity: 1;"/></g><g class="points"/><g class="text"/></g><g class="trace scatter trace68cccd" style="stroke-miterlimit: 2; opacity: 1;"><g class="fills"/><g class="errorbars"/><g class="lines"><path class="js-line" d="M0,46.25L40,136.18L80,103.89L120,163.04L160,121.24L200,136.08L240,167.85L280,175.36L320,193.17L360,213.83L400,228.69L440,250.24L480,270.82L520,299.17L560,321.69L600,339.93L640,353.18L680,369.12L720,382.7L800,403.21L840,411.97L880,388.73L920,374.56L960,379.67L1000,381.88L1040,369.17L1080,371.79L1120,390.28L1160,411.89L1200,424.53L1240,433.73L1280,437.58L1320,435.46L1440,431.47" style="vector-effect: none; fill: none; stroke: rgb(255, 127, 14); stroke-opacity: 1; stroke-width: 2px; opacity: 1;"/></g><g class="points"/><g class="text"/></g><g class="trace scatter tracee660c4" style="stroke-miterlimit: 2; opacity: 1;"><g class="fills"/><g class="errorbars"/><g class="lines"><path class="js-line" d="M0,46.25L40,136.18L80,103.89L120,163.06L160,121.31L200,136.24L240,168.28L320,187.49L360,199.81L400,205.57L440,218.3L480,230.71L520,250.64L560,272.12L600,281.96L640,288.8L680,297.49L760,313.41L800,322.29L840,341.8L880,321.36L920,310.78L960,330.34L1000,343.9L1040,340.96L1080,349.86L1120,375.07L1160,403.32L1200,415.61L1240,425.02L1280,428.44L1320,426.38L1360,425.45L1440,423.15" style="vector-effect: none; fill: none; stroke: rgb(44, 160, 44); stroke-opacity: 1; stroke-width: 2px; opacity: 1;"/></g><g class="points"/><g class="text"/></g></g></g></g><path class="xlines-above crisp" d="M79,1005.5H1521M79,79.5H1521" style="fill: none; stroke-width: 1px; stroke: rgb(0, 0, 0); stroke-opacity: 1;"/><path class="ylines-above crisp" d="M79.5,80V1005M1520.5,80V1005" style="fill: none; stroke-width: 1px; stroke: rgb(0, 0, 0); stroke-opacity: 1;"/><g class="overlines-above"/><g class="xaxislayer-above"><path class="xtick ticks crisp" d="M0,1006v5" transform="translate(120,0)" style="stroke: rgb(68, 68, 68); stroke-opacity: 1; stroke-width: 1px;"/><path class="xtick ticks crisp" d="M0,1006v5" transform="translate(320,0)" style="stroke: rgb(68, 68, 68); stroke-opacity: 1; stroke-width: 1px;"/><path class="xtick ticks crisp" d="M0,1006v5" transform="translate(520,0)" style="stroke: rgb(68, 68, 68); stroke-opacity: 1; stroke-width: 1px;"/><path class="xtick ticks crisp" d="M0,1006v5" transform="translate(720,0)" style="stroke: rgb(68, 68, 68); stroke-opacity: 1; stroke-width: 1px;"/><path class="xtick ticks crisp" d="M0,1006v5" transform="translate(920,0)" style="stroke: rgb(68, 68, 68); stroke-opacity: 1; stroke-width: 1px;"/><path class="xtick ticks crisp" d="M0,1006v5" transform="translate(1120,0)" style="stroke: rgb(68, 68, 68); stroke-opacity: 1; stroke-width: 1px;"/><path class="xtick ticks crisp" d="M0,1006v5" transform="translate(1320,0)" style="stroke: rgb(68, 68, 68); stroke-opacity: 1; stroke-width: 1px;"/><path class="xtick ticks crisp" d="M0,1006v5" transform="translate(1520,0)" style="stroke: rgb(68, 68, 68); stroke-opacity: 1; stroke-width: 1px;"/><g class="xtick"><text text-anchor="middle" x="0" y="1027.8" transform="translate(120,0)" style="font-family: Arial; font-size: 14px; fill: rgb(36, 36, 36); fill-opacity: 1; white-space: pre; opacity: 1;">2020</text></g><g class="xtick"><text text-anchor="middle" x="0" y="1027.8" style="font-family: Arial; font-size: 14px; fill: rgb(36, 36, 36); fill-opacity: 1; white-space: pre; opacity: 1;" transform="translate(320,0)">2025</text></g><g class="xtick"><text text-anchor="middle" x="0" y="1027.8" style="font-family: Arial; font-size: 14px; fill: rgb(36, 36, 36); fill-opacity: 1; white-space: pre; opacity: 1;" transform="translate(520,0)">2030</text></g><g class="xtick"><text text-anchor="middle" x="0" y="1027.8" style="font-family: Arial; font-size: 14px; fill: rgb(36, 36, 36); fill-opacity: 1; white-space: pre; opacity: 1;" transform="translate(720,0)">2035</text></g><g class="xtick"><text text-anchor="middle" x="0" y="1027.8" style="font-family: Arial; font-size: 14px; fill: rgb(36, 36, 36); fill-opacity: 1; white-space: pre; opacity: 1;" transform="translate(920,0)">2040</text></g><g class="xtick"><text text-anchor="middle" x="0" y="1027.8" style="font-family: Arial; font-size: 14px; fill: rgb(36, 36, 36); fill-opacity: 1; white-space: pre; opacity: 1;" transform="translate(1120,0)">2045</text></g><g class="xtick"><text text-anchor="middle" x="0" y="1027.8" style="font-family: Arial; font-size: 14px; fill: rgb(36, 36, 36); fill-opacity: 1; white-space: pre; opacity: 1;" transform="translate(1320,0)">2050</text></g><g class="xtick"><text text-anchor="middle" x="0" y="1027.8" style="font-family: Arial; font-size: 14px; fill: rgb(36, 36, 36); fill-opacity: 1; white-space: pre; opacity: 1;" transform="translate(1520,0)">2055</text></g></g><g class="yaxislayer-above"><path class="ytick ticks crisp" d="M79,0h-5" transform="translate(0,1005)" style="stroke: rgb(68, 68, 68); stroke-opacity: 1; stroke-width: 1px;"/><path class="ytick ticks crisp" d="M79,0h-5" transform="translate(0,826.02)" style="stroke: rgb(68, 68, 68); stroke-opacity: 1; stroke-width: 1px;"/><path class="ytick ticks crisp" d="M79,0h-5" transform="translate(0,647.03)" style="stroke: rgb(68, 68, 68); stroke-opacity: 1; stroke-width: 1px;"/><path class="ytick ticks crisp" d="M79,0h-5" transform="translate(0,468.05)" style="stroke: rgb(68, 68, 68); stroke-opacity: 1; stroke-width: 1px;"/><path class="ytick ticks crisp" d="M79,0h-5" transform="translate(0,289.07)" style="stroke: rgb(68, 68, 68); stroke-opacity: 1; stroke-width: 1px;"/><path class="ytick ticks crisp" d="M79,0h-5" transform="translate(0,110.08)" style="stroke: rgb(68, 68, 68); stroke-opacity: 1; stroke-width: 1px;"/><g class="ytick"><text text-anchor="end" x="71.2" y="4.8999999999999995" transform="translate(0,1005)" style="font-family: Arial; font-size: 14px; fill: rgb(36, 36, 36); fill-opacity: 1; white-space: pre; opacity: 1;">0</text></g><g class="ytick"><text text-anchor="end" x="71.2" y="4.8999999999999995" style="font-family: Arial; font-size: 14px; fill: rgb(36, 36, 36); fill-opacity: 1; white-space: pre; opacity: 1;" transform="translate(0,826.02)">100k</text></g><g class="ytick"><text text-anchor="end" x="71.2" y="4.8999999999999995" style="font-family: Arial; font-size: 14px; fill: rgb(36, 36, 36); fill-opacity: 1; white-space: pre; opacity: 1;" transform="translate(0,647.03)">200k</text></g><g class="ytick"><text text-anchor="end" x="71.2" y="4.8999999999999995" style="font-family: Arial; font-size: 14px; fill: rgb(36, 36, 36); fill-opacity: 1; white-space: pre; opacity: 1;" transform="translate(0,468.05)">300k</text></g><g class="ytick"><text text-anchor="end" x="71.2" y="4.8999999999999995" style="font-family: Arial; font-size: 14px; fill: rgb(36, 36, 36); fill-opacity: 1; white-space: pre; opacity: 1;" transform="translate(0,289.07)">400k</text></g><g class="ytick"><text text-anchor="end" x="71.2" y="4.8999999999999995" style="font-family: Arial; font-size: 14px; fill: rgb(36, 36, 36); fill-opacity: 1; white-space: pre; opacity: 1;" transform="translate(0,110.08)">500k</text></g></g><g class="overaxes-above"/></g></g><g class="polarlayer"/><g class="smithlayer"/><g class="ternarylayer"/><g class="geolayer"/><g class="funnelarealayer"/><g class="pielayer"/><g class="iciclelayer"/><g class="treemaplayer"/><g class="sunburstlayer"/><g class="glimages"/><defs id="topdefs-40d2df"><g class="clips"/><clipPath id="legend40d2df"><rect width="1238" height="90" x="0" y="0"/></clipPath></defs><g class="layer-above"><g class="imagelayer"/><g class="shapelayer"/></g><g class="infolayer"><g class="legend" pointer-events="all" transform="translate(181,1097.5)"><rect class="bg" shape-rendering="crispEdges" style="stroke: rgb(68, 68, 68); stroke-opacity: 1; fill: rgb(255, 255, 255); fill-opacity: 1; stroke-width: 0px;" width="1238" height="90" x="0" y="0"/><g class="scrollbox" transform="" clip-path="url(#legend40d2df)"><g class="groups"><g class="traces" transform="translate(0,14.950000000000001)" style="opacity: 1;"><text class="legendtext" text-anchor="start" x="40" y="5.07" style="font-family: Arial; font-size: 13px; fill: rgb(36, 36, 36); fill-opacity: 1; white-space: pre;">NDC_BASE-08-RG</text><g class="layers" style="opacity: 1;"><g class="legendfill"/><g class="legendlines"><path class="js-line" d="M5,0h30" style="fill: none; stroke: rgb(31, 119, 180); stroke-opacity: 1; stroke-width: 2px;"/></g><g class="legendsymbols"><g class="legendpoints"/></g></g><rect class="legendtoggle" x="0" y="-9.950000000000001" width="155.203125" height="19.900000000000002" style="fill: rgb(0, 0, 0); fill-opacity: 0;"/></g><g class="traces" transform="translate(211.875,14.950000000000001)" style="opacity: 1;"><text class="legendtext" text-anchor="start" x="40" y="5.07" style="font-family: Arial; font-size: 13px; fill: rgb(36, 36, 36); fill-opacity: 1; white-space: pre;">NDC_BASE-085-NZ-RG</text><g class="layers" style="opacity: 1;"><g class="legendfill"/><g class="legendlines"><path class="js-line" d="M5,0h30" style="fill: none; stroke: rgb(255, 127, 14); stroke-opacity: 1; stroke-width: 2px;"/></g><g class="legendsymbols"><g class="legendpoints"/></g></g><rect class="legendtoggle" x="0" y="-9.950000000000001" width="184.09375" height="19.900000000000002" style="fill: rgb(0, 0, 0); fill-opacity: 0;"/></g><g class="traces" transform="translate(423.75,14.950000000000001)" style="opacity: 1;"><text class="legendtext" text-anchor="start" x="40" y="5.07" style="font-family: Arial; font-size: 13px; fill: rgb(36, 36, 36); fill-opacity: 1; white-space: pre;">NDC_BASE-085-RG</text><g class="layers" style="opacity: 1;"><g class="legendfill"/><g class="legendlines"><path class="js-line" d="M5,0h30" style="fill: none; stroke: rgb(44, 160, 44); stroke-opacity: 1; stroke-width: 2px;"/></g><g class="legendsymbols"><g class="legendpoints"/></g></g><rect class="legendtoggle" x="0" y="-9.950000000000001" width="162.4375" height="19.900000000000002" style="fill: rgb(0, 0, 0); fill-opacity: 0;"/></g><g class="traces" transform="translate(635.625,14.950000000000001)" style="opacity: 1;"><text class="legendtext" text-anchor="start" x="40" y="5.07" style="font-family: Arial; font-size: 13px; fill: rgb(36, 36, 36); fill-opacity: 1; white-space: pre;">NDC_BASE-09-NZ-RG</text><g class="layers" style="opacity: 1;"><g class="legendfill"/><g class="legendlines"><path class="js-line" d="M5,0h30" style="fill: none; stroke: rgb(214, 39, 40); stroke-opacity: 1; stroke-width: 2px;"/></g><g class="legendsymbols"><g class="legendpoints"/></g></g><rect class="legendtoggle" x="0" y="-9.950000000000001" width="176.859375" height="19.900000000000002" style="fill: rgb(0, 0, 0); fill-opacity: 0;"/></g><g class="traces" transform="translate(847.5,14.950000000000001)" style="opacity: 1;"><text class="legendtext" text-anchor="start" x="40" y="5.07" style="font-family: Arial; font-size: 13px; fill: rgb(36, 36, 36); fill-opacity: 1; white-space: pre;">NDC_BASE-09-RG</text><g class="layers" style="opacity: 1;"><g class="legendfill"/><g class="legendlines"><path class="js-line" d="M5,0h30" style="fill: none; stroke: rgb(148, 103, 189); stroke-opacity: 1; stroke-width: 2px;"/></g><g class="legendsymbols"><g class="legendpoints"/></g></g><rect class="legendtoggle" x="0" y="-9.950000000000001" width="155.203125" height="19.900000000000002" style="fill: rgb(0, 0, 0); fill-opacity: 0;"/></g><g class="traces" transform="translate(1059.375,14.950000000000001)" style="opacity: 1;"><text class="legendtext" text-anchor="start" x="40" y="5.07" style="font-family: Arial; font-size: 13px; fill: rgb(36, 36, 36); fill-opacity: 1; white-space: pre;">NDC_BASE-095-RG</text><g class="layers" style="opacity: 1;"><g class="legendfill"/><g class="legendlines"><path class="js-line" d="M5,0h30" style="fill: none; stroke: rgb(140, 86, 75); stroke-opacity: 1; stroke-width: 2px;"/></g><g class="legendsymbols"><g class="legendpoints"/></g></g><rect class="legendtoggle" x="0" y="-9.950000000000001" width="162.4375" height="19.900000000000002" style="fill: rgb(0, 0, 0); fill-opacity: 0;"/></g><g class="traces" transform="translate(0,34.85)" style="opacity: 1;"><text class="legendtext" text-anchor="start" x="40" y="5.07" style="font-family: Arial; font-size: 13px; fill: rgb(36, 36, 36); fill-opacity: 1; white-space: pre;">NDC_BASE-10-RG</text><g class="layers" style="opacity: 1;"><g class="legendfill"/><g class="legendlines"><path class="js-line" d="M5,0h30" style="fill: none; stroke: rgb(227, 119, 194); stroke-opacity: 1; stroke-width: 2px;"/></g><g class="legendsymbols"><g class="legendpoints"/></g></g><rect class="legendtoggle" x="0" y="-9.950000000000001" width="155.203125" height="19.900000000000002" style="fill: rgb(0, 0, 0); fill-opacity: 0;"/></g><g class="traces" transform="translate(211.875,34.85)" style="opacity: 1;"><text class="legendtext" text-anchor="start" x="40" y="5.07" style="font-family: Arial; font-size: 13px; fill: rgb(36, 36, 36); fill-opacity: 1; white-space: pre;">NDC_BASE-105-RG</text><g class="layers" style="opacity: 1;"><g class="legendfill"/><g class="legendlines"><path class="js-line" d="M5,0h30" style="fill: none; stroke: rgb(127, 127, 127); stroke-opacity: 1; stroke-width: 2px;"/></g><g class="legendsymbols"><g class="legendpoints"/></g></g><rect class="legendtoggle" x="0" y="-9.950000000000001" width="162.4375" height="19.900000000000002" style="fill: rgb(0, 0, 0); fill-opacity: 0;"/></g><g class="traces" transform="translate(423.75,34.85)" style="opacity: 1;"><text class="legendtext" text-anchor="start" x="40" y="5.07" style="font-family: Arial; font-size: 13px; fill: rgb(36, 36, 36); fill-opacity: 1; white-space: pre;">NDC_BASE-CtaxWEM-RG</text><g class="layers" style="opacity: 1;"><g class="legendfill"/><g class="legendlines"><path class="js-line" d="M5,0h30" style="fill: none; stroke: rgb(188, 189, 34); stroke-opacity: 1; stroke-width: 2px;"/></g><g class="legendsymbols"><g class="legendpoints"/></g></g><rect class="legendtoggle" x="0" y="-9.950000000000001" width="199.25" height="19.900000000000002" style="fill: rgb(0, 0, 0); fill-opacity: 0;"/></g><g class="traces" transform="translate(635.625,34.85)" style="opacity: 1;"><text class="legendtext" text-anchor="start" x="40" y="5.07" style="font-family: Arial; font-size: 13px; fill: rgb(36, 36, 36); fill-opacity: 1; white-space: pre;">NDC_BASE-EE-RG</text><g class="layers" style="opacity: 1;"><g class="legendfill"/><g class="legendlines"><path class="js-line" d="M5,0h30" style="fill: none; stroke: rgb(23, 190, 207); stroke-opacity: 1; stroke-width: 2px;"/></g><g class="legendsymbols"><g class="legendpoints"/></g></g><rect class="legendtoggle" x="0" y="-9.950000000000001" width="158.078125" height="19.900000000000002" style="fill: rgb(0, 0, 0); fill-opacity: 0;"/></g><g class="traces" transform="translate(847.5,34.85)" style="opacity: 1;"><text class="legendtext" text-anchor="start" x="40" y="5.07" style="font-family: Arial; font-size: 13px; fill: rgb(36, 36, 36); fill-opacity: 1; white-space: pre;">NDC_BASE-FreiM-RG</text><g class="layers" style="opacity: 1;"><g class="legendfill"/><g class="legendlines"><path class="js-line" d="M5,0h30" style="fill: none; stroke: rgb(31, 119, 180); stroke-opacity: 1; stroke-width: 2px;"/></g><g class="legendsymbols"><g class="legendpoints"/></g></g><rect class="legendtoggle" x="0" y="-9.950000000000001" width="173.96875" height="19.900000000000002" style="fill: rgb(0, 0, 0); fill-opacity: 0;"/></g><g class="traces" transform="translate(1059.375,34.85)" style="opacity: 1;"><text class="legendtext" text-anchor="start" x="40" y="5.07" style="font-family: Arial; font-size: 13px; fill: rgb(36, 36, 36); fill-opacity: 1; white-space: pre;">NDC_BASE-HEAF-RG</text><g class="layers" style="opacity: 1;"><g class="legendfill"/><g class="legendlines"><path class="js-line" d="M5,0h30" style="fill: none; stroke: rgb(255, 127, 14); stroke-opacity: 1; stroke-width: 2px;"/></g><g class="legendsymbols"><g class="legendpoints"/></g></g><rect class="legendtoggle" x="0" y="-9.950000000000001" width="175.421875" height="19.900000000000002" style="fill: rgb(0, 0, 0); fill-opacity: 0;"/></g><g class="traces" transform="translate(0,54.75000000000001)" style="opacity: 1;"><text class="legendtext" text-anchor="start" x="40" y="5.07" style="font-family: Arial; font-size: 13px; fill: rgb(36, 36, 36); fill-opacity: 1; white-space: pre;">NDC_BASE-IRPFull-RG</text><g class="layers" style="opacity: 1;"><g class="legendfill"/><g class="legendlines"><path class="js-line" d="M5,0h30" style="fill: none; stroke: rgb(44, 160, 44); stroke-opacity: 1; stroke-width: 2px;"/></g><g class="legendsymbols"><g class="legendpoints"/></g></g><rect class="legendtoggle" x="0" y="-9.950000000000001" width="183.359375" height="19.900000000000002" style="fill: rgb(0, 0, 0); fill-opacity: 0;"/></g><g class="traces" transform="translate(211.875,54.75000000000001)" style="opacity: 1;"><text class="legendtext" text-anchor="start" x="40" y="5.07" style="font-family: Arial; font-size: 13px; fill: rgb(36, 36, 36); fill-opacity: 1; white-space: pre;">NDC_BASE-IRPLight-RG</text><g class="layers" style="opacity: 1;"><g class="legendfill"/><g class="legendlines"><path class="js-line" d="M5,0h30" style="fill: none; stroke: rgb(214, 39, 40); stroke-opacity: 1; stroke-width: 2px;"/></g><g class="legendsymbols"><g class="legendpoints"/></g></g><rect class="legendtoggle" x="0" y="-9.950000000000001" width="190.609375" height="19.900000000000002" style="fill: rgb(0, 0, 0); fill-opacity: 0;"/></g><g class="traces" transform="translate(423.75,54.75000000000001)" style="opacity: 1;"><text class="legendtext" text-anchor="start" x="40" y="5.07" style="font-family: Arial; font-size: 13px; fill: rgb(36, 36, 36); fill-opacity: 1; white-space: pre;">NDC_BASE-LEAF-RG</text><g class="layers" style="opacity: 1;"><g class="legendfill"/><g class="legendlines"><path class="js-line" d="M5,0h30" style="fill: none; stroke: rgb(148, 103, 189); stroke-opacity: 1; stroke-width: 2px;"/></g><g class="legendsymbols"><g class="legendpoints"/></g></g><rect class="legendtoggle" x="0" y="-9.950000000000001" width="173.25" height="19.900000000000002" style="fill: rgb(0, 0, 0); fill-opacity: 0;"/></g><g class="traces" transform="translate(635.625,54.75000000000001)" style="opacity: 1;"><text class="legendtext" text-anchor="start" x="40" y="5.07" style="font-family: Arial; font-size: 13px; fill: rgb(36, 36, 36); fill-opacity: 1; white-space: pre;">NDC_BASE-MES-RG</text><g class="layers" style="opacity: 1;"><g class="legendfill"/><g class="legendlines"><path class="js-line" d="M5,0h30" style="fill: none; stroke: rgb(140, 86, 75); stroke-opacity: 1; stroke-width: 2px;"/></g><g class="legendsymbols"><g class="legendpoints"/></g></g><rect class="legendtoggle" x="0" y="-9.950000000000001" width="168.921875" height="19.900000000000002" style="fill: rgb(0, 0, 0); fill-opacity: 0;"/></g><g class="traces" transform="translate(847.5,54.75000000000001)" style="opacity: 1;"><text class="legendtext" text-anchor="start" x="40" y="5.07" style="font-family: Arial; font-size: 13px; fill: rgb(36, 36, 36); fill-opacity: 1; white-space: pre;">NDC_BASE-OilAPS-RG</text><g class="layers" style="opacity: 1;"><g class="legendfill"/><g class="legendlines"><path class="js-line" d="M5,0h30" style="fill: none; stroke: rgb(227, 119, 194); stroke-opacity: 1; stroke-width: 2px;"/></g><g class="legendsymbols"><g class="legendpoints"/></g></g><rect class="legendtoggle" x="0" y="-9.950000000000001" width="182.640625" height="19.900000000000002" style="fill: rgb(0, 0, 0); fill-opacity: 0;"/></g><g class="traces" transform="translate(1059.375,54.75000000000001)" style="opacity: 1;"><text class="legendtext" text-anchor="start" x="40" y="5.07" style="font-family: Arial; font-size: 13px; fill: rgb(36, 36, 36); fill-opacity: 1; white-space: pre;">NDC_BASE-OilNZ-RG</text><g class="layers" style="opacity: 1;"><g class="legendfill"/><g class="legendlines"><path class="js-line" d="M5,0h30" style="fill: none; stroke: rgb(127, 127, 127); stroke-opacity: 1; stroke-width: 2px;"/></g><g class="legendsymbols"><g class="legendpoints"/></g></g><rect class="legendtoggle" x="0" y="-9.950000000000001" width="173.96875" height="19.900000000000002" style="fill: rgb(0, 0, 0); fill-opacity: 0;"/></g><g class="traces" transform="translate(0,74.65)" style="opacity: 1;"><text class="legendtext" text-anchor="start" x="40" y="5.07" style="font-family: Arial; font-size: 13px; fill: rgb(36, 36, 36); fill-opacity: 1; white-space: pre;">NDC_BASE-OilST-RG</text><g class="layers" style="opacity: 1;"><g class="legendfill"/><g class="legendlines"><path class="js-line" d="M5,0h30" style="fill: none; stroke: rgb(188, 189, 34); stroke-opacity: 1; stroke-width: 2px;"/></g><g class="legendsymbols"><g class="legendpoints"/></g></g><rect class="legendtoggle" x="0" y="-9.950000000000001" width="172.53125" height="19.900000000000002" style="fill: rgb(0, 0, 0); fill-opacity: 0;"/></g><g class="traces" transform="translate(211.875,74.65)" style="opacity: 1;"><text class="legendtext" text-anchor="start" x="40" y="5.07" style="font-family: Arial; font-size: 13px; fill: rgb(36, 36, 36); fill-opacity: 1; white-space: pre;">NDC_BASE-PassM-RG</text><g class="layers" style="opacity: 1;"><g class="legendfill"/><g class="legendlines"><path class="js-line" d="M5,0h30" style="fill: none; stroke: rgb(23, 190, 207); stroke-opacity: 1; stroke-width: 2px;"/></g><g class="legendsymbols"><g class="legendpoints"/></g></g><rect class="legendtoggle" x="0" y="-9.950000000000001" width="180.46875" height="19.900000000000002" style="fill: rgb(0, 0, 0); fill-opacity: 0;"/></g><g class="traces" transform="translate(423.75,74.65)" style="opacity: 1;"><text class="legendtext" text-anchor="start" x="40" y="5.07" style="font-family: Arial; font-size: 13px; fill: rgb(36, 36, 36); fill-opacity: 1; white-space: pre;">NDC_BASE-RG</text><g class="layers" style="opacity: 1;"><g class="legendfill"/><g class="legendlines"><path class="js-line" d="M5,0h30" style="fill: none; stroke: rgb(31, 119, 180); stroke-opacity: 1; stroke-width: 2px;"/></g><g class="legendsymbols"><g class="legendpoints"/></g></g><rect class="legendtoggle" x="0" y="-9.950000000000001" width="136.421875" height="19.900000000000002" style="fill: rgb(0, 0, 0); fill-opacity: 0;"/></g><g class="traces" transform="translate(635.625,74.65)" style="opacity: 1;"><text class="legendtext" text-anchor="start" x="40" y="5.07" style="font-family: Arial; font-size: 13px; fill: rgb(36, 36, 36); fill-opacity: 1; white-space: pre;">NDC_BASE-SAREM-RG</text><g class="layers" style="opacity: 1;"><g class="legendfill"/><g class="legendlines"><path class="js-line" d="M5,0h30" style="fill: none; stroke: rgb(255, 127, 14); stroke-opacity: 1; stroke-width: 2px;"/></g><g class="legendsymbols"><g class="legendpoints"/></g></g><rect class="legendtoggle" x="0" y="-9.950000000000001" width="186.96875" height="19.900000000000002" style="fill: rgb(0, 0, 0); fill-opacity: 0;"/></g><g class="traces" transform="translate(847.5,74.65)" style="opacity: 1;"><text class="legendtext" text-anchor="start" x="40" y="5.07" style="font-family: Arial; font-size: 13px; fill: rgb(36, 36, 36); fill-opacity: 1; white-space: pre;">NDC_BASE-TRA-EVOpt-RG</text><g class="layers" style="opacity: 1;"><g class="legendfill"/><g class="legendlines"><path class="js-line" d="M5,0h30" style="fill: none; stroke: rgb(44, 160, 44); stroke-opacity: 1; stroke-width: 2px;"/></g><g class="legendsymbols"><g class="legendpoints"/></g></g><rect class="legendtoggle" x="0" y="-9.950000000000001" width="209.375" height="19.900000000000002" style="fill: rgb(0, 0, 0); fill-opacity: 0;"/></g></g></g><rect class="scrollbar" rx="20" ry="3" width="0" height="0" style="fill: rgb(128, 139, 164); fill-opacity: 1;" x="0" y="0"/></g><g class="g-gtitle"><text class="gtitle" x="80" y="40" text-anchor="start" dy="0em" style="opacity: 1; font-family: Arial; font-size: 20px; fill: rgb(36, 36, 36); fill-opacity: 1; white-space: pre;">Fig 5: Total Emissions for BASE Scenarios (Reference Economic Growth)</text></g><g class="g-xtitle"><text class="xtitle" x="800" y="1057.1998046875" text-anchor="middle" style="opacity: 1; font-family: Arial; font-size: 17px; fill: rgb(36, 36, 36); fill-opacity: 1; white-space: pre;">Year</text></g><g class="g-ytitle"><text class="ytitle" transform="rotate(-90,20.390820312499997,542.5)" x="20.390820312499997" y="542.5" text-anchor="middle" style="opacity: 1; font-family: Arial; font-size: 17px; fill: rgb(36, 36, 36); fill-opacity: 1; white-space: pre;">CO₂eq (kt)</text></g></g></svg>