<svg class="main-svg" xmlns="http://www.w3.org/2000/svg" xmlns:xlink="http://www.w3.org/1999/xlink" width="1600" height="1200" style="" viewBox="0 0 1600 1200"><rect x="0" y="0" width="1600" height="1200" style="fill: rgb(255, 255, 255); fill-opacity: 1;"/><defs id="defs-9505a6"><g class="clips"><clipPath id="clip9505a6xyplot" class="plotclip"><rect width="1492" height="1080"/></clipPath><clipPath class="axesclip" id="clip9505a6x"><rect x="78" y="0" width="1492" height="1200"/></clipPath><clipPath class="axesclip" id="clip9505a6y"><rect x="0" y="60" width="1600" height="1080"/></clipPath><clipPath class="axesclip" id="clip9505a6xy"><rect x="78" y="60" width="1492" height="1080"/></clipPath></g><g class="gradients"/><g class="patterns"/></defs><g class="bglayer"/><g class="layer-below"><g class="imagelayer"/><g class="shapelayer"/></g><g class="cartesianlayer"><g class="subplot xy"><g class="layer-subplot"><g class="shapelayer"/><g class="imagelayer"/></g><g class="minor-gridlayer"><g class="x"/><g class="y"/></g><g class="gridlayer"><g class="x"/><g class="y"/></g><g class="zerolinelayer"/><g class="layer-between"><g class="shapelayer"/><g class="imagelayer"/></g><path class="xlines-below"/><path class="ylines-below"/><g class="overlines-below"/><g class="xaxislayer-below"/><g class="yaxislayer-below"/><g class="overaxes-below"/><g class="overplot"><g class="xy" transform="translate(78,60)" clip-path="url(#clip9505a6xyplot)"><g class="scatterlayer mlayer"><g class="trace scatter tracefc77f9" style="stroke-miterlimit: 2; opacity: 1;"><g class="fills"/><g class="errorbars"/><g class="lines"><path class="js-line" d="M0,54L41.44,203.56L82.89,149.83L124.33,248.22L165.78,179.07L207.22,206.62L248.67,262.91L290.11,302.83L331.56,356.48L373,431.55L414.44,488.45L455.89,519.01L497.33,594.12L538.78,648.14L580.22,736.08L621.67,788.2L663.11,827.01L704.56,863.83L746,898.59L787.44,937.13L828.89,985.9L870.33,1026L911.78,983.38L953.22,948.59L994.67,952.62L1036.11,952.09L1077.56,950.11L1201.89,945.32L1243.33,943.81L1284.78,939.99L1326.22,941.79L1409.11,939.27L1450.56,938.04L1492,936.86" style="vector-effect: none; fill: none; stroke: rgb(211, 211, 211); stroke-opacity: 1; stroke-width: 1px; opacity: 1;"/></g><g class="points"/><g class="text"/></g><g class="trace scatter traceab8eb5" style="stroke-miterlimit: 2; opacity: 1;"><g class="fills"/><g class="errorbars"/><g class="lines"><path class="js-line" d="M0,56.16L41.44,205.73L82.89,152.02L124.33,257.67L165.78,197.21L207.22,208.96L248.67,257.58L290.11,277.82L331.56,294.26L373,313.67L414.44,321.5L455.89,339.09L497.33,359.55L580.22,425.61L621.67,444.52L663.11,455.48L704.56,469.33L787.44,495.78L828.89,510.51L870.33,542.9L911.78,508.52L953.22,490.79L994.67,523.32L1036.11,545.81L1077.56,541.06L1119,552.17L1160.44,592.57L1201.89,640.08L1243.33,668.59L1284.78,686.8L1326.22,692.93L1367.67,690.04L1409.11,688.86L1450.56,686.62L1492,683.51" style="vector-effect: none; fill: none; stroke: rgb(211, 211, 211); stroke-opacity: 1; stroke-width: 1px; opacity: 1;"/></g><g class="points"/><g class="text"/></g><g class="trace scatter trace0faf70" style="stroke-miterlimit: 2; opacity: 1;"><g class="fills"/><g class="errorbars"/><g class="lines"><path class="js-line" d="M0,54.52L41.44,204.47L82.89,152.49L124.33,252.02L165.78,182.21L207.22,209.78L248.67,267.4L290.11,293.35L331.56,356.62L373,367.59L414.44,406.65L455.89,457.36L497.33,489.3L538.78,543.05L580.22,588.1L621.67,623.54L663.11,654.59L746,744.93L787.44,787.99L828.89,827.4L870.33,826.98L911.78,788.22L953.22,745.63L994.67,749.71L1036.11,728L1077.56,695.36L1119,684.57L1160.44,684.14L1201.89,706.18L1243.33,728.83L1284.78,742.21L1367.67,726.99L1409.11,738.19L1450.56,733.72L1492,732.05" style="vector-effect: none; fill: none; stroke: rgb(211, 211, 211); stroke-opacity: 1; stroke-width: 1px; opacity: 1;"/></g><g class="points"/><g class="text"/></g><g class="trace scatter tracefe357f" style="stroke-miterlimit: 2; opacity: 1;"><g class="fills"/><g class="errorbars"/><g class="lines"><path class="js-line" d="M0,56.74L41.44,206.74L82.89,156.35L124.33,258.68L165.78,201.83L207.22,220.53L248.67,309.51L290.11,351.92L331.56,409.02L373,471.66L414.44,521.23L497.33,582.44L538.78,628.78L580.22,675.75L621.67,714.88L663.11,760.03L704.56,803.08L746,844.55L787.44,888.06L828.89,919.47L870.33,940.4L911.78,904.1L953.22,873.07L994.67,878.48L1036.11,881.48L1077.56,877.14L1119,881.82L1160.44,892.45L1201.89,907.43L1243.33,917.47L1284.78,931.04L1326.22,925.82L1367.67,919.04L1409.11,914.5L1450.56,911.06L1492,911.15" style="vector-effect: none; fill: none; stroke: rgb(211, 211, 211); stroke-opacity: 1; stroke-width: 1px; opacity: 1;"/></g><g class="points"/><g class="text"/></g><g class="trace scatter tracea74d2e" style="stroke-miterlimit: 2; opacity: 1;"><g class="fills"/><g class="errorbars"/><g class="lines"><path class="js-line" d="M0,54.51L41.44,204.5L82.89,152.51L124.33,252.09L165.78,182.37L207.22,210.35L248.67,268.97L290.11,289.57L331.56,309.29L373,330.99L414.44,347L455.89,364.92L497.33,390.56L538.78,431.63L580.22,471.01L621.67,492.51L663.11,505.55L704.56,522.82L746,538.41L787.44,554.22L828.89,572.51L870.33,603.07L911.78,574.15L953.22,559.51L994.67,595.59L1036.11,611.82L1077.56,599.8L1119,616.1L1160.44,652.57L1201.89,673.99L1243.33,693.78L1284.78,713.58L1326.22,725.14L1367.67,719.28L1409.11,719.52L1492,719.37" style="vector-effect: none; fill: none; stroke: rgb(211, 211, 211); stroke-opacity: 1; stroke-width: 1px; opacity: 1;"/></g><g class="points"/><g class="text"/></g></g></g></g><path class="xlines-above crisp" d="M77,1140.5H1570" style="fill: none; stroke-width: 1px; stroke: rgb(36, 36, 36); stroke-opacity: 1;"/><path class="ylines-above crisp" d="M77.5,60V1140" style="fill: none; stroke-width: 1px; stroke: rgb(36, 36, 36); stroke-opacity: 1;"/><g class="overlines-above"/><g class="xaxislayer-above"><path class="xtick ticks crisp" d="M0,1141v5" transform="translate(78,0)" style="stroke: rgb(68, 68, 68); stroke-opacity: 1; stroke-width: 1px;"/><path class="xtick ticks crisp" d="M0,1141v5" transform="translate(119.44,0)" style="stroke: rgb(68, 68, 68); stroke-opacity: 1; stroke-width: 1px;"/><path class="xtick ticks crisp" d="M0,1141v5" transform="translate(160.89,0)" style="stroke: rgb(68, 68, 68); stroke-opacity: 1; stroke-width: 1px;"/><path class="xtick ticks crisp" d="M0,1141v5" transform="translate(202.32999999999998,0)" style="stroke: rgb(68, 68, 68); stroke-opacity: 1; stroke-width: 1px;"/><path class="xtick ticks crisp" d="M0,1141v5" transform="translate(243.78,0)" style="stroke: rgb(68, 68, 68); stroke-opacity: 1; stroke-width: 1px;"/><path class="xtick ticks crisp" d="M0,1141v5" transform="translate(285.22,0)" style="stroke: rgb(68, 68, 68); stroke-opacity: 1; stroke-width: 1px;"/><path class="xtick ticks crisp" d="M0,1141v5" transform="translate(326.66999999999996,0)" style="stroke: rgb(68, 68, 68); stroke-opacity: 1; stroke-width: 1px;"/><path class="xtick ticks crisp" d="M0,1141v5" transform="translate(368.11,0)" style="stroke: rgb(68, 68, 68); stroke-opacity: 1; stroke-width: 1px;"/><path class="xtick ticks crisp" d="M0,1141v5" transform="translate(409.56,0)" style="stroke: rgb(68, 68, 68); stroke-opacity: 1; stroke-width: 1px;"/><path class="xtick ticks crisp" d="M0,1141v5" transform="translate(451,0)" style="stroke: rgb(68, 68, 68); stroke-opacity: 1; stroke-width: 1px;"/><path class="xtick ticks crisp" d="M0,1141v5" transform="translate(492.44,0)" style="stroke: rgb(68, 68, 68); stroke-opacity: 1; stroke-width: 1px;"/><path class="xtick ticks crisp" d="M0,1141v5" transform="translate(533.89,0)" style="stroke: rgb(68, 68, 68); stroke-opacity: 1; stroke-width: 1px;"/><path class="xtick ticks crisp" d="M0,1141v5" transform="translate(575.3299999999999,0)" style="stroke: rgb(68, 68, 68); stroke-opacity: 1; stroke-width: 1px;"/><path class="xtick ticks crisp" d="M0,1141v5" transform="translate(616.78,0)" style="stroke: rgb(68, 68, 68); stroke-opacity: 1; stroke-width: 1px;"/><path class="xtick ticks crisp" d="M0,1141v5" transform="translate(658.22,0)" style="stroke: rgb(68, 68, 68); stroke-opacity: 1; stroke-width: 1px;"/><path class="xtick ticks crisp" d="M0,1141v5" transform="translate(699.67,0)" style="stroke: rgb(68, 68, 68); stroke-opacity: 1; stroke-width: 1px;"/><path class="xtick ticks crisp" d="M0,1141v5" transform="translate(741.11,0)" style="stroke: rgb(68, 68, 68); stroke-opacity: 1; stroke-width: 1px;"/><path class="xtick ticks crisp" d="M0,1141v5" transform="translate(782.56,0)" style="stroke: rgb(68, 68, 68); stroke-opacity: 1; stroke-width: 1px;"/><path class="xtick ticks crisp" d="M0,1141v5" transform="translate(824,0)" style="stroke: rgb(68, 68, 68); stroke-opacity: 1; stroke-width: 1px;"/><path class="xtick ticks crisp" d="M0,1141v5" transform="translate(865.44,0)" style="stroke: rgb(68, 68, 68); stroke-opacity: 1; stroke-width: 1px;"/><path class="xtick ticks crisp" d="M0,1141v5" transform="translate(906.89,0)" style="stroke: rgb(68, 68, 68); stroke-opacity: 1; stroke-width: 1px;"/><path class="xtick ticks crisp" d="M0,1141v5" transform="translate(948.33,0)" style="stroke: rgb(68, 68, 68); stroke-opacity: 1; stroke-width: 1px;"/><path class="xtick ticks crisp" d="M0,1141v5" transform="translate(989.78,0)" style="stroke: rgb(68, 68, 68); stroke-opacity: 1; stroke-width: 1px;"/><path class="xtick ticks crisp" d="M0,1141v5" transform="translate(1031.22,0)" style="stroke: rgb(68, 68, 68); stroke-opacity: 1; stroke-width: 1px;"/><path class="xtick ticks crisp" d="M0,1141v5" transform="translate(1072.67,0)" style="stroke: rgb(68, 68, 68); stroke-opacity: 1; stroke-width: 1px;"/><path class="xtick ticks crisp" d="M0,1141v5" transform="translate(1114.11,0)" style="stroke: rgb(68, 68, 68); stroke-opacity: 1; stroke-width: 1px;"/><path class="xtick ticks crisp" d="M0,1141v5" transform="translate(1155.56,0)" style="stroke: rgb(68, 68, 68); stroke-opacity: 1; stroke-width: 1px;"/><path class="xtick ticks crisp" d="M0,1141v5" transform="translate(1197,0)" style="stroke: rgb(68, 68, 68); stroke-opacity: 1; stroke-width: 1px;"/><path class="xtick ticks crisp" d="M0,1141v5" transform="translate(1238.44,0)" style="stroke: rgb(68, 68, 68); stroke-opacity: 1; stroke-width: 1px;"/><path class="xtick ticks crisp" d="M0,1141v5" transform="translate(1279.89,0)" style="stroke: rgb(68, 68, 68); stroke-opacity: 1; stroke-width: 1px;"/><path class="xtick ticks crisp" d="M0,1141v5" transform="translate(1321.33,0)" style="stroke: rgb(68, 68, 68); stroke-opacity: 1; stroke-width: 1px;"/><path class="xtick ticks crisp" d="M0,1141v5" transform="translate(1362.78,0)" style="stroke: rgb(68, 68, 68); stroke-opacity: 1; stroke-width: 1px;"/><path class="xtick ticks crisp" d="M0,1141v5" transform="translate(1404.22,0)" style="stroke: rgb(68, 68, 68); stroke-opacity: 1; stroke-width: 1px;"/><path class="xtick ticks crisp" d="M0,1141v5" transform="translate(1445.67,0)" style="stroke: rgb(68, 68, 68); stroke-opacity: 1; stroke-width: 1px;"/><path class="xtick ticks crisp" d="M0,1141v5" transform="translate(1487.11,0)" style="stroke: rgb(68, 68, 68); stroke-opacity: 1; stroke-width: 1px;"/><path class="xtick ticks crisp" d="M0,1141v5" transform="translate(1528.56,0)" style="stroke: rgb(68, 68, 68); stroke-opacity: 1; stroke-width: 1px;"/><path class="xtick ticks crisp" d="M0,1141v5" transform="translate(1570,0)" style="stroke: rgb(68, 68, 68); stroke-opacity: 1; stroke-width: 1px;"/><g class="xtick"><text text-anchor="middle" x="0" y="1162.8" transform="translate(78,0)" style="font-family: Arial; font-size: 14px; fill: rgb(36, 36, 36); fill-opacity: 1; white-space: pre; opacity: 1;">2019</text></g><g class="xtick"><text text-anchor="middle" x="0" y="1162.8" style="font-family: Arial; font-size: 14px; fill: rgb(36, 36, 36); fill-opacity: 1; white-space: pre; opacity: 1;" transform="translate(119.44,0)">2020</text></g><g class="xtick"><text text-anchor="middle" x="0" y="1162.8" style="font-family: Arial; font-size: 14px; fill: rgb(36, 36, 36); fill-opacity: 1; white-space: pre; opacity: 1;" transform="translate(160.89,0)">2021</text></g><g class="xtick"><text text-anchor="middle" x="0" y="1162.8" style="font-family: Arial; font-size: 14px; fill: rgb(36, 36, 36); fill-opacity: 1; white-space: pre; opacity: 1;" transform="translate(202.32999999999998,0)">2022</text></g><g class="xtick"><text text-anchor="middle" x="0" y="1162.8" style="font-family: Arial; font-size: 14px; fill: rgb(36, 36, 36); fill-opacity: 1; white-space: pre; opacity: 1;" transform="translate(243.78,0)">2023</text></g><g class="xtick"><text text-anchor="middle" x="0" y="1162.8" style="font-family: Arial; font-size: 14px; fill: rgb(36, 36, 36); fill-opacity: 1; white-space: pre; opacity: 1;" transform="translate(285.22,0)">2024</text></g><g class="xtick"><text text-anchor="middle" x="0" y="1162.8" style="font-family: Arial; font-size: 14px; fill: rgb(36, 36, 36); fill-opacity: 1; white-space: pre; opacity: 1;" transform="translate(326.66999999999996,0)">2025</text></g><g class="xtick"><text text-anchor="middle" x="0" y="1162.8" style="font-family: Arial; font-size: 14px; fill: rgb(36, 36, 36); fill-opacity: 1; white-space: pre; opacity: 1;" transform="translate(368.11,0)">2026</text></g><g class="xtick"><text text-anchor="middle" x="0" y="1162.8" style="font-family: Arial; font-size: 14px; fill: rgb(36, 36, 36); fill-opacity: 1; white-space: pre; opacity: 1;" transform="translate(409.56,0)">2027</text></g><g class="xtick"><text text-anchor="middle" x="0" y="1162.8" style="font-family: Arial; font-size: 14px; fill: rgb(36, 36, 36); fill-opacity: 1; white-space: pre; opacity: 1;" transform="translate(451,0)">2028</text></g><g class="xtick"><text text-anchor="middle" x="0" y="1162.8" style="font-family: Arial; font-size: 14px; fill: rgb(36, 36, 36); fill-opacity: 1; white-space: pre; opacity: 1;" transform="translate(492.44,0)">2029</text></g><g class="xtick"><text text-anchor="middle" x="0" y="1162.8" style="font-family: Arial; font-size: 14px; fill: rgb(36, 36, 36); fill-opacity: 1; white-space: pre; opacity: 1;" transform="translate(533.89,0)">2030</text></g><g class="xtick"><text text-anchor="middle" x="0" y="1162.8" style="font-family: Arial; font-size: 14px; fill: rgb(36, 36, 36); fill-opacity: 1; white-space: pre; opacity: 1;" transform="translate(575.3299999999999,0)">2031</text></g><g class="xtick"><text text-anchor="middle" x="0" y="1162.8" style="font-family: Arial; font-size: 14px; fill: rgb(36, 36, 36); fill-opacity: 1; white-space: pre; opacity: 1;" transform="translate(616.78,0)">2032</text></g><g class="xtick"><text text-anchor="middle" x="0" y="1162.8" style="font-family: Arial; font-size: 14px; fill: rgb(36, 36, 36); fill-opacity: 1; white-space: pre; opacity: 1;" transform="translate(658.22,0)">2033</text></g><g class="xtick"><text text-anchor="middle" x="0" y="1162.8" style="font-family: Arial; font-size: 14px; fill: rgb(36, 36, 36); fill-opacity: 1; white-space: pre; opacity: 1;" transform="translate(699.67,0)">2034</text></g><g class="xtick"><text text-anchor="middle" x="0" y="1162.8" style="font-family: Arial; font-size: 14px; fill: rgb(36, 36, 36); fill-opacity: 1; white-space: pre; opacity: 1;" transform="translate(741.11,0)">2035</text></g><g class="xtick"><text text-anchor="middle" x="0" y="1162.8" style="font-family: Arial; font-size: 14px; fill: rgb(36, 36, 36); fill-opacity: 1; white-space: pre; opacity: 1;" transform="translate(782.56,0)">2036</text></g><g class="xtick"><text text-anchor="middle" x="0" y="1162.8" style="font-family: Arial; font-size: 14px; fill: rgb(36, 36, 36); fill-opacity: 1; white-space: pre; opacity: 1;" transform="translate(824,0)">2037</text></g><g class="xtick"><text text-anchor="middle" x="0" y="1162.8" style="font-family: Arial; font-size: 14px; fill: rgb(36, 36, 36); fill-opacity: 1; white-space: pre; opacity: 1;" transform="translate(865.44,0)">2038</text></g><g class="xtick"><text text-anchor="middle" x="0" y="1162.8" style="font-family: Arial; font-size: 14px; fill: rgb(36, 36, 36); fill-opacity: 1; white-space: pre; opacity: 1;" transform="translate(906.89,0)">2039</text></g><g class="xtick"><text text-anchor="middle" x="0" y="1162.8" style="font-family: Arial; font-size: 14px; fill: rgb(36, 36, 36); fill-opacity: 1; white-space: pre; opacity: 1;" transform="translate(948.33,0)">2040</text></g><g class="xtick"><text text-anchor="middle" x="0" y="1162.8" style="font-family: Arial; font-size: 14px; fill: rgb(36, 36, 36); fill-opacity: 1; white-space: pre; opacity: 1;" transform="translate(989.78,0)">2041</text></g><g class="xtick"><text text-anchor="middle" x="0" y="1162.8" style="font-family: Arial; font-size: 14px; fill: rgb(36, 36, 36); fill-opacity: 1; white-space: pre; opacity: 1;" transform="translate(1031.22,0)">2042</text></g><g class="xtick"><text text-anchor="middle" x="0" y="1162.8" style="font-family: Arial; font-size: 14px; fill: rgb(36, 36, 36); fill-opacity: 1; white-space: pre; opacity: 1;" transform="translate(1072.67,0)">2043</text></g><g class="xtick"><text text-anchor="middle" x="0" y="1162.8" style="font-family: Arial; font-size: 14px; fill: rgb(36, 36, 36); fill-opacity: 1; white-space: pre; opacity: 1;" transform="translate(1114.11,0)">2044</text></g><g class="xtick"><text text-anchor="middle" x="0" y="1162.8" style="font-family: Arial; font-size: 14px; fill: rgb(36, 36, 36); fill-opacity: 1; white-space: pre; opacity: 1;" transform="translate(1155.56,0)">2045</text></g><g class="xtick"><text text-anchor="middle" x="0" y="1162.8" style="font-family: Arial; font-size: 14px; fill: rgb(36, 36, 36); fill-opacity: 1; white-space: pre; opacity: 1;" transform="translate(1197,0)">2046</text></g><g class="xtick"><text text-anchor="middle" x="0" y="1162.8" style="font-family: Arial; font-size: 14px; fill: rgb(36, 36, 36); fill-opacity: 1; white-space: pre; opacity: 1;" transform="translate(1238.44,0)">2047</text></g><g class="xtick"><text text-anchor="middle" x="0" y="1162.8" style="font-family: Arial; font-size: 14px; fill: rgb(36, 36, 36); fill-opacity: 1; white-space: pre; opacity: 1;" transform="translate(1279.89,0)">2048</text></g><g class="xtick"><text text-anchor="middle" x="0" y="1162.8" style="font-family: Arial; font-size: 14px; fill: rgb(36, 36, 36); fill-opacity: 1; white-space: pre; opacity: 1;" transform="translate(1321.33,0)">2049</text></g><g class="xtick"><text text-anchor="middle" x="0" y="1162.8" style="font-family: Arial; font-size: 14px; fill: rgb(36, 36, 36); fill-opacity: 1; white-space: pre; opacity: 1;" transform="translate(1362.78,0)">2050</text></g><g class="xtick"><text text-anchor="middle" x="0" y="1162.8" style="font-family: Arial; font-size: 14px; fill: rgb(36, 36, 36); fill-opacity: 1; white-space: pre; opacity: 1;" transform="translate(1404.22,0)">2051</text></g><g class="xtick"><text text-anchor="middle" x="0" y="1162.8" style="font-family: Arial; font-size: 14px; fill: rgb(36, 36, 36); fill-opacity: 1; white-space: pre; opacity: 1;" transform="translate(1445.67,0)">2052</text></g><g class="xtick"><text text-anchor="middle" x="0" y="1162.8" style="font-family: Arial; font-size: 14px; fill: rgb(36, 36, 36); fill-opacity: 1; white-space: pre; opacity: 1;" transform="translate(1487.11,0)">2053</text></g><g class="xtick"><text text-anchor="middle" x="0" y="1162.8" style="font-family: Arial; font-size: 14px; fill: rgb(36, 36, 36); fill-opacity: 1; white-space: pre; opacity: 1;" transform="translate(1528.56,0)">2054</text></g><g class="xtick"><text text-anchor="middle" x="0" y="1162.8" style="font-family: Arial; font-size: 14px; fill: rgb(36, 36, 36); fill-opacity: 1; white-space: pre; opacity: 1;" transform="translate(1570,0)">2055</text></g></g><g class="yaxislayer-above"><path class="ytick ticks crisp" d="M77,0h-5" transform="translate(0,1128.93)" style="stroke: rgb(68, 68, 68); stroke-opacity: 1; stroke-width: 1px;"/><path class="ytick ticks crisp" d="M77,0h-5" transform="translate(0,980.1)" style="stroke: rgb(68, 68, 68); stroke-opacity: 1; stroke-width: 1px;"/><path class="ytick ticks crisp" d="M77,0h-5" transform="translate(0,831.27)" style="stroke: rgb(68, 68, 68); stroke-opacity: 1; stroke-width: 1px;"/><path class="ytick ticks crisp" d="M77,0h-5" transform="translate(0,682.44)" style="stroke: rgb(68, 68, 68); stroke-opacity: 1; stroke-width: 1px;"/><path class="ytick ticks crisp" d="M77,0h-5" transform="translate(0,533.6)" style="stroke: rgb(68, 68, 68); stroke-opacity: 1; stroke-width: 1px;"/><path class="ytick ticks crisp" d="M77,0h-5" transform="translate(0,384.77)" style="stroke: rgb(68, 68, 68); stroke-opacity: 1; stroke-width: 1px;"/><path class="ytick ticks crisp" d="M77,0h-5" transform="translate(0,235.94)" style="stroke: rgb(68, 68, 68); stroke-opacity: 1; stroke-width: 1px;"/><path class="ytick ticks crisp" d="M77,0h-5" transform="translate(0,87.11)" style="stroke: rgb(68, 68, 68); stroke-opacity: 1; stroke-width: 1px;"/><g class="ytick"><text text-anchor="end" x="69.2" y="4.8999999999999995" transform="translate(0,1128.93)" style="font-family: Arial; font-size: 14px; fill: rgb(36, 36, 36); fill-opacity: 1; white-space: pre; opacity: 1;">150k</text></g><g class="ytick"><text text-anchor="end" x="69.2" y="4.8999999999999995" style="font-family: Arial; font-size: 14px; fill: rgb(36, 36, 36); fill-opacity: 1; white-space: pre; opacity: 1;" transform="translate(0,980.1)">200k</text></g><g class="ytick"><text text-anchor="end" x="69.2" y="4.8999999999999995" style="font-family: Arial; font-size: 14px; fill: rgb(36, 36, 36); fill-opacity: 1; white-space: pre; opacity: 1;" transform="translate(0,831.27)">250k</text></g><g class="ytick"><text text-anchor="end" x="69.2" y="4.8999999999999995" style="font-family: Arial; font-size: 14px; fill: rgb(36, 36, 36); fill-opacity: 1; white-space: pre; opacity: 1;" transform="translate(0,682.44)">300k</text></g><g class="ytick"><text text-anchor="end" x="69.2" y="4.8999999999999995" style="font-family: Arial; font-size: 14px; fill: rgb(36, 36, 36); fill-opacity: 1; white-space: pre; opacity: 1;" transform="translate(0,533.6)">350k</text></g><g class="ytick"><text text-anchor="end" x="69.2" y="4.8999999999999995" style="font-family: Arial; font-size: 14px; fill: rgb(36, 36, 36); fill-opacity: 1; white-space: pre; opacity: 1;" transform="translate(0,384.77)">400k</text></g><g class="ytick"><text text-anchor="end" x="69.2" y="4.8999999999999995" style="font-family: Arial; font-size: 14px; fill: rgb(36, 36, 36); fill-opacity: 1; white-space: pre; opacity: 1;" transform="translate(0,235.94)">450k</text></g><g class="ytick"><text text-anchor="end" x="69.2" y="4.8999999999999995" style="font-family: Arial; font-size: 14px; fill: rgb(36, 36, 36); fill-opacity: 1; white-space: pre; opacity: 1;" transform="translate(0,87.11)">500k</text></g></g><g class="overaxes-above"/></g></g><g class="polarlayer"/><g class="smithlayer"/><g class="ternarylayer"/><g class="geolayer"/><g class="funnelarealayer"/><g class="pielayer"/><g class="iciclelayer"/><g class="treemaplayer"/><g class="sunburstlayer"/><g class="glimages"/><defs id="topdefs-9505a6"><g class="clips"/></defs><g class="layer-above"><g class="imagelayer"/><g class="shapelayer"/></g><g class="infolayer"><g class="g-gtitle"><text class="gtitle" x="80" y="30" text-anchor="start" dy="0em" style="opacity: 1; font-family: Arial; font-size: 20px; fill: rgb(36, 36, 36); fill-opacity: 1; white-space: pre;">Fig 1: Total Emissions by Scenario</text></g><g class="g-xtitle"/><g class="g-ytitle"><text class="ytitle" transform="rotate(-90,18.390820312499997,600)" x="18.390820312499997" y="600" text-anchor="middle" style="opacity: 1; font-family: Arial; font-size: 17px; fill: rgb(36, 36, 36); fill-opacity: 1; white-space: pre;">CO₂eq (kt)</text></g></g></svg>